<svg xmlns="http://www.w3.org/2000/svg" width="246.967" height="215.134" viewBox="0 0 246.967 215.134">
  <g id="Group_8423" data-name="Group 8423" transform="translate(404.344 -4080.082)">
    <g id="Group_8421" data-name="Group 8421" transform="translate(-404.344 4080.082)">
      <g id="Group_8408" data-name="Group 8408" transform="translate(159.894 25.792)">
        <g id="Group_8406" data-name="Group 8406" transform="translate(0.476 0.476)">
          <path id="Path_8082" data-name="Path 8082" d="M756.409,80.688H725.285c0-7.279,4.391-6.871,4.391-10.952V62.622c0-5.792,2.954-9.611,7.74-10.809a3.462,3.462,0,0,1,6.862,0c4.785,1.193,7.739,5.017,7.739,10.809v7.114C752.017,73.817,756.409,73.408,756.409,80.688Z" transform="translate(-725.285 -48.811)" fill="none" stroke="#fff" stroke-width="1"/>
        </g>
        <path id="Path_8084" data-name="Path 8084" d="M795.767,302.852s.072,6.06,6.006,6.06,6.349-6.06,6.349-6.06Z" transform="translate(-785.92 -270.401)" fill="none" stroke="#fff" stroke-width="1"/>
        <path id="Path_8085" data-name="Path 8085" d="M808.123,302.846s-.417,6.061-6.35,6.061a6.2,6.2,0,0,1-3.1-.736c-2.862-1.614-2.906-5.324-2.906-5.324Z" transform="translate(-785.92 -270.396)" fill="none" stroke="#fff" stroke-width="1"/>
        <path id="Path_8087" data-name="Path 8087" d="M750.8,69.853a4.762,4.762,0,0,1-1.608-3.421V59.318c0-5.755-2.831-9.814-7.783-11.186a3.962,3.962,0,0,0-7.735,0c-4.952,1.377-7.783,5.435-7.783,11.186v7.114a4.761,4.761,0,0,1-1.608,3.421,9.88,9.88,0,0,0-2.779,7.53.483.483,0,0,0,.491.476h8.691a6.892,6.892,0,0,0,13.711,0h8.691a.483.483,0,0,0,.491-.476A9.881,9.881,0,0,0,750.8,69.853ZM737.545,83.09a5.831,5.831,0,0,1-5.875-5.231h11.745A5.827,5.827,0,0,1,737.545,83.09Zm6.382-6.182H722.494a8.812,8.812,0,0,1,2.541-6.441,5.64,5.64,0,0,0,1.839-4.035V59.318c0-5.4,2.684-9.176,7.364-10.348a.48.48,0,0,0,.365-.413,2.965,2.965,0,0,1,5.878,0,.481.481,0,0,0,.366.413c4.68,1.168,7.363,4.94,7.363,10.348v7.114a5.639,5.639,0,0,0,1.84,4.035,8.814,8.814,0,0,1,2.541,6.441Z" transform="translate(-721.505 -45.031)" fill="none" stroke="#fff" stroke-width="1"/>
      </g>
      <g id="Group_8416" data-name="Group 8416" transform="translate(153.359 93.092)">
        <g id="Group_8411" data-name="Group 8411" transform="translate(0 0)">
          <g id="Group_8409" data-name="Group 8409" transform="translate(6.001 5.15)">
            <path id="Path_8088" data-name="Path 8088" d="M102.852,113.4H72.112c0-7.429,4.337-7.012,4.337-11.176v-7.26c0-5.911,2.918-9.808,7.644-11.03a3.406,3.406,0,0,1,6.777,0c4.726,1.218,7.644,5.12,7.644,11.03v7.26C98.515,106.391,102.852,105.974,102.852,113.4Z" transform="translate(-72.112 -80.873)" fill="none" stroke="#fff" stroke-width="1"/>
          </g>
          <path id="Path_8090" data-name="Path 8090" d="M147.166,307.729s-.617,6.059-6.651,6.059a6.108,6.108,0,0,1-3.628-1.034,6.81,6.81,0,0,1-2.5-5.025Z" transform="translate(-119.434 -269.985)" fill="none" stroke="#fff" stroke-width="1"/>
          <path id="Path_8092" data-name="Path 8092" d="M95.821,98.99V91.73c0-5.887-2.8-10.043-7.7-11.461a3.95,3.95,0,0,0-7.746,0c-4.9,1.422-7.7,5.578-7.7,11.461v7.26a4.877,4.877,0,0,1-1.576,3.454c-1.23,1.459-2.761,3.275-2.761,7.721a.543.543,0,0,0,.543.543h8.539a6.853,6.853,0,0,0,13.662,0h8.539a.543.543,0,0,0,.543-.543c0-4.446-1.531-6.262-2.761-7.721A4.877,4.877,0,0,1,95.821,98.99ZM84.247,115.932a5.777,5.777,0,0,1-5.745-5.223H89.988A5.774,5.774,0,0,1,84.247,115.932Zm6.309-6.309H69.426a9.068,9.068,0,0,1,2.5-6.478,5.881,5.881,0,0,0,1.832-4.154V91.73c0-5.486,2.638-9.315,7.237-10.5a.543.543,0,0,0,.4-.471,2.863,2.863,0,0,1,5.7,0,.543.543,0,0,0,.4.471c4.6,1.185,7.237,5.014,7.237,10.5v7.26a5.88,5.88,0,0,0,1.832,4.154,9.067,9.067,0,0,1,2.5,6.478Z" transform="translate(-62.874 -72.486)" fill="none" stroke="#fff" stroke-width="1"/>
          <path id="Path_8093" data-name="Path 8093" d="M238.518,74.224a.543.543,0,0,0-.625.888,14.567,14.567,0,0,1,5.646,15.823.543.543,0,1,0,1.046.292,15.654,15.654,0,0,0-6.067-17Z" transform="translate(-207.875 -69.945)" fill="none" stroke="#fff" stroke-width="1"/>
          <path id="Path_8094" data-name="Path 8094" d="M263.186,45.138a.543.543,0,0,0-.647.873,20.042,20.042,0,0,1,7.552,20.808.543.543,0,1,0,1.056.255,21.127,21.127,0,0,0-7.961-21.936Z" transform="translate(-228.99 -45.031)" fill="none" stroke="#fff" stroke-width="1"/>
          <path id="Path_8095" data-name="Path 8095" d="M75.631,75.112a.543.543,0,0,0-.625-.888,15.654,15.654,0,0,0-6.067,17,.543.543,0,0,0,.523.4.544.544,0,0,0,.523-.689,14.569,14.569,0,0,1,5.646-15.823Z" transform="translate(-62.901 -69.944)" fill="none" stroke="#fff" stroke-width="1"/>
          <path id="Path_8096" data-name="Path 8096" d="M31.428,62.1A20.105,20.105,0,0,1,39.54,46.011a.543.543,0,1,0-.646-.873,21.127,21.127,0,0,0-7.961,21.936.543.543,0,0,0,1.056-.255A20.1,20.1,0,0,1,31.428,62.1Z" transform="translate(-30.342 -45.031)" fill="none" stroke="#fff" stroke-width="1"/>
        </g>
      </g>
      <g id="Group_8415" data-name="Group 8415" transform="translate(159.894 163.753)">
        <g id="Group_8412" data-name="Group 8412" transform="translate(0 0)">
          <path id="Path_8097" data-name="Path 8097" d="M401.513,80.694H371.644c0-7.281,4.215-6.872,4.215-10.952V62.628c0-5.793,2.835-9.61,7.427-10.809a3.306,3.306,0,0,1,6.584,0c.219.057.434.12.645.19a9.4,9.4,0,0,1,3.315,1.852A8.429,8.429,0,0,0,397.3,69.077v.666C397.3,73.823,401.513,73.414,401.513,80.694Z" transform="translate(-371.169 -48.341)" fill="none" stroke="#fff" stroke-width="1"/>
          <path id="Path_8099" data-name="Path 8099" d="M536.083,85.4A8.331,8.331,0,1,1,523.008,78.5,8.2,8.2,0,0,1,527.75,77,8.367,8.367,0,0,1,536.083,85.4Z" transform="translate(-499.346 -72.976)" fill="none" stroke="#fff" stroke-width="1"/>
          <path id="Path_8101" data-name="Path 8101" d="M455.01,304.094s-.573,5.765-6.176,5.765a5.572,5.572,0,0,1-3.369-.984,6.553,6.553,0,0,1-2.326-4.781Z" transform="translate(-433.276 -271.487)" fill="none" stroke="#fff" stroke-width="1"/>
          <path id="Path_8104" data-name="Path 8104" d="M396.029,48.579a9.087,9.087,0,0,0-4.843,1.379,10.488,10.488,0,0,0-3.66-1.826,3.905,3.905,0,0,0-7.643,0c-4.888,1.378-7.683,5.436-7.683,11.185v7.114a4.788,4.788,0,0,1-1.588,3.423,9.946,9.946,0,0,0-2.743,7.528.482.482,0,0,0,.489.476h8.521a6.859,6.859,0,0,0,13.65,0h8.521a.482.482,0,0,0,.489-.476,9.946,9.946,0,0,0-2.743-7.528,4.787,4.787,0,0,1-1.588-3.423V66.3c.271.024.545.037.82.037a8.881,8.881,0,1,0,0-17.76ZM383.706,83.09a5.814,5.814,0,0,1-5.849-5.231H389.55A5.811,5.811,0,0,1,383.706,83.09Zm12.34-12.625a8.872,8.872,0,0,1,2.509,6.442h-29.7a8.871,8.871,0,0,1,2.508-6.442,5.668,5.668,0,0,0,1.816-4.033V59.318c0-5.4,2.649-9.176,7.267-10.349a.479.479,0,0,0,.363-.413,2.917,2.917,0,0,1,5.794,0,.48.48,0,0,0,.363.413,9.727,9.727,0,0,1,3.4,1.568c-.083.066-.163.135-.243.2-.042.036-.086.07-.127.106q-.192.169-.373.348l-.011.01q-.187.185-.361.38c-.034.038-.065.077-.1.116-.08.093-.16.185-.237.281-.041.051-.079.1-.118.155-.065.085-.13.171-.192.259-.041.058-.079.117-.118.175-.057.084-.113.169-.167.255-.039.062-.076.125-.113.189-.05.085-.1.17-.147.257-.036.065-.07.132-.1.2-.044.086-.088.173-.129.261-.032.068-.063.137-.094.206q-.059.133-.113.267c-.028.07-.056.14-.082.211q-.051.136-.1.274c-.024.071-.048.143-.07.215-.029.093-.055.187-.08.281-.02.072-.039.144-.057.216-.023.1-.044.194-.064.292-.015.071-.031.142-.044.213-.019.1-.034.206-.049.31-.01.068-.021.135-.029.2-.014.115-.023.231-.032.346,0,.058-.012.115-.015.173-.01.174-.016.348-.016.524q0,.2.009.4c0,.045.006.089.009.134.005.087.01.175.018.262.005.053.012.106.018.159.009.077.017.155.027.232.008.056.018.112.027.168.012.073.022.146.036.218s.024.115.036.172.028.14.045.209.029.116.044.174.034.136.053.2.035.116.052.173.04.132.061.2.04.116.06.173.045.128.069.191.045.114.068.171.05.125.077.186.05.113.076.169.055.121.084.181.055.111.083.167.06.118.091.176.06.109.091.163.065.115.1.171.065.107.1.159.07.111.106.166.07.1.1.156.074.107.112.16.074.1.112.153.078.1.118.154.078.1.119.148.083.1.125.149.083.1.125.143.087.1.131.144l.13.138c.045.047.091.093.138.139s.09.089.136.132.1.089.144.133.094.085.141.126.1.085.15.127.1.081.146.12.1.081.156.121.1.077.151.114.108.077.162.115.1.072.155.107.112.073.169.109.105.068.159.1.117.069.176.1.107.063.161.092.122.065.183.1.108.057.163.084.127.061.192.091.108.052.163.076.134.057.2.085.108.046.162.067c.071.028.144.053.216.08.052.019.1.039.155.057.08.027.162.052.243.077.046.014.09.03.136.043.1.03.206.057.309.084l.077.021q.193.047.39.087v.268A5.669,5.669,0,0,0,396.046,70.465Zm-.017-5.078a8.334,8.334,0,0,1-1.235-.091,8.046,8.046,0,0,1-6.826-7.475q-.009-.18-.009-.362a7.765,7.765,0,0,1,.125-1.375c.009-.049.018-.1.028-.145a7.944,7.944,0,0,1,3.325-5,7.983,7.983,0,1,1,4.592,14.447Z" transform="translate(-367.868 -45.031)" fill="none" stroke="#fff" stroke-width="1"/>
        </g>
        <g id="Group_8414" data-name="Group 8414" transform="translate(26.25 7.388)">
          <path id="Path_8105" data-name="Path 8105" d="M572.1,103.726h1.066v10.08h-1.584v-7.69h-1.224v-1.123A1.569,1.569,0,0,0,572.1,103.726Z" transform="translate(-570.355 -103.726)" fill="#fff"/>
        </g>
      </g>
      <g id="Group_8420" data-name="Group 8420" transform="translate(0 0)">
        <g id="Group_8417" data-name="Group 8417">
          <g id="Rectangle_1548" data-name="Rectangle 1548" transform="translate(0 12.361)" fill="none" stroke="#fff" stroke-width="2">
            <rect width="246.967" height="64.991" rx="31" stroke="none"/>
            <rect x="1" y="1" width="244.967" height="62.991" rx="30" fill="none"/>
          </g>
          <g id="Path_8106" data-name="Path 8106" transform="translate(23.419)" fill="none">
            <path d="M20.421,0H179.708l20.421,14.452H0Z" stroke="none"/>
            <path d="M 21.05741882324219 1.999996185302734 L 6.288360595703125 12.45173358917236 L 193.8406524658203 12.45173358917236 L 179.0716094970703 1.999996185302734 L 21.05741882324219 1.999996185302734 M 20.42132568359375 -3.814697265625e-06 L 179.7077026367188 -3.814697265625e-06 L 200.1290130615234 14.45173358917236 L -1.52587890625e-05 14.45173358917236 L 20.42132568359375 -3.814697265625e-06 Z" stroke="none" fill="#fff"/>
          </g>
        </g>
        <g id="Group_8418" data-name="Group 8418" transform="translate(0 82.551)">
          <g id="Rectangle_1548-2" data-name="Rectangle 1548" transform="translate(0 0)" fill="none" stroke="#fff" stroke-width="2">
            <rect width="246.967" height="63.691" rx="31" stroke="none"/>
            <rect x="1" y="1" width="244.967" height="61.691" rx="30" fill="none"/>
          </g>
        </g>
        <g id="Group_8419" data-name="Group 8419" transform="translate(0 151.442)">
          <g id="Rectangle_1548-3" data-name="Rectangle 1548" transform="translate(0 0)" fill="none" stroke="#fff" stroke-width="2">
            <rect width="246.967" height="63.691" rx="31" stroke="none"/>
            <rect x="1" y="1" width="244.967" height="61.691" rx="30" fill="none"/>
          </g>
        </g>
      </g>
    </g>
  </g>
</svg>
