<svg xmlns="http://www.w3.org/2000/svg" width="52.083" height="44.307" viewBox="0 0 52.083 44.307">
  <g id="AOC-icon" transform="translate(0.262 -38.39)">
    <g id="Group_4159" data-name="Group 4159" transform="translate(0.005 38.668)">
      <path id="Path_11342" data-name="Path 11342" d="M51.52,67.5a3.325,3.325,0,0,0-2.894-2.289,3.975,3.975,0,0,1-.651-.151.758.758,0,0,1-.539-1.166l.025-.065a4.917,4.917,0,0,1,.2-.486A3.948,3.948,0,0,0,46.9,58.5c.382-.293.751-.578,1.121-.876l.056-.045a5.066,5.066,0,0,0,1.016-1,2.972,2.972,0,0,0-2.045-4.8c-.154-.023-.3-.038-.438-.052-.1-.01-.2-.019-.292-.033l-.194-.028A2.524,2.524,0,0,0,44.7,49.659c-.068-.16-.133-.329-.2-.507a7.613,7.613,0,0,0-.7-1.482,24.108,24.108,0,0,0-2.039-2.627c-.492-.563-.54-.85-.457-1.182A3.851,3.851,0,0,0,41.4,43c0-.069,0-.137.007-.2a3.8,3.8,0,0,0-2.828-4.009,3.579,3.579,0,0,0-4.183,2.062c-.713,1.438-1.407,2.908-2.078,4.331-.259.549-.524,1.111-.791,1.672a3.547,3.547,0,0,0-2.561-2.4c-.494-.16-.989-.283-1.467-.4-.326-.081-.634-.157-.938-.244a2.589,2.589,0,0,0-3.009,1.064c-.439.63-.9,1.267-1.337,1.884-.7.978-1.425,1.99-2.111,3.013a6.146,6.146,0,0,1-2.485,2.417A2.654,2.654,0,0,0,16,54.148l-.018.107a18.142,18.142,0,0,0-.329,3.125,2.081,2.081,0,0,0,.5,1.585,1.892,1.892,0,0,0,1.526.393c.105,0,.224-.01.358-.013a5.3,5.3,0,0,0,.7-.069c1.223.919,2.618.2,3.552-.28l.268-.137c1.644-.829,1.936-3.148,2.018-4.24a3.341,3.341,0,0,1,.458-.117l.707,1.5A5.323,5.323,0,0,0,23.9,58.9a34.848,34.848,0,0,1-4.975,1.8c-1.542.485-3,.943-3.874,1.333a23.992,23.992,0,0,0-3.182,1.919c-.491.353-1.2.933-1.678,1.352a3.79,3.79,0,0,0-1.338,3.161.776.776,0,0,1-.03.253c-.593-.272-1.2-.549-1.829-.786a3.315,3.315,0,0,0-4.26,1.319A41.791,41.791,0,0,0,.307,73.829a2.915,2.915,0,0,0,.97,3.692,17.938,17.938,0,0,1,1.315,1.263A3.12,3.12,0,0,0,4.76,79.809l.273.011a11.271,11.271,0,0,1,1.367.106,4.157,4.157,0,0,0,3.848-1.347c.188-.2.363-.4.531-.6a10.294,10.294,0,0,1,.712-.777l.063-.059a5.976,5.976,0,0,1,1.243-1,5.686,5.686,0,0,0,1.893-1.382,4.892,4.892,0,0,0,2.778-.207,8,8,0,0,0,.876,1.247,23.135,23.135,0,0,0,1.81,1.758c.177.16.354.319.529.48a4.4,4.4,0,0,0,.891.623,2.137,2.137,0,0,0,3.1-2.6c-.138-.414-.288-.822-.433-1.218l-.159-.437-.132-.364a2.449,2.449,0,0,1,1.141.619.863.863,0,0,1,.1.377,3.778,3.778,0,0,0,.627,2.083,6.587,6.587,0,0,1,.526.977,8.391,8.391,0,0,0,.725,1.318c.043.126.1.421.144.622a3.065,3.065,0,0,0,.8,1.862,2.14,2.14,0,0,0,1.338.544,1.685,1.685,0,0,0,.628-.124,3.178,3.178,0,0,0,1.159-.954l.173-.194a4.351,4.351,0,0,0,.81-1.307,5.487,5.487,0,0,0-.312-3.5,1.108,1.108,0,1,0-2.057.825,3.743,3.743,0,0,1,.308,1.855,2.141,2.141,0,0,1-.392.635c-.066.073-.129.143-.189.212l-.03.034c-.026-.118-.05-.238-.071-.334A3.651,3.651,0,0,0,28.9,78.17a6.2,6.2,0,0,1-.552-1.013,8.339,8.339,0,0,0-.72-1.311,1.65,1.65,0,0,1-.224-.917,3,3,0,0,0-.5-1.551c-.906-1.271-3.128-1.814-4.386-1.718a1.313,1.313,0,0,0-1.069.576,1.211,1.211,0,0,0-.113,1.078l.091.249.58,1.6q.081.223.162.445c.133.363.259.708.377,1.056a2.067,2.067,0,0,1-.353-.252q-.271-.249-.545-.5A21.128,21.128,0,0,1,20,74.331a7.282,7.282,0,0,1-.748-1.111c-.081-.136-.162-.274-.246-.411a1.442,1.442,0,0,0-1.94-.507l-.01.005a2.728,2.728,0,0,1-2.219.213,1.657,1.657,0,0,0-1.724.658,3.167,3.167,0,0,1-1.324.994,7.78,7.78,0,0,0-1.757,1.358l-.062.059a12.113,12.113,0,0,0-.872.944c-.161.187-.312.364-.468.53a1.937,1.937,0,0,1-1.872.675,13.078,13.078,0,0,0-1.642-.134L4.85,77.6a.9.9,0,0,1-.661-.344,20.336,20.336,0,0,0-1.476-1.415c-.642-.548-.528-.795-.4-1.08a39.632,39.632,0,0,1,2.3-4.33c.238-.384.635-.778,1.591-.415.593.225,1.179.494,1.8.778l.427.2a1.643,1.643,0,0,0,2.112-.7,3.525,3.525,0,0,0,.518-1.926,1.585,1.585,0,0,1,.58-1.372c.515-.448,1.153-.963,1.516-1.224a22.206,22.206,0,0,1,2.79-1.694c.761-.339,2.159-.778,3.639-1.244,4.693-1.476,6.227-2.054,6.435-3.248a3.224,3.224,0,0,1,1.472-2.121,1.542,1.542,0,0,0,.5-1.892l-1.241-2.635a1.306,1.306,0,0,0-1.344-.689c-.1,0-2.358.069-2.914,1.4a1.508,1.508,0,0,0-.1.546c-.139,2.238-.711,2.636-.824,2.693l-.285.146a3.742,3.742,0,0,1-1.205.478l-.02-.014a1.844,1.844,0,0,0-1.5-.427,4.244,4.244,0,0,1-.559.067l-.123,0a17.946,17.946,0,0,1,.3-2.517l.018-.107c.016-.1.147-.218.332-.3A8.251,8.251,0,0,0,21.941,51c.667-.995,1.381-1.992,2.072-2.957.445-.622.906-1.265,1.353-1.906.181-.26.269-.29.585-.2.341.1.682.181,1.011.263.461.114.9.222,1.317.358.949.307,1.211.675,1.219,1.711,0,.125,0,.251,0,.376,0,.317,0,.645.019.986,0,.013,0,.026,0,.043a1.467,1.467,0,0,0,2.425.966,1.374,1.374,0,0,0,.264-.315c.331-.546.64-1.118.919-1.7.4-.835.8-1.685,1.189-2.507.667-1.413,1.356-2.873,2.059-4.291a1.381,1.381,0,0,1,1.668-.9,1.578,1.578,0,0,1,1.145,1.735c0,.091-.007.182-.01.273a2.246,2.246,0,0,1-.028.382,3.4,3.4,0,0,0,.938,3.176,22.011,22.011,0,0,1,1.855,2.385,5.771,5.771,0,0,1,.486,1.061c.087.226.177.459.281.695a1.637,1.637,0,0,0,.733.857c.467.237.469.282.476.494a1.94,1.94,0,0,0,1.656,1.841l.429.063c.133.019.258.031.379.043s.227.023.326.038a.908.908,0,0,1,.744.478.872.872,0,0,1-.17.844,3.368,3.368,0,0,1-.6.554l-.058.046c-.456.367-.92.722-1.412,1.1l-.1.077a1.718,1.718,0,0,0-.236,2.512c.1.115.24.267.383.416a1.785,1.785,0,0,1,.431,2.327,6.742,6.742,0,0,0-.306.716l-.024.062a2.937,2.937,0,0,0,1.868,4.044,5.98,5.98,0,0,0,1.028.249c.745.124.98.371,1.095.633v.225c-.21.36-.582.591-1.526.69q-.732.077-1.465.148a1.108,1.108,0,1,0,.218,2.2c.493-.049.986-.1,1.478-.15a3.793,3.793,0,0,0,3.422-2.207l.088-.207V67.666Z" transform="translate(-0.005 -38.668)" fill="#fff" stroke="#2f407c" stroke-width="0.5"/>
      <path id="Path_11343" data-name="Path 11343" d="M71.76,201.51l.131,0c.2,0,.412.008.622.008.308,0,.621-.009.942-.039,2.15-.052,2.965-1.314,3.009-2.385a1.882,1.882,0,0,1,.045-.57,7.231,7.231,0,0,0-.284-1.638,2.207,2.207,0,0,1-.106-1.343,2.32,2.32,0,0,0-1.442-2.959,4.116,4.116,0,0,0-1.279-.221,2.676,2.676,0,0,0-2.031.769,2.464,2.464,0,0,0-.656,1.9,3.73,3.73,0,0,0,.1.688.814.814,0,0,1-.072.609c-.069.139-.129.277-.184.4-.077.181-.157.362-.237.543-.2.446-.4.906-.57,1.4a2.135,2.135,0,0,0,.2,1.964A2.179,2.179,0,0,0,71.76,201.51Zm.581-3.338c.085-.191.17-.383.251-.575.047-.11.086-.2.126-.28a3.015,3.015,0,0,0,.238-2.143,1.775,1.775,0,0,1-.035-.287.315.315,0,0,1,.043-.218.537.537,0,0,1,.379-.089,1.953,1.953,0,0,1,.59.093.341.341,0,0,1,.081.04.427.427,0,0,1-.023.213,4.387,4.387,0,0,0,.115,2.613,5.025,5.025,0,0,1,.191,1.134c0,.014,0,.029,0,.043a1.111,1.111,0,0,0-.051.292c0,.121-.334.252-.876.26l-.093.005a11.567,11.567,0,0,1-1.346.025h-.06C72.007,198.928,72.169,198.56,72.341,198.172Z" transform="translate(-62.59 -176.884)" fill="#fff" stroke="#2f407c" stroke-width="0.5"/>
      <path id="Path_11344" data-name="Path 11344" d="M302.457,253.09a7.812,7.812,0,0,0-6.8-4.048h-.034a7.815,7.815,0,0,0-6.807,4.056c-3.208,6.1,2.565,12.171,5.666,15.43l.025.026a1.586,1.586,0,0,0,1.125.509h.015a1.586,1.586,0,0,0,1.125-.509l.025-.026c3.1-3.259,8.874-9.326,5.666-15.43Zm-6.819,13.437c-3.609-3.845-7.049-8.236-4.866-12.39a5.552,5.552,0,0,1,9.731,0C302.686,258.294,299.246,262.683,295.638,266.527Z" transform="translate(-258.88 -227.854)" fill="#fff" stroke="#2f407c" stroke-width="0.5"/>
    </g>
    <path id="Path_11345" data-name="Path 11345" d="M325.524,283.028a4.417,4.417,0,1,0,4.417,4.417A4.417,4.417,0,0,0,325.524,283.028Zm0,6.619a2.2,2.2,0,1,1,2.2-2.2A2.2,2.2,0,0,1,325.524,289.647Z" transform="translate(-288.761 -219.749)" fill="#fff" stroke="#2f407c" stroke-width="0.5"/>
  </g>
</svg>
