<svg xmlns="http://www.w3.org/2000/svg" width="44.783" height="36.393" viewBox="0 0 44.783 36.393">
  <g id="ASC-icon" transform="translate(0 -5.995)">
    <g id="Group_4156" data-name="Group 4156" transform="translate(0 13.699)">
      <path id="Path_11297" data-name="Path 11297" d="M62.4,22.5a.7.7,0,0,1-.664-.479l-.7-2.1a.7.7,0,1,1,1.327-.443l.7,2.1a.7.7,0,0,1-.664.921Z" transform="translate(-18.316 -17.605)" fill="#fff"/>
      <path id="Path_11298" data-name="Path 11298" d="M61.1,20.4H59.7a.7.7,0,1,1,0-1.4h1.4a.7.7,0,1,1,0,1.4Z" transform="translate(-17.716 -17.605)" fill="#fff"/>
      <path id="Path_11299" data-name="Path 11299" d="M57.7,23.2a.7.7,0,0,1-.625-1.013l1.4-2.8a.7.7,0,1,1,1.252.626l-1.4,2.8a.7.7,0,0,1-.627.387Z" transform="translate(-17.115 -17.605)" fill="#fff"/>
      <path id="Path_11300" data-name="Path 11300" d="M56.5,24.4H53.7a.7.7,0,0,1,0-1.4h2.8a.7.7,0,0,1,0,1.4Z" transform="translate(-15.914 -18.806)" fill="#fff"/>
      <path id="Path_11301" data-name="Path 11301" d="M53.7,26.5a.7.7,0,0,1-.7-.7V23.7a.7.7,0,1,1,1.4,0v2.1a.7.7,0,0,1-.7.7Z" transform="translate(-15.914 -18.806)" fill="#fff"/>
      <path id="Path_11302" data-name="Path 11302" d="M52.8,27.4H50.7a.7.7,0,1,1,0-1.4h2.1a.7.7,0,1,1,0,1.4Z" transform="translate(-15.013 -19.707)" fill="#fff"/>
      <path id="Path_11303" data-name="Path 11303" d="M50.7,29.5a.7.7,0,0,1-.7-.7V26.7a.7.7,0,0,1,1.4,0v2.1A.7.7,0,0,1,50.7,29.5Z" transform="translate(-15.013 -19.707)" fill="#fff"/>
      <path id="Path_11304" data-name="Path 11304" d="M47.7,31.8a.7.7,0,0,1-.389-1.282l2.1-1.4a.7.7,0,1,1,.776,1.164l-2.1,1.4a.7.7,0,0,1-.387.118Z" transform="translate(-14.112 -20.608)" fill="#fff"/>
      <path id="Path_11305" data-name="Path 11305" d="M47.4,32.4h-.7a.7.7,0,0,1,0-1.4h.7a.7.7,0,0,1,0,1.4Z" transform="translate(-13.812 -21.208)" fill="#fff"/>
      <path id="Path_11306" data-name="Path 11306" d="M46.7,30.9a.7.7,0,0,1-.7-.7V26.7a.7.7,0,0,1,1.4,0v3.5a.7.7,0,0,1-.7.7Z" transform="translate(-13.812 -19.707)" fill="#fff"/>
      <path id="Path_11307" data-name="Path 11307" d="M45.8,26.5A.7.7,0,0,1,45.3,26.3l-2.1-2.1a.7.7,0,1,1,.989-.989l2.1,2.1A.7.7,0,0,1,45.8,26.5Z" transform="translate(-12.911 -18.806)" fill="#fff"/>
      <path id="Path_11308" data-name="Path 11308" d="M43.166,24.4H41.921a.7.7,0,0,1,0-1.4h1.244a.7.7,0,0,1,0,1.4Z" transform="translate(-12.377 -18.806)" fill="#fff"/>
      <path id="Path_11309" data-name="Path 11309" d="M14.8,19.515a.725.725,0,0,1-.085-.005L5.615,18.4a.7.7,0,1,1,.169-1.389l9.1,1.111a.7.7,0,0,1-.084,1.394Z" transform="translate(-1.501 -17.005)" fill="#fff"/>
      <path id="Path_11310" data-name="Path 11310" d="M4.7,19.1a.7.7,0,0,1-.495-1.194l.7-.7a.7.7,0,1,1,.989.989l-.7.7A.7.7,0,0,1,4.7,19.1Z" transform="translate(-1.201 -17.005)" fill="#fff"/>
      <path id="Path_11311" data-name="Path 11311" d="M4.1,19.1a.7.7,0,0,1-.312-.074l-1.4-.7a.7.7,0,1,1,.626-1.252l1.4.7A.7.7,0,0,1,4.1,19.1Z" transform="translate(-0.6 -17.005)" fill="#fff"/>
      <path id="Path_11312" data-name="Path 11312" d="M2.7,21.2a.7.7,0,0,1-.7-.7V17.7a.7.7,0,1,1,1.4,0v2.8a.7.7,0,0,1-.7.7Z" transform="translate(-0.6 -17.005)" fill="#fff"/>
      <path id="Path_11313" data-name="Path 11313" d="M.7,25.2A.7.7,0,0,1,.074,24.19l1.4-2.8a.7.7,0,0,1,1.252.626l-1.4,2.8A.7.7,0,0,1,.7,25.2Z" transform="translate(0 -18.206)" fill="#fff"/>
      <path id="Path_11314" data-name="Path 11314" d="M.7,32.7A.7.7,0,0,1,0,32V25.7a.7.7,0,1,1,1.4,0V32a.7.7,0,0,1-.7.7Z" transform="translate(0 -19.407)" fill="#fff"/>
      <path id="Path_11315" data-name="Path 11315" d="M3.5,41.663a.7.7,0,0,1-.642-.419l-2.8-6.388a.7.7,0,1,1,1.282-.562l2.8,6.388a.7.7,0,0,1-.36.922.692.692,0,0,1-.28.059Z" transform="translate(0 -22.07)" fill="#fff"/>
      <path id="Path_11316" data-name="Path 11316" d="M12.4,47.2a.7.7,0,0,1-.239-.042l-7.7-2.8a.7.7,0,1,1,.478-1.315l7.7,2.8A.7.7,0,0,1,12.4,47.2Z" transform="translate(-1.201 -24.812)" fill="#fff"/>
      <path id="Path_11317" data-name="Path 11317" d="M15.7,48.1a.7.7,0,0,1-.495-1.194l.7-.7a.7.7,0,1,1,.989.989l-.7.7a.7.7,0,0,1-.495.2Z" transform="translate(-4.504 -25.712)" fill="#fff"/>
      <path id="Path_11318" data-name="Path 11318" d="M18.1,47.4H16.7a.7.7,0,1,1,0-1.4h1.4a.7.7,0,0,1,0,1.4Z" transform="translate(-4.804 -25.712)" fill="#fff"/>
      <path id="Path_11319" data-name="Path 11319" d="M20.8,50.9a.7.7,0,0,1-.6-.34l-2.1-3.5a.7.7,0,1,1,1.2-.72l2.1,3.5a.7.7,0,0,1-.6,1.06Z" transform="translate(-5.405 -25.712)" fill="#fff"/>
      <path id="Path_11320" data-name="Path 11320" d="M22.4,52.4h-.7a.7.7,0,1,1,0-1.4h.7a.7.7,0,1,1,0,1.4Z" transform="translate(-6.305 -27.214)" fill="#fff"/>
      <path id="Path_11321" data-name="Path 11321" d="M22.7,52.1a.7.7,0,0,1-.495-1.194l.7-.7a.7.7,0,1,1,.989.989l-.7.7a.7.7,0,0,1-.495.2Z" transform="translate(-6.606 -26.914)" fill="#fff"/>
      <path id="Path_11322" data-name="Path 11322" d="M25.1,51.4H23.7a.7.7,0,1,1,0-1.4h1.4a.7.7,0,1,1,0,1.4Z" transform="translate(-6.906 -26.913)" fill="#fff"/>
      <path id="Path_11323" data-name="Path 11323" d="M27.8,55.6a.7.7,0,0,1-.627-.387l-2.1-4.2a.7.7,0,0,1,1.252-.626l2.1,4.2A.7.7,0,0,1,27.8,55.6Z" transform="translate(-7.506 -26.913)" fill="#fff"/>
      <path id="Path_11324" data-name="Path 11324" d="M30.1,57.4H28.7a.7.7,0,1,1,0-1.4h1.4a.7.7,0,1,1,0,1.4Z" transform="translate(-8.407 -28.715)" fill="#fff"/>
      <path id="Path_11325" data-name="Path 11325" d="M30.7,53.8a.7.7,0,0,1-.314-1.326l2.8-1.4a.7.7,0,1,1,.626,1.252l-2.8,1.4A.7.7,0,0,1,30.7,53.8Z" transform="translate(-9.008 -27.214)" fill="#fff"/>
      <path id="Path_11326" data-name="Path 11326" d="M38.9,52.4H34.7a.7.7,0,1,1,0-1.4h4.2a.7.7,0,1,1,0,1.4Z" transform="translate(-10.209 -27.214)" fill="#fff"/>
      <path id="Path_11327" data-name="Path 11327" d="M30.7,56.5a.7.7,0,0,1-.7-.7V53.7a.7.7,0,0,1,1.4,0v2.1a.7.7,0,0,1-.7.7Z" transform="translate(-9.008 -27.814)" fill="#fff"/>
      <path id="Path_11328" data-name="Path 11328" d="M40.7,51.8a.7.7,0,0,1-.625-1.013l.7-1.4a.7.7,0,1,1,1.252.626l-.7,1.4a.7.7,0,0,1-.627.387Z" transform="translate(-12.01 -26.613)" fill="#fff"/>
      <path id="Path_11329" data-name="Path 11329" d="M46.6,50.4H41.7a.7.7,0,1,1,0-1.4h4.9a.7.7,0,1,1,0,1.4Z" transform="translate(-12.311 -26.613)" fill="#fff"/>
      <path id="Path_11330" data-name="Path 11330" d="M50.1,54.6a.7.7,0,0,1-.664-.478l-1.4-4.2a.7.7,0,0,1,1.327-.443l1.4,4.2a.7.7,0,0,1-.664.921Z" transform="translate(-14.413 -26.613)" fill="#fff"/>
      <path id="Path_11331" data-name="Path 11331" d="M53.5,56.4H50.7a.7.7,0,1,1,0-1.4h2.8a.7.7,0,1,1,0,1.4Z" transform="translate(-15.013 -28.415)" fill="#fff"/>
      <path id="Path_11332" data-name="Path 11332" d="M53.8,54a.7.7,0,0,1-.655-.454l-2.1-5.6a.7.7,0,1,1,1.311-.492l2.1,5.6A.7.7,0,0,1,53.8,54Z" transform="translate(-15.313 -26.012)" fill="#fff"/>
      <path id="Path_11333" data-name="Path 11333" d="M51.7,44.9a.7.7,0,0,1-.495-1.194l3.5-3.5a.7.7,0,1,1,.989.989l-3.5,3.5a.7.7,0,0,1-.495.2Z" transform="translate(-15.313 -23.911)" fill="#fff"/>
      <path id="Path_11334" data-name="Path 11334" d="M51.7,47.8a.7.7,0,0,1-.7-.7V45.7a.7.7,0,0,1,1.4,0v1.4a.7.7,0,0,1-.7.7Z" transform="translate(-15.313 -25.412)" fill="#fff"/>
      <path id="Path_11335" data-name="Path 11335" d="M56.7,38.7a.743.743,0,0,1-.078,0A.7.7,0,0,1,56,37.925l.7-6.3a.7.7,0,0,1,1.391.154l-.7,6.3A.7.7,0,0,1,56.7,38.7Z" transform="translate(-16.815 -21.208)" fill="#fff"/>
      <path id="Path_11336" data-name="Path 11336" d="M57.7,30.1a.7.7,0,0,1-.169-1.379l2.8-.7a.7.7,0,0,1,.339,1.358l-2.8.7a.694.694,0,0,1-.17.021Z" transform="translate(-17.115 -20.308)" fill="#fff"/>
      <path id="Path_11337" data-name="Path 11337" d="M57.7,31.8a.7.7,0,0,1-.7-.7V29.7a.7.7,0,1,1,1.4,0v1.4a.7.7,0,0,1-.7.7Z" transform="translate(-17.115 -20.608)" fill="#fff"/>
      <path id="Path_11338" data-name="Path 11338" d="M61.7,28.5a.7.7,0,0,1-.7-.7V25.7a.7.7,0,1,1,1.4,0v2.1A.7.7,0,0,1,61.7,28.5Z" transform="translate(-18.316 -19.407)" fill="#fff"/>
      <path id="Path_11339" data-name="Path 11339" d="M61.7,25.5a.7.7,0,0,1-.664-.921l.7-2.1a.7.7,0,1,1,1.327.443l-.7,2.1a.7.7,0,0,1-.664.479Z" transform="translate(-18.316 -18.506)" fill="#fff"/>
    </g>
    <g id="Group_4157" data-name="Group 4157" transform="translate(12.595 5.995)">
      <path id="Path_11340" data-name="Path 11340" d="M27.1,30.486a.7.7,0,0,1-.448-.162C26.3,30.029,18,23.025,18,15.092a9.1,9.1,0,0,1,18.193,0c0,7.933-8.3,14.938-8.648,15.232A.7.7,0,0,1,27.1,30.486Zm0-23.091a7.706,7.706,0,0,0-7.7,7.7c0,6.279,5.99,12.2,7.7,13.76,1.706-1.561,7.7-7.49,7.7-13.76a7.706,7.706,0,0,0-7.7-7.7Z" transform="translate(-18 -5.995)" fill="#fff"/>
      <path id="Path_11341" data-name="Path 11341" d="M28.9,21.791a4.9,4.9,0,1,1,4.9-4.9,4.9,4.9,0,0,1-4.9,4.9Zm0-8.4a3.5,3.5,0,1,0,3.5,3.5A3.5,3.5,0,0,0,28.9,13.395Z" transform="translate(-19.802 -7.797)" fill="#fff"/>
    </g>
  </g>
</svg>
