<svg xmlns="http://www.w3.org/2000/svg" width="534.408" height="359.182" viewBox="0 0 534.408 359.182">
  <g id="Group_8426" data-name="Group 8426" transform="translate(-169.253 -306.024)">
    <g id="Notifications" transform="translate(483.463 454.45)">
      <g id="alarm-bell" transform="translate(0 0.152)">
        <path id="Path_39" data-name="Path 39" d="M10,21.75a4.243,4.243,0,0,0,8.132,0" transform="translate(4.214 20.719)" fill="none" stroke="#fff" stroke-linecap="round" stroke-linejoin="round" stroke-width="2"/>
        <path id="Path_40" data-name="Path 40" d="M12,5.3V.75" transform="translate(6.275 -0.75)" fill="none" stroke="#fff" stroke-linecap="round" stroke-linejoin="round" stroke-width="2"/>
        <path id="Path_41" data-name="Path 41" d="M21.275,3A15.2,15.2,0,0,1,36.5,18.168c0,14.249,3.046,16.684,3.046,16.684H3s3.046-3.875,3.046-16.684A15.2,15.2,0,0,1,21.275,3Z" transform="translate(-3 1.55)" fill="none" stroke="#fff" stroke-linecap="round" stroke-linejoin="round" stroke-width="2"/>
      </g>
      <path id="Exclusion_1" data-name="Exclusion 1" d="M-470.964-317.052a12.939,12.939,0,0,1-9.191-3.792A12.839,12.839,0,0,1-483.962-330a12.835,12.835,0,0,1,3.808-9.157,12.94,12.94,0,0,1,9.191-3.793,12.941,12.941,0,0,1,9.192,3.793A12.835,12.835,0,0,1-457.964-330a12.839,12.839,0,0,1-3.808,9.158A12.94,12.94,0,0,1-470.964-317.052Zm-1.364-16.838h0v1.6h1.059v5.469h1.8v-7.069Z" transform="translate(508.289 342.45)" fill="#fff"/>
    </g>
    <g id="Group_8424" data-name="Group 8424" transform="translate(283.233 423.022)">
      <g id="Group_103" data-name="Group 103">
        <g id="Group_104" data-name="Group 104">
          <g id="Group_103-2" data-name="Group 103">
            <path id="Path_192" data-name="Path 192" d="M1049.76,265.57a23.182,23.182,0,0,1,28.945,0l8.566-8.566a35.251,35.251,0,0,0-46.077,0Z" transform="translate(-1029.012 -248.433)" fill="#fff"/>
            <path id="Path_193" data-name="Path 193" d="M1097.72,262.72l-8.565,8.566a23.142,23.142,0,0,1,4.921,11.85h12.118A35.168,35.168,0,0,0,1097.72,262.72Z" transform="translate(-1035.753 -250.441)" fill="#fff"/>
            <path id="Path_194" data-name="Path 194" d="M1027.02,283.136h12.118a23.143,23.143,0,0,1,4.92-11.85l-8.566-8.566A35.169,35.169,0,0,0,1027.02,283.136Z" transform="translate(-1027.02 -250.441)" fill="#fff"/>
          </g>
          <path id="Path_195" data-name="Path 195" d="M1071.569,288.128v0c-.1-1.429-.716-6.305-4.27-13.717-3.554,7.412-4.165,12.288-4.27,13.717v0c-.021.285-.021.436-.021.436a4.292,4.292,0,0,0,8.584,0S1071.59,288.414,1071.569,288.128Z" transform="translate(-1032.078 -252.083)" fill="#fff" stroke="#fff" stroke-width="1"/>
        </g>
        <g id="Group_105" data-name="Group 105" transform="translate(14.734 47.707)">
          <rect id="Rectangle_1544" data-name="Rectangle 1544" width="8.574" height="15.149" transform="translate(32.431)" fill="#fff"/>
          <rect id="Rectangle_1545" data-name="Rectangle 1545" width="8.574" height="11.493" transform="translate(16.216 3.656)" fill="#fff"/>
          <rect id="Rectangle_1546" data-name="Rectangle 1546" width="8.575" height="5.746" transform="translate(0 9.403)" fill="#fff"/>
        </g>
      </g>
    </g>
    <g id="Group_8425" data-name="Group 8425" transform="matrix(0.259, 0.966, -0.966, 0.259, 616.977, 249.047)">
      <g id="Group_112" data-name="Group 112" transform="translate(0 222.51)">
        <path id="Path_224" data-name="Path 224" d="M240.373,135.506V106.439l-34.667-8.6a89.63,89.63,0,0,0-10.41-24.52l18.346-27.279L193.095,25.478,164.327,42.8A89.763,89.763,0,0,0,141.2,33.151L134.72,0H105.648L97.535,32.676A89.642,89.642,0,0,0,72.16,43l-27.7-18.633L23.9,44.922,41.263,73.74A89.831,89.831,0,0,0,30.872,98.829L0,104.867v29.067l30.787,7.644a89.609,89.609,0,0,0,10.069,24.751l-18.84,28.015L42.566,214.9l29.018-17.478a89.51,89.51,0,0,0,26.189,10.728l6.311,32.229h29.061l8.141-32.783a89.69,89.69,0,0,0,23.9-10.14L192.763,216l20.556-20.552L195.87,166.489a89.485,89.485,0,0,0,10-24.233ZM119.589,181.068a59.5,59.5,0,1,1,59.5-59.511A59.505,59.505,0,0,1,119.589,181.068Z" transform="translate(0 0)" fill="none" stroke="#fff" stroke-width="1"/>
      </g>
      <g id="Group_113" data-name="Group 113" transform="translate(108.005 85.563)">
        <path id="Path_225" data-name="Path 225" d="M165.443,58.327l-8.1-18.825-24.852,4.086a63.2,63.2,0,0,0-13.574-12.982L123.2,7.827,104.165.237l-13.8,19.237a63.268,63.268,0,0,0-17.667.192L59.256,0,40.427,8.1l3.85,23.423A63.2,63.2,0,0,0,30.719,45.286L7.588,40.936,0,59.974,19.272,73.8a63.263,63.263,0,0,0,.262,19.144L1.222,105.461l8.1,18.825,22.071-3.627a63.11,63.11,0,0,0,13.418,13.224l-4.4,23.395,19.035,7.587,13.924-19.407a63.164,63.164,0,0,0,19.953-.348l13.066,19.114,18.822-8.1-3.86-23.5A63.191,63.191,0,0,0,134.006,119.4l23.032,4.331,7.588-19.039L145.254,90.8a63.059,63.059,0,0,0-.277-18.481ZM99.909,121.492a41.955,41.955,0,1,1,21.958-55.124A41.954,41.954,0,0,1,99.909,121.492Z" transform="translate(0 0)" fill="none" stroke="#fff" stroke-width="1"/>
      </g>
      <g id="Group_114" data-name="Group 114" transform="translate(225.333 224.755)">
        <path id="Path_226" data-name="Path 226" d="M114.047,40.207l-5.581-12.979L91.335,30.047A43.528,43.528,0,0,0,81.977,21.1l2.952-15.7L71.806.162,62.29,13.424a43.677,43.677,0,0,0-12.179.131L40.849,0,27.869,5.584l2.654,16.146a43.51,43.51,0,0,0-9.346,9.487l-15.947-3L0,41.342l13.284,9.533a43.7,43.7,0,0,0,.181,13.2L.842,72.7,6.423,85.675l15.217-2.5a43.53,43.53,0,0,0,9.249,9.116l-3.03,16.128,13.121,5.227,9.6-13.378a43.558,43.558,0,0,0,13.753-.238L73.341,113.2l12.976-5.581-2.661-16.2a43.538,43.538,0,0,0,8.721-9.119l15.877,2.985,5.231-13.123L100.13,62.588a43.432,43.432,0,0,0-.192-12.74ZM68.871,83.748a28.921,28.921,0,1,1,15.138-38A28.92,28.92,0,0,1,68.871,83.748Z" transform="translate(0 0)" fill="none" stroke="#fff" stroke-width="1"/>
      </g>
      <g id="Group_115" data-name="Group 115" transform="translate(217.93 0)">
        <path id="Path_227" data-name="Path 227" d="M114.047,40.207l-5.583-12.979L91.334,30.047a43.564,43.564,0,0,0-9.357-8.95l2.95-15.7L71.8.163,62.288,13.424a43.666,43.666,0,0,0-12.177.131L40.848,0,27.867,5.585l2.655,16.146a43.444,43.444,0,0,0-9.345,9.487l-15.949-3L0,41.342l13.284,9.533a43.594,43.594,0,0,0,.181,13.2L.842,72.7,6.423,85.675l15.215-2.5a43.555,43.555,0,0,0,9.25,9.116l-3.029,16.128,13.119,5.228,9.6-13.379a43.533,43.533,0,0,0,13.753-.238l9.006,13.175,12.976-5.581-2.661-16.2a43.49,43.49,0,0,0,8.72-9.119l15.879,2.985,5.231-13.123L100.13,62.589a43.478,43.478,0,0,0-.192-12.741ZM68.871,83.748a28.921,28.921,0,1,1,15.138-38A28.92,28.92,0,0,1,68.871,83.748Z" transform="translate(0 0)" fill="none" stroke="#fff" stroke-width="1"/>
      </g>
    </g>
  </g>
</svg>
