<svg xmlns="http://www.w3.org/2000/svg" width="664.878" height="243.912" viewBox="0 0 664.878 243.912">
  <g id="Group_117" data-name="Group 117" transform="translate(0.5 0.621)">
    <g id="Group_116" data-name="Group 116" transform="translate(0 0)">
      <g id="Group_36" data-name="Group 36" transform="translate(0 0)">
        <g id="Group_36-2" data-name="Group 36">
          <g id="Group_99" data-name="Group 99">
            <g id="Group_98" data-name="Group 98">
              <g id="Group_97" data-name="Group 97">
                <g id="Group_44" data-name="Group 44" transform="translate(441.819 24.84)">
                  <g id="Group_43" data-name="Group 43">
                    <path id="Path_49" data-name="Path 49" d="M455.005,66.972q-34.566,4.1-69.249,6.655a4.686,4.686,0,0,0-4.474,4.389v44.127a4.134,4.134,0,0,0,4.476,3.932q34.676-1.065,69.248-2.776a4.707,4.707,0,0,0,4.458-4.63V70.844A3.851,3.851,0,0,0,455.005,66.972Z" transform="translate(-381.282 -66.939)" fill="none" stroke="#fff" stroke-miterlimit="10" stroke-width="1"/>
                    <g id="Group_42" data-name="Group 42" transform="translate(13.111 12.753)" opacity="0.32">
                      <g id="Group_41" data-name="Group 41">
                        <g id="Group_36-3" data-name="Group 36" transform="translate(0 22.952)">
                          <path id="Path_50" data-name="Path 50" d="M394.032,99.472q-1.634.114-3.269.225V90.725l3.269-.249Z" transform="translate(-390.763 -90.476)" fill="none" stroke="#fff" stroke-miterlimit="10" stroke-width="1"/>
                        </g>
                        <g id="Group_37" data-name="Group 37" transform="translate(10.699 9.516)">
                          <path id="Path_51" data-name="Path 51" d="M401.766,103.446q-1.632.121-3.266.238V81.925q1.633-.152,3.266-.306Z" transform="translate(-398.5 -81.619)" fill="none" stroke="#fff" stroke-miterlimit="10" stroke-width="1"/>
                        </g>
                        <g id="Group_38" data-name="Group 38" transform="translate(21.393 2.104)">
                          <path id="Path_52" data-name="Path 52" d="M409.5,105.323q-1.63.127-3.265.252v-28.5q1.633-.171,3.265-.346Z" transform="translate(-406.233 -76.733)" fill="none" stroke="#fff" stroke-miterlimit="10" stroke-width="1"/>
                        </g>
                        <g id="Group_39" data-name="Group 39" transform="translate(32.082 4.398)">
                          <path id="Path_53" data-name="Path 53" d="M417.227,103.849l-3.264.265V78.6l3.264-.357Z" transform="translate(-413.963 -78.245)" fill="none" stroke="#fff" stroke-miterlimit="10" stroke-width="1"/>
                        </g>
                        <g id="Group_40" data-name="Group 40" transform="translate(42.765)">
                          <path id="Path_54" data-name="Path 54" d="M424.95,104.609q-1.63.141-3.262.281V75.734q1.632-.191,3.262-.388Z" transform="translate(-421.688 -75.346)" fill="none" stroke="#fff" stroke-miterlimit="10" stroke-width="1"/>
                        </g>
                      </g>
                      <path id="Path_55" data-name="Path 55" d="M390.763,101.6q24.672-1.238,49.288-2.907v-2.74Q415.437,97.708,390.763,99Z" transform="translate(-390.763 -64.689)" fill="none" stroke="#fff" stroke-miterlimit="10" stroke-width="1"/>
                    </g>
                  </g>
                </g>
                <path id="Path_56" data-name="Path 56" d="M453.408,108.038q-32.969,1.372-66.048,2.247a6.106,6.106,0,0,0-6.078,5.891v44.967A6.064,6.064,0,0,0,387.358,167q33.073.68,66.05,1.748a5.894,5.894,0,0,0,6.057-6.015V114A5.83,5.83,0,0,0,453.408,108.038Zm-23.242,13.7q2.375-.048,4.751-.1c.466-.009.848.554.848,1.253s-.382,1.276-.848,1.283l-4.751.085c-.466.008-.848-.554-.848-1.247S429.7,121.747,430.166,121.738Zm0,8.01q5.414-.068,10.824-.143c.466,0,.848.566.848,1.27s-.382,1.282-.848,1.285q-5.41.057-10.824.111c-.466,0-.848-.56-.848-1.253S429.7,129.754,430.166,129.748Zm0,8.008q8.627-.036,17.248-.077c.466,0,.846.578.846,1.286s-.38,1.288-.846,1.288l-17.248.027c-.466,0-.848-.569-.848-1.261S429.7,137.758,430.166,137.756Zm-7.455-1.981q-8.44.983-16.886,1.931,4.323-6.911,8.646-13.938C414.472,123.76,421.908,128.546,422.711,135.775Zm-16.929,20.8-.1,0a18.806,18.806,0,0,1-17.7-18.448,17.267,17.267,0,0,1,17.7-17.21,17.574,17.574,0,0,1,8.146,2.174q-4.883,7.987-9.768,15.819,9.567-1.072,19.125-2.188a18.434,18.434,0,0,1,.189,2.658C423.379,149.4,415.505,157.062,405.782,156.576Zm36.792-.068q-6.2-.109-12.408-.209c-.466-.009-.848-.583-.848-1.276s.382-1.255.848-1.248q6.206.084,12.408.174c.466.006.849.59.848,1.294S443.04,156.517,442.575,156.508Zm7.448-8.067q-9.923-.08-19.856-.152c-.466,0-.848-.575-.848-1.268s.382-1.258.848-1.255q9.934.043,19.856.093c.466,0,.846.587.846,1.3S450.489,148.445,450.023,148.44Z" transform="translate(60.537 -20.854)" fill="none" stroke="#fff" stroke-miterlimit="10" stroke-width="1"/>
                <g id="Group_52" data-name="Group 52" transform="translate(0 125.035)">
                  <path id="Path_57" data-name="Path 57" d="M68.1,249.081q62.951-13.319,126.626-21.428c3.265-.426,7.018-5.1,7.018-8.764v-78.2c0-4.709-2.68-7.709-6.876-7.7q-63.583.234-126.555.631c-3.038,0-6.526,4.961-6.526,9.267V241.5C61.786,246.961,64.245,249.906,68.1,249.081Z" transform="translate(-61.786 -132.987)" fill="none" stroke="#fff" stroke-miterlimit="10" stroke-width="1"/>
                  <g id="Group_45" data-name="Group 45" transform="translate(22.375 22)">
                    <path id="Path_58" data-name="Path 58" d="M91.777,149.611c-7.632.045-13.811,7.7-13.811,17.106s6.179,16.549,13.811,15.994,13.829-8.187,13.829-17.08S99.409,149.564,91.777,149.611Zm0,29.718c-6.074.4-10.99-5.29-10.99-12.728s4.917-13.532,10.99-13.609,11,5.628,11,12.744S97.849,178.93,91.777,179.329Z" transform="translate(-77.966 -146.392)" fill="none" stroke="#fff" stroke-miterlimit="10" stroke-width="1"/>
                    <path id="Path_59" data-name="Path 59" d="M117.763,148.477c-7.657.02-13.855,7.212-13.855,16.061s6.2,15.619,13.855,15.15,13.871-7.629,13.87-16.032S125.418,148.454,117.763,148.477Zm0,28.022c-6.093.335-11.026-5.053-11.026-12.056s4.933-12.726,11.026-12.778S128.8,157.019,128.8,163.74,123.854,176.165,117.763,176.5Z" transform="translate(-68.034 -146.978)" fill="none" stroke="#fff" stroke-miterlimit="10" stroke-width="1"/>
                    <path id="Path_60" data-name="Path 60" d="M143.825,147.489c-7.678-.006-13.895,6.773-13.895,15.137s6.216,14.812,13.895,14.433,13.907-7.124,13.907-15.1S151.5,147.5,143.825,147.489Zm0,26.549c-6.109.27-11.057-4.864-11.057-11.487s4.948-12.016,11.057-12.04a11.261,11.261,0,0,1,11.064,11.507A11.923,11.923,0,0,1,143.825,174.038Z" transform="translate(-58.071 -147.489)" fill="none" stroke="#fff" stroke-miterlimit="10" stroke-width="1"/>
                  </g>
                  <g id="Group_47" data-name="Group 47" transform="translate(22.375 11.559)" opacity="0.69">
                    <g id="Group_46" data-name="Group 46">
                      <path id="Path_61" data-name="Path 61" d="M95.544,180.518q-8.183,1.019-16.356,2.1c-.671.093-1.221-.505-1.221-1.33h0a1.63,1.63,0,0,1,1.221-1.663q8.173-1.035,16.356-2.015a1.171,1.171,0,0,1,1.224,1.3h0A1.59,1.59,0,0,1,95.544,180.518Z" transform="translate(-77.966 -121.481)" fill="none" stroke="#fff" stroke-miterlimit="10" stroke-width="1"/>
                      <path id="Path_62" data-name="Path 62" d="M95.544,143.517q-8.183.248-16.356.508a1.325,1.325,0,0,1-1.221-1.453h0a1.442,1.442,0,0,1,1.221-1.54q8.173-.218,16.356-.425a1.307,1.307,0,0,1,1.224,1.414h0A1.417,1.417,0,0,1,95.544,143.517Z" transform="translate(-77.966 -140.607)" fill="none" stroke="#fff" stroke-miterlimit="10" stroke-width="1"/>
                      <path id="Path_63" data-name="Path 63" d="M95.544,192.221q-8.183,1.265-16.356,2.6c-.671.115-1.221-.466-1.221-1.291h0a1.7,1.7,0,0,1,1.221-1.7q8.173-1.293,16.356-2.517c.673-.1,1.224.463,1.224,1.262h0A1.649,1.649,0,0,1,95.544,192.221Z" transform="translate(-77.966 -115.432)" fill="none" stroke="#fff" stroke-miterlimit="10" stroke-width="1"/>
                      <path id="Path_64" data-name="Path 64" d="M102.134,186.127q-11.485,1.5-22.947,3.116c-.671.1-1.221-.485-1.221-1.309h0a1.665,1.665,0,0,1,1.221-1.684q11.463-1.559,22.947-3a1.145,1.145,0,0,1,1.224,1.267h0A1.605,1.605,0,0,1,102.134,186.127Z" transform="translate(-77.966 -118.566)" fill="none" stroke="#fff" stroke-miterlimit="10" stroke-width="1"/>
                    </g>
                  </g>
                  <g id="Group_49" data-name="Group 49" transform="translate(56.869 12.224)" opacity="0.69">
                    <g id="Group_48" data-name="Group 48">
                      <path id="Path_65" data-name="Path 65" d="M120.542,178.778q-8.208.917-16.406,1.892a1.149,1.149,0,0,1-1.225-1.261h0a1.543,1.543,0,0,1,1.225-1.563q8.2-.94,16.406-1.82a1.147,1.147,0,0,1,1.227,1.235h0A1.514,1.514,0,0,1,120.542,178.778Z" transform="translate(-102.91 -122.962)" fill="none" stroke="#fff" stroke-miterlimit="10" stroke-width="1"/>
                      <path id="Path_66" data-name="Path 66" d="M120.542,143.8q-8.208.237-16.406.488a1.276,1.276,0,0,1-1.225-1.37h0a1.385,1.385,0,0,1,1.225-1.455q8.2-.214,16.406-.414a1.262,1.262,0,0,1,1.227,1.335h0A1.365,1.365,0,0,1,120.542,143.8Z" transform="translate(-102.91 -141.045)" fill="none" stroke="#fff" stroke-miterlimit="10" stroke-width="1"/>
                      <path id="Path_67" data-name="Path 67" d="M120.542,189.841q-8.208,1.133-16.406,2.338a1.115,1.115,0,0,1-1.225-1.227h0a1.6,1.6,0,0,1,1.225-1.6q8.2-1.167,16.406-2.265a1.113,1.113,0,0,1,1.227,1.2h0A1.563,1.563,0,0,1,120.542,189.841Z" transform="translate(-102.91 -117.244)" fill="none" stroke="#fff" stroke-miterlimit="10" stroke-width="1"/>
                      <path id="Path_68" data-name="Path 68" d="M127.152,184.109q-11.519,1.336-23.016,2.8a1.132,1.132,0,0,1-1.225-1.244h0a1.572,1.572,0,0,1,1.225-1.581q11.5-1.406,23.016-2.694a1.126,1.126,0,0,1,1.228,1.208h0A1.523,1.523,0,0,1,127.152,184.109Z" transform="translate(-102.91 -120.192)" fill="none" stroke="#fff" stroke-miterlimit="10" stroke-width="1"/>
                    </g>
                  </g>
                  <g id="Group_51" data-name="Group 51" transform="translate(91.465 12.841)" opacity="0.69">
                    <g id="Group_50" data-name="Group 50">
                      <path id="Path_69" data-name="Path 69" d="M145.608,177.282q-8.231.81-16.451,1.679a1.132,1.132,0,0,1-1.229-1.2h0a1.475,1.475,0,0,1,1.229-1.473q8.22-.837,16.451-1.616a1.131,1.131,0,0,1,1.231,1.182h0A1.444,1.444,0,0,1,145.608,177.282Z" transform="translate(-127.928 -124.281)" fill="none" stroke="#fff" stroke-miterlimit="10" stroke-width="1"/>
                      <path id="Path_70" data-name="Path 70" d="M145.608,144.066q-8.231.221-16.451.457a1.238,1.238,0,0,1-1.229-1.3h0a1.341,1.341,0,0,1,1.229-1.379q8.22-.2,16.451-.394a1.231,1.231,0,0,1,1.231,1.27h0A1.325,1.325,0,0,1,145.608,144.066Z" transform="translate(-127.928 -141.452)" fill="none" stroke="#fff" stroke-miterlimit="10" stroke-width="1"/>
                      <path id="Path_71" data-name="Path 71" d="M145.608,187.788q-8.231.994-16.451,2.065a1.1,1.1,0,0,1-1.229-1.173h0a1.521,1.521,0,0,1,1.229-1.5q8.22-1.035,16.451-2a1.1,1.1,0,0,1,1.231,1.153h0A1.487,1.487,0,0,1,145.608,187.788Z" transform="translate(-127.928 -118.85)" fill="none" stroke="#fff" stroke-miterlimit="10" stroke-width="1"/>
                      <path id="Path_72" data-name="Path 72" d="M152.236,182.384q-11.55,1.165-23.079,2.459a1.117,1.117,0,0,1-1.229-1.188h0a1.5,1.5,0,0,1,1.229-1.488q11.529-1.247,23.079-2.371a1.112,1.112,0,0,1,1.231,1.158h0A1.456,1.456,0,0,1,152.236,182.384Z" transform="translate(-127.928 -121.631)" fill="none" stroke="#fff" stroke-miterlimit="10" stroke-width="1"/>
                    </g>
                  </g>
                </g>
                <g id="Group_60" data-name="Group 60" transform="translate(0 1.336)">
                  <path id="Path_73" data-name="Path 73" d="M201.743,81.855v78.194c0,3.662-3.746,7.863-7.022,7.841q-63.621-.371-126.627-.965a5.215,5.215,0,0,1-.9-.074c-3.334-.523-5.4-3.9-5.4-8.9V59.336c0-4.313,3.492-8.479,6.52-7.822Q131.228,65.022,194.868,73.25a7.474,7.474,0,0,1,6.123,4.639A10.048,10.048,0,0,1,201.743,81.855Z" transform="translate(-61.786 -51.446)" fill="none" stroke="#fff" stroke-miterlimit="10" stroke-width="1"/>
                  <g id="Group_59" data-name="Group 59" transform="translate(12.429 19.69)" opacity="0.8">
                    <g id="Group_54" data-name="Group 54" transform="translate(11.93)" opacity="0.69">
                      <g id="Group_53" data-name="Group 53">
                        <path id="Path_74" data-name="Path 74" d="M95.838,104.2q-7.652-.544-15.294-1.117a1.415,1.415,0,0,1-1.142-1.49h0a1.2,1.2,0,0,1,1.142-1.329q7.642.61,15.294,1.189a1.388,1.388,0,0,1,1.144,1.449h0A1.184,1.184,0,0,1,95.838,104.2Z" transform="translate(-79.401 -45.898)" fill="none" stroke="#fff" stroke-miterlimit="10" stroke-width="1"/>
                        <path id="Path_75" data-name="Path 75" d="M95.838,69.771q-7.652-1.224-15.294-2.514a1.588,1.588,0,0,1-1.142-1.6h0c0-.777.514-1.326,1.142-1.221q7.642,1.327,15.294,2.586a1.55,1.55,0,0,1,1.144,1.55h0C96.981,69.329,96.466,69.866,95.838,69.771Z" transform="translate(-79.401 -64.426)" fill="none" stroke="#fff" stroke-miterlimit="10" stroke-width="1"/>
                        <path id="Path_76" data-name="Path 76" d="M95.838,115.086q-7.652-.328-15.294-.674a1.365,1.365,0,0,1-1.142-1.456h0a1.237,1.237,0,0,1,1.142-1.362q7.642.385,15.294.746a1.344,1.344,0,0,1,1.144,1.418h0A1.222,1.222,0,0,1,95.838,115.086Z" transform="translate(-79.401 -40.039)" fill="none" stroke="#fff" stroke-miterlimit="10" stroke-width="1"/>
                        <path id="Path_77" data-name="Path 77" d="M102,110.381q-10.739-.662-21.456-1.376a1.391,1.391,0,0,1-1.142-1.473h0a1.216,1.216,0,0,1,1.142-1.346q10.718.765,21.456,1.476a1.353,1.353,0,0,1,1.144,1.417h0A1.2,1.2,0,0,1,102,110.381Z" transform="translate(-79.401 -42.836)" fill="none" stroke="#fff" stroke-miterlimit="10" stroke-width="1"/>
                      </g>
                    </g>
                    <g id="Group_56" data-name="Group 56" transform="translate(44.181 6.735)" opacity="0.69">
                      <g id="Group_55" data-name="Group 55">
                        <path id="Path_78" data-name="Path 78" d="M119.207,73.751q-7.673-1.072-15.337-2.206a1.494,1.494,0,0,1-1.146-1.5h0a1.058,1.058,0,0,1,1.146-1.17q7.663,1.167,15.337,2.269a1.462,1.462,0,0,1,1.148,1.458h0A1.058,1.058,0,0,1,119.207,73.751Z" transform="translate(-102.723 -68.865)" fill="none" stroke="#fff" stroke-miterlimit="10" stroke-width="1"/>
                        <path id="Path_79" data-name="Path 79" d="M119.207,116.786q-7.673-.275-15.337-.566a1.306,1.306,0,0,1-1.146-1.374h0a1.2,1.2,0,0,1,1.146-1.3q7.663.323,15.337.63a1.288,1.288,0,0,1,1.148,1.34h0A1.194,1.194,0,0,1,119.207,116.786Z" transform="translate(-102.723 -45.763)" fill="none" stroke="#fff" stroke-miterlimit="10" stroke-width="1"/>
                        <path id="Path_80" data-name="Path 80" d="M125.387,112.281q-10.77-.569-21.517-1.185a1.325,1.325,0,0,1-1.146-1.388h0a1.186,1.186,0,0,1,1.146-1.282q10.749.662,21.517,1.274a1.3,1.3,0,0,1,1.148,1.34h0A1.171,1.171,0,0,1,125.387,112.281Z" transform="translate(-102.723 -48.412)" fill="none" stroke="#fff" stroke-miterlimit="10" stroke-width="1"/>
                      </g>
                    </g>
                    <g id="Group_58" data-name="Group 58" transform="translate(76.523 12.734)" opacity="0.69">
                      <g id="Group_57" data-name="Group 57">
                        <path id="Path_81" data-name="Path 81" d="M142.636,77.273q-7.691-.922-15.376-1.907a1.413,1.413,0,0,1-1.149-1.411h0a1.051,1.051,0,0,1,1.149-1.127q7.683,1.015,15.376,1.963a1.386,1.386,0,0,1,1.151,1.373h0A1.051,1.051,0,0,1,142.636,77.273Z" transform="translate(-126.111 -72.82)" fill="none" stroke="#fff" stroke-miterlimit="10" stroke-width="1"/>
                        <path id="Path_82" data-name="Path 82" d="M142.636,118.3q-7.691-.225-15.376-.466a1.258,1.258,0,0,1-1.149-1.3h0a1.175,1.175,0,0,1,1.149-1.238q7.683.268,15.376.522a1.241,1.241,0,0,1,1.151,1.27h0A1.167,1.167,0,0,1,142.636,118.3Z" transform="translate(-126.111 -50.858)" fill="none" stroke="#fff" stroke-miterlimit="10" stroke-width="1"/>
                        <path id="Path_83" data-name="Path 83" d="M148.831,113.974q-10.795-.482-21.571-1.007a1.274,1.274,0,0,1-1.149-1.314h0a1.161,1.161,0,0,1,1.149-1.224q10.776.567,21.571,1.086a1.247,1.247,0,0,1,1.151,1.268h0A1.15,1.15,0,0,1,148.831,113.974Z" transform="translate(-126.111 -53.376)" fill="none" stroke="#fff" stroke-miterlimit="10" stroke-width="1"/>
                      </g>
                    </g>
                    <path id="Path_84" data-name="Path 84" d="M70.774,95.051c0,.1,12.071,8.676,21.49-3.617,9.419-12.23,17.381-15.734,29.953.6,12.573,16.159,23.348,12.98,28.849,2.486,5.5-10.76,25.582-23.687,32.573-6.626v32.35q-56.678-2.792-112.865-7.121Z" transform="translate(-70.774 -56.57)" fill="none" stroke="#fff" stroke-miterlimit="10" stroke-width="1"/>
                    <path id="Path_85" data-name="Path 85" d="M70.774,104.558c0,.155,15.2,10.187,27.209-4.765s20.7-34.084,32.673-12.612c11.971,21.25,23.254,23.741,31.676,10.743,8.419-12.913,20.845,1.141,20.845,1.032v22.318q-56.446-2.785-112.4-7.1Z" transform="translate(-70.774 -57.626)" fill="none" stroke="#fff" stroke-miterlimit="10" stroke-width="1"/>
                  </g>
                </g>
                <g id="Group_63" data-name="Group 63" transform="translate(526.527)" opacity="0.8">
                  <path id="Path_86" data-name="Path 86" d="M579.889,167.516q-68.248.537-137.351.851h0V74.1q69.034-8.677,137.351-23.532h0V167.516Z" transform="translate(-442.538 -50.565)" fill="none" stroke="#fff" stroke-miterlimit="10" stroke-width="1"/>
                  <path id="Path_87" data-name="Path 87" d="M450.784,121.8c0-.381,18.875,25.7,36.5-5.675,12.713-23.092,21.989-27.57,32.3-26.552,11.481.89,21.158,13.023,31.156-6.887,7.8-15.781,14.4-6.373,14.4-6.29" transform="translate(-439.381 -38.686)" fill="none" stroke="#fff" stroke-miterlimit="10" stroke-width="1"/>
                  <g id="Group_61" data-name="Group 61" transform="translate(12.307 41.417)" opacity="0.43">
                    <path id="Path_88" data-name="Path 88" d="M467.5,80.274q-7.468.835-14.94,1.614a1.011,1.011,0,0,1-1.117-1.051h0a1.322,1.322,0,0,1,1.117-1.3q7.473-.8,14.94-1.663a1.01,1.01,0,0,1,1.116,1.066h0A1.349,1.349,0,0,1,467.5,80.274Z" transform="translate(-451.438 -77.867)" fill="none" stroke="#fff" stroke-miterlimit="10" stroke-width="1"/>
                    <path id="Path_89" data-name="Path 89" d="M467.5,94.662q-7.468.6-14.94,1.167a1.045,1.045,0,0,1-1.117-1.083h0a1.274,1.274,0,0,1,1.117-1.268q7.473-.587,14.94-1.215a1.047,1.047,0,0,1,1.116,1.1h0A1.3,1.3,0,0,1,467.5,94.662Z" transform="translate(-451.438 -70.427)" fill="none" stroke="#fff" stroke-miterlimit="10" stroke-width="1"/>
                    <path id="Path_90" data-name="Path 90" d="M486.012,83.886q-16.709,1.964-33.457,3.664a1.023,1.023,0,0,1-1.117-1.062h0a1.3,1.3,0,0,1,1.117-1.289q16.748-1.752,33.457-3.777a1.027,1.027,0,0,1,1.115,1.1h0A1.363,1.363,0,0,1,486.012,83.886Z" transform="translate(-451.438 -76.034)" fill="none" stroke="#fff" stroke-miterlimit="10" stroke-width="1"/>
                    <path id="Path_91" data-name="Path 91" d="M486.012,89.066q-16.709,1.768-33.457,3.3a1.035,1.035,0,0,1-1.117-1.074h0a1.289,1.289,0,0,1,1.117-1.277Q469.3,88.431,486.012,86.6a1.041,1.041,0,0,1,1.115,1.115h0A1.342,1.342,0,0,1,486.012,89.066Z" transform="translate(-451.438 -73.355)" fill="none" stroke="#fff" stroke-miterlimit="10" stroke-width="1"/>
                  </g>
                  <g id="Group_62" data-name="Group 62" transform="translate(87.682 77.504)" opacity="0.43">
                    <path id="Path_92" data-name="Path 92" d="M521.905,104.358q-7.42.535-14.851,1.042a1.127,1.127,0,0,1-1.11-1.233h0a1.354,1.354,0,0,1,1.11-1.4q7.432-.539,14.851-1.107a1.134,1.134,0,0,1,1.109,1.261h0A1.376,1.376,0,0,1,521.905,104.358Z" transform="translate(-505.944 -101.655)" fill="none" stroke="#fff" stroke-miterlimit="10" stroke-width="1"/>
                    <path id="Path_93" data-name="Path 93" d="M521.905,120.552q-7.42.225-14.851.437a1.18,1.18,0,0,1-1.11-1.276h0a1.29,1.29,0,0,1,1.11-1.359q7.432-.243,14.851-.5a1.192,1.192,0,0,1,1.109,1.308h0A1.307,1.307,0,0,1,521.905,120.552Z" transform="translate(-505.944 -93.282)" fill="none" stroke="#fff" stroke-miterlimit="10" stroke-width="1"/>
                    <path id="Path_94" data-name="Path 94" d="M540.3,109.155q-16.6,1.165-33.25,2.209a1.145,1.145,0,0,1-1.11-1.247h0a1.332,1.332,0,0,1,1.11-1.388q16.653-1.115,33.25-2.362c.609-.046,1.107.546,1.108,1.315h0A1.394,1.394,0,0,1,540.3,109.155Z" transform="translate(-505.944 -99.22)" fill="none" stroke="#fff" stroke-miterlimit="10" stroke-width="1"/>
                    <path id="Path_95" data-name="Path 95" d="M540.3,115.014q-16.6.908-33.25,1.719a1.163,1.163,0,0,1-1.11-1.262h0a1.307,1.307,0,0,1,1.11-1.371q16.653-.885,33.25-1.874a1.2,1.2,0,0,1,1.108,1.333h0A1.366,1.366,0,0,1,540.3,115.014Z" transform="translate(-505.944 -96.19)" fill="none" stroke="#fff" stroke-miterlimit="10" stroke-width="1"/>
                  </g>
                </g>
                <g id="Group_72" data-name="Group 72" transform="translate(294.111 124.427)">
                  <path id="Path_96" data-name="Path 96" d="M415.485,218.536q-70.422-4.667-141.016-2.957V132.6q70.522-.061,141.016.108Z" transform="translate(-274.469 -132.586)" fill="none" stroke="#fff" stroke-miterlimit="10" stroke-width="1"/>
                  <g id="Group_71" data-name="Group 71" transform="translate(21.281 11.213)" opacity="0.8">
                    <g id="Group_64" data-name="Group 64" transform="translate(0 10.127)">
                      <path id="Path_97" data-name="Path 97" d="M303.559,146.659c-7.567-.212-13.7,5.174-13.7,12.012s6.134,12.511,13.7,12.717,13.7-5.126,13.7-11.96S311.125,146.87,303.559,146.659Zm0,22.2c-6.021-.165-10.9-4.685-10.9-10.123s4.881-9.721,10.9-9.553,10.9,4.721,10.9,10.155S309.579,169.027,303.559,168.862Z" transform="translate(-289.858 -146.653)" fill="none" stroke="#fff" stroke-miterlimit="10" stroke-width="1"/>
                      <path id="Path_98" data-name="Path 98" d="M329.267,146.687c-7.566-.258-13.7,5.093-13.7,11.927s6.133,12.59,13.7,12.9,13.7-4.982,13.7-11.872S336.832,146.942,329.267,146.687Zm0,22.291c-6.02-.243-10.9-4.827-10.9-10.269s4.88-9.7,10.9-9.486,10.9,4.829,10.9,10.3S335.288,169.221,329.267,168.978Z" transform="translate(-280.015 -146.64)" fill="none" stroke="#fff" stroke-miterlimit="10" stroke-width="1"/>
                      <path id="Path_99" data-name="Path 99" d="M354.965,146.866c-7.562-.3-13.695,5.059-13.693,11.956s6.132,12.787,13.693,13.2,13.687-4.886,13.689-11.9S362.527,147.168,354.965,146.866Zm0,22.588c-6.017-.322-10.9-5.014-10.9-10.51s4.879-9.759,10.9-9.507,10.893,4.979,10.893,10.546S360.981,169.777,354.965,169.454Z" transform="translate(-270.174 -146.549)" fill="none" stroke="#fff" stroke-miterlimit="10" stroke-width="1"/>
                    </g>
                    <g id="Group_66" data-name="Group 66" opacity="0.69">
                      <g id="Group_65" data-name="Group 65">
                        <path id="Path_100" data-name="Path 100" d="M307.293,169.984q-8.11-.007-16.222.046a1.146,1.146,0,0,1-1.213-1.082h0a1.177,1.177,0,0,1,1.213-1.109q8.111-.05,16.222-.044a1.158,1.158,0,0,1,1.213,1.091h0A1.168,1.168,0,0,1,307.293,169.984Z" transform="translate(-289.858 -125.596)" fill="none" stroke="#fff" stroke-miterlimit="10" stroke-width="1"/>
                        <path id="Path_101" data-name="Path 101" d="M307.293,142.167q-8.11,0-16.222.008a1.152,1.152,0,0,1-1.213-1.086h0a1.17,1.17,0,0,1,1.213-1.1q8.111-.011,16.222-.008a1.156,1.156,0,0,1,1.213,1.089h0A1.168,1.168,0,0,1,307.293,142.167Z" transform="translate(-289.858 -139.978)" fill="none" stroke="#fff" stroke-miterlimit="10" stroke-width="1"/>
                        <path id="Path_102" data-name="Path 102" d="M307.293,178.781q-8.11-.007-16.222.058a1.143,1.143,0,0,1-1.213-1.079h0a1.181,1.181,0,0,1,1.213-1.112q8.111-.061,16.222-.055a1.156,1.156,0,0,1,1.213,1.089h0A1.168,1.168,0,0,1,307.293,178.781Z" transform="translate(-289.858 -121.047)" fill="none" stroke="#fff" stroke-miterlimit="10" stroke-width="1"/>
                        <path id="Path_103" data-name="Path 103" d="M313.823,174.7q-11.375-.1-22.752-.083a1.144,1.144,0,0,1-1.213-1.079h0a1.179,1.179,0,0,1,1.213-1.11q11.375-.021,22.752.083a1.161,1.161,0,0,1,1.213,1.094h0A1.163,1.163,0,0,1,313.823,174.7Z" transform="translate(-289.858 -123.202)" fill="none" stroke="#fff" stroke-miterlimit="10" stroke-width="1"/>
                      </g>
                    </g>
                    <g id="Group_68" data-name="Group 68" transform="translate(34.187 1.207)" opacity="0.69">
                      <g id="Group_67" data-name="Group 67">
                        <path id="Path_104" data-name="Path 104" d="M332.014,171.019q-8.11-.13-16.221-.2a1.167,1.167,0,0,1-1.213-1.1h0a1.156,1.156,0,0,1,1.213-1.091q8.11.068,16.221.194a1.178,1.178,0,0,1,1.211,1.112h0A1.147,1.147,0,0,1,332.014,171.019Z" transform="translate(-314.58 -126.372)" fill="none" stroke="#fff" stroke-miterlimit="10" stroke-width="1"/>
                        <path id="Path_105" data-name="Path 105" d="M332.014,143.027q-8.11-.041-16.221-.064a1.16,1.16,0,0,1-1.213-1.092h0a1.165,1.165,0,0,1,1.213-1.1q8.11.02,16.221.056a1.162,1.162,0,0,1,1.211,1.1h0A1.163,1.163,0,0,1,332.014,143.027Z" transform="translate(-314.58 -140.773)" fill="none" stroke="#fff" stroke-miterlimit="10" stroke-width="1"/>
                        <path id="Path_106" data-name="Path 106" d="M332.014,179.872q-8.11-.159-16.221-.246a1.169,1.169,0,0,1-1.213-1.1h0a1.155,1.155,0,0,1,1.213-1.089q8.11.084,16.221.238a1.183,1.183,0,0,1,1.211,1.117h0A1.142,1.142,0,0,1,332.014,179.872Z" transform="translate(-314.58 -121.818)" fill="none" stroke="#fff" stroke-miterlimit="10" stroke-width="1"/>
                        <path id="Path_107" data-name="Path 107" d="M338.542,175.893q-11.373-.3-22.749-.47a1.169,1.169,0,0,1-1.213-1.1h0a1.156,1.156,0,0,1,1.213-1.091q11.375.168,22.749.461a1.185,1.185,0,0,1,1.211,1.121h0A1.139,1.139,0,0,1,338.542,175.893Z" transform="translate(-314.58 -123.992)" fill="none" stroke="#fff" stroke-miterlimit="10" stroke-width="1"/>
                      </g>
                    </g>
                    <g id="Group_70" data-name="Group 70" transform="translate(68.367 2.552)" opacity="0.69">
                      <g id="Group_69" data-name="Group 69">
                        <path id="Path_108" data-name="Path 108" d="M356.723,172.44q-8.1-.259-16.213-.46a1.193,1.193,0,0,1-1.213-1.129h0a1.141,1.141,0,0,1,1.213-1.082q8.109.191,16.213.441a1.207,1.207,0,0,1,1.211,1.147h0A1.131,1.131,0,0,1,356.723,172.44Z" transform="translate(-339.297 -127.127)" fill="none" stroke="#fff" stroke-miterlimit="10" stroke-width="1"/>
                        <path id="Path_109" data-name="Path 109" d="M356.723,144.016q-8.1-.082-16.213-.146a1.17,1.17,0,0,1-1.213-1.107h0a1.164,1.164,0,0,1,1.213-1.1q8.109.055,16.213.129a1.173,1.173,0,0,1,1.211,1.12h0A1.16,1.16,0,0,1,356.723,144.016Z" transform="translate(-339.297 -141.66)" fill="none" stroke="#fff" stroke-miterlimit="10" stroke-width="1"/>
                        <path id="Path_110" data-name="Path 110" d="M356.723,181.429q-8.1-.316-16.213-.558a1.2,1.2,0,0,1-1.213-1.135h0a1.135,1.135,0,0,1,1.213-1.077q8.109.237,16.213.543a1.215,1.215,0,0,1,1.211,1.154h0A1.123,1.123,0,0,1,356.723,181.429Z" transform="translate(-339.297 -122.531)" fill="none" stroke="#fff" stroke-miterlimit="10" stroke-width="1"/>
                        <path id="Path_111" data-name="Path 111" d="M363.248,177.5q-11.367-.505-22.738-.875A1.2,1.2,0,0,1,339.3,175.5h0a1.139,1.139,0,0,1,1.213-1.08q11.371.362,22.738.853a1.218,1.218,0,0,1,1.212,1.157h0A1.125,1.125,0,0,1,363.248,177.5Z" transform="translate(-339.297 -124.725)" fill="none" stroke="#fff" stroke-miterlimit="10" stroke-width="1"/>
                      </g>
                    </g>
                  </g>
                </g>
                <g id="Group_80" data-name="Group 80" transform="translate(294.079 32.297)">
                  <path id="Path_112" data-name="Path 112" d="M415.462,157.68q-70.42.168-141.016.106V74.809q70.522,1.711,141.016-2.954Z" transform="translate(-274.446 -71.855)" fill="none" stroke="#fff" stroke-miterlimit="10" stroke-width="1"/>
                  <g id="Group_79" data-name="Group 79" transform="translate(11.16 14.729)" opacity="0.8">
                    <g id="Group_74" data-name="Group 74" transform="translate(12.608)" opacity="0.69">
                      <g id="Group_73" data-name="Group 73">
                        <path id="Path_113" data-name="Path 113" d="M308.98,111.457q-8.071,0-16.141-.023a1.153,1.153,0,0,1-1.206-1.088h0a1.157,1.157,0,0,1,1.206-1.091q8.071.027,16.141.024a1.148,1.148,0,0,1,1.206,1.082h0A1.163,1.163,0,0,1,308.98,111.457Z" transform="translate(-291.633 -67.247)" fill="none" stroke="#fff" stroke-miterlimit="10" stroke-width="1"/>
                        <path id="Path_114" data-name="Path 114" d="M308.98,83.789q-8.071.011-16.141-.047a1.16,1.16,0,0,1-1.206-1.094h0a1.15,1.15,0,0,1,1.206-1.085q8.071.059,16.141.049a1.145,1.145,0,0,1,1.206,1.08h0A1.165,1.165,0,0,1,308.98,83.789Z" transform="translate(-291.633 -81.564)" fill="none" stroke="#fff" stroke-miterlimit="10" stroke-width="1"/>
                        <path id="Path_115" data-name="Path 115" d="M308.98,120.208q-8.071,0-16.141-.015a1.152,1.152,0,0,1-1.206-1.086h0a1.158,1.158,0,0,1,1.206-1.092q8.071.018,16.141.017a1.148,1.148,0,0,1,1.206,1.082h0A1.164,1.164,0,0,1,308.98,120.208Z" transform="translate(-291.633 -62.719)" fill="none" stroke="#fff" stroke-miterlimit="10" stroke-width="1"/>
                        <path id="Path_116" data-name="Path 116" d="M315.476,116.144q-11.319-.046-22.637-.132a1.152,1.152,0,0,1-1.206-1.088h0a1.157,1.157,0,0,1,1.206-1.091q11.319.091,22.637.132a1.147,1.147,0,0,1,1.206,1.082h0A1.165,1.165,0,0,1,315.476,116.144Z" transform="translate(-291.633 -64.88)" fill="none" stroke="#fff" stroke-miterlimit="10" stroke-width="1"/>
                      </g>
                    </g>
                    <g id="Group_76" data-name="Group 76" transform="translate(46.62 0.855)" opacity="0.69">
                      <g id="Group_75" data-name="Group 75">
                        <path id="Path_117" data-name="Path 117" d="M333.573,84.316q-8.069.157-16.138.246a1.134,1.134,0,0,1-1.206-1.073h0a1.178,1.178,0,0,1,1.206-1.109q8.069-.091,16.138-.252a1.123,1.123,0,0,1,1.206,1.063h0A1.192,1.192,0,0,1,333.573,84.316Z" transform="translate(-316.229 -82.128)" fill="none" stroke="#fff" stroke-miterlimit="10" stroke-width="1"/>
                        <path id="Path_118" data-name="Path 118" d="M333.573,120.933q-8.069.034-16.138.05a1.146,1.146,0,0,1-1.206-1.082h0a1.165,1.165,0,0,1,1.206-1.1q8.069-.02,16.138-.058a1.143,1.143,0,0,1,1.206,1.083h0A1.17,1.17,0,0,1,333.573,120.933Z" transform="translate(-316.229 -63.196)" fill="none" stroke="#fff" stroke-miterlimit="10" stroke-width="1"/>
                        <path id="Path_119" data-name="Path 119" d="M340.068,116.786q-11.315.018-22.633,0a1.145,1.145,0,0,1-1.206-1.082h0a1.167,1.167,0,0,1,1.206-1.1q11.317.02,22.633-.006a1.141,1.141,0,0,1,1.206,1.082h0A1.175,1.175,0,0,1,340.068,116.786Z" transform="translate(-316.229 -65.342)" fill="none" stroke="#fff" stroke-miterlimit="10" stroke-width="1"/>
                      </g>
                    </g>
                    <g id="Group_78" data-name="Group 78" transform="translate(80.626 1.052)" opacity="0.69">
                      <g id="Group_77" data-name="Group 77">
                        <path id="Path_120" data-name="Path 120" d="M358.155,84.476q-8.065.3-16.131.528a1.116,1.116,0,0,1-1.2-1.06h0a1.208,1.208,0,0,1,1.2-1.142q8.067-.237,16.131-.543a1.1,1.1,0,0,1,1.2,1.057h0A1.225,1.225,0,0,1,358.155,84.476Z" transform="translate(-340.82 -82.257)" fill="none" stroke="#fff" stroke-miterlimit="10" stroke-width="1"/>
                        <path id="Path_121" data-name="Path 121" d="M358.155,121.6q-8.065.061-16.131.1a1.144,1.144,0,0,1-1.2-1.086h0a1.176,1.176,0,0,1,1.2-1.115q8.067-.052,16.131-.121a1.144,1.144,0,0,1,1.2,1.094h0A1.181,1.181,0,0,1,358.155,121.6Z" transform="translate(-340.82 -63.065)" fill="none" stroke="#fff" stroke-miterlimit="10" stroke-width="1"/>
                        <path id="Path_122" data-name="Path 122" d="M364.647,117.374q-11.309.073-22.622.106a1.143,1.143,0,0,1-1.2-1.085h0a1.181,1.181,0,0,1,1.2-1.118q11.313-.043,22.622-.129a1.139,1.139,0,0,1,1.2,1.091h0A1.189,1.189,0,0,1,364.647,117.374Z" transform="translate(-340.82 -65.252)" fill="none" stroke="#fff" stroke-miterlimit="10" stroke-width="1"/>
                      </g>
                    </g>
                    <path id="Path_123" data-name="Path 123" d="M282.516,109.837c0,.009,12.763,5.869,22.7-4.49S323.55,90.9,336.78,103.094s24.544,9.02,30.318-.789c5.773-9.685,26.823-24.562,34.132-9.753v30.1q-59.3,1.22-118.713.866Z" transform="translate(-282.516 -79.117)" fill="none" stroke="#fff" stroke-miterlimit="10" stroke-width="1"/>
                    <path id="Path_124" data-name="Path 124" d="M282.516,114.8c0,.009,16.068,7.036,28.733-5.608,12.666-12.62,21.82-29.837,34.407-13.316,12.59,16.54,24.43,18.4,33.258,5.894,8.828-12.535,21.832-1.326,21.832-1.289v20.744q-59.059,1.211-118.23.857Z" transform="translate(-282.516 -77.68)" fill="none" stroke="#fff" stroke-miterlimit="10" stroke-width="1"/>
                  </g>
                </g>
                <g id="Group_88" data-name="Group 88" transform="translate(146.045 24.6)">
                  <path id="Path_125" data-name="Path 125" d="M308.145,160.4q-70.515-.073-140.748-.378V66.781Q237.556,75.2,308.145,77.238Z" transform="translate(-167.397 -66.781)" fill="none" stroke="#fff" stroke-miterlimit="10" stroke-width="1"/>
                  <g id="Group_85" data-name="Group 85" transform="translate(11.279 7.054)" opacity="0.44">
                    <path id="Path_126" data-name="Path 126" d="M175.553,71.431v76.345q61.71.972,123.737,1.253" transform="translate(-175.553 -71.431)" fill="none" stroke="#fff" stroke-miterlimit="10" stroke-width="1"/>
                    <g id="Group_81" data-name="Group 81" transform="translate(0 5.613)">
                      <path id="Path_127" data-name="Path 127" d="M175.553,115.1q61.71,1.707,123.737,2.2" transform="translate(-175.553 -54.469)" fill="none" stroke="#fff" stroke-miterlimit="10" stroke-width="1"/>
                      <path id="Path_128" data-name="Path 128" d="M175.553,108.435q61.71,2.444,123.737,3.154" transform="translate(-175.553 -57.913)" fill="none" stroke="#fff" stroke-miterlimit="10" stroke-width="1"/>
                      <path id="Path_129" data-name="Path 129" d="M175.553,101.774q61.71,3.179,123.737,4.1" transform="translate(-175.553 -61.356)" fill="none" stroke="#fff" stroke-miterlimit="10" stroke-width="1"/>
                      <path id="Path_130" data-name="Path 130" d="M175.553,95.114q61.71,3.914,123.737,5.052" transform="translate(-175.553 -64.8)" fill="none" stroke="#fff" stroke-miterlimit="10" stroke-width="1"/>
                      <path id="Path_131" data-name="Path 131" d="M175.553,88.453q61.71,4.649,123.737,6" transform="translate(-175.553 -68.243)" fill="none" stroke="#fff" stroke-miterlimit="10" stroke-width="1"/>
                      <path id="Path_132" data-name="Path 132" d="M175.553,81.792q61.71,5.386,123.737,6.952" transform="translate(-175.553 -71.687)" fill="none" stroke="#fff" stroke-miterlimit="10" stroke-width="1"/>
                      <path id="Path_133" data-name="Path 133" d="M175.553,75.131q61.71,6.121,123.737,7.9" transform="translate(-175.553 -75.131)" fill="none" stroke="#fff" stroke-miterlimit="10" stroke-width="1"/>
                    </g>
                    <g id="Group_84" data-name="Group 84" transform="translate(7.992 5.875)">
                      <g id="Group_82" data-name="Group 82">
                        <path id="Path_134" data-name="Path 134" d="M223.434,145.206V78.314" transform="translate(-165.213 -73.748)" fill="none" stroke="#fff" stroke-miterlimit="10" stroke-width="1"/>
                        <path id="Path_135" data-name="Path 135" d="M216.41,145.321V77.9" transform="translate(-167.902 -73.961)" fill="none" stroke="#fff" stroke-miterlimit="10" stroke-width="1"/>
                        <path id="Path_136" data-name="Path 136" d="M209.388,145.447V77.453" transform="translate(-170.59 -74.193)" fill="none" stroke="#fff" stroke-miterlimit="10" stroke-width="1"/>
                        <path id="Path_137" data-name="Path 137" d="M202.37,145.583V76.969" transform="translate(-173.277 -74.443)" fill="none" stroke="#fff" stroke-miterlimit="10" stroke-width="1"/>
                        <path id="Path_138" data-name="Path 138" d="M195.354,145.729V76.449" transform="translate(-175.964 -74.712)" fill="none" stroke="#fff" stroke-miterlimit="10" stroke-width="1"/>
                        <path id="Path_139" data-name="Path 139" d="M188.341,145.886V75.894" transform="translate(-178.649 -74.999)" fill="none" stroke="#fff" stroke-miterlimit="10" stroke-width="1"/>
                        <path id="Path_140" data-name="Path 140" d="M181.332,146.051V75.3" transform="translate(-181.332 -75.304)" fill="none" stroke="#fff" stroke-miterlimit="10" stroke-width="1"/>
                      </g>
                      <g id="Group_83" data-name="Group 83" transform="translate(67.127 5.093)">
                        <path id="Path_141" data-name="Path 141" d="M265.032,144.723V80.032" transform="translate(-216.413 -77.952)" fill="none" stroke="#fff" stroke-miterlimit="10" stroke-width="1"/>
                        <path id="Path_142" data-name="Path 142" d="M258,144.781V79.829" transform="translate(-219.106 -78.057)" fill="none" stroke="#fff" stroke-miterlimit="10" stroke-width="1"/>
                        <path id="Path_143" data-name="Path 143" d="M250.965,144.849q0-32.631,0-65.259" transform="translate(-221.799 -78.181)" fill="none" stroke="#fff" stroke-miterlimit="10" stroke-width="1"/>
                        <path id="Path_144" data-name="Path 144" d="M243.933,144.925V79.316" transform="translate(-224.491 -78.322)" fill="none" stroke="#fff" stroke-miterlimit="10" stroke-width="1"/>
                        <path id="Path_145" data-name="Path 145" d="M236.9,145.013V79.006" transform="translate(-227.183 -78.483)" fill="none" stroke="#fff" stroke-miterlimit="10" stroke-width="1"/>
                        <path id="Path_146" data-name="Path 146" d="M229.875,145.109q0-33.225,0-66.448" transform="translate(-229.874 -78.661)" fill="none" stroke="#fff" stroke-miterlimit="10" stroke-width="1"/>
                      </g>
                    </g>
                  </g>
                  <g id="Group_86" data-name="Group 86" transform="translate(10.359 23.121)">
                    <path id="Path_147" data-name="Path 147" d="M298.886,82.022q-12.385,5.6-24.764,11.167-9.027,8.085-18.05,16.285-6.886-2.942-13.77-5.969-5.231,5.534-10.463,11.142-10.1,3.691-20.191,7.47-6.642.867-13.278,1.742-3.867,1.149-7.732,2.315-2.711-1.311-5.422-2.637-5.165,2.615-10.327,5.285" transform="translate(-174.888 -82.022)" fill="none" stroke="#fff" stroke-miterlimit="10" stroke-width="1"/>
                    <path id="Path_148" data-name="Path 148" d="M186.9,103.228" transform="translate(-170.289 -71.058)" fill="none" stroke="#fff" stroke-miterlimit="10" stroke-width="1"/>
                  </g>
                  <g id="Group_87" data-name="Group 87" transform="translate(15.514 30.521)">
                    <path id="Path_149" data-name="Path 149" d="M296.517,86.9q-6.951,2.116-13.9,4.213-6.285,10.927-12.569,21.966-12.184-1.208-24.363-2.53-12.782-.148-25.554-.385-11.724,9.835-23.44,20.065l-18.075.672" transform="translate(-178.616 -86.9)" fill="none" stroke="#fff" stroke-miterlimit="10" stroke-width="1"/>
                  </g>
                </g>
                <g id="Group_90" data-name="Group 90" transform="translate(146.076 124.451)">
                  <path id="Path_150" data-name="Path 150" d="M308.168,215.764q-70.516,2.041-140.749,10.455V132.98q70.161-.3,140.749-.378Z" transform="translate(-167.419 -132.602)" fill="none" stroke="#fff" stroke-miterlimit="10" stroke-width="1"/>
                  <g id="Group_89" data-name="Group 89" transform="translate(10.685 26.501)" opacity="0.7">
                    <path id="Path_151" data-name="Path 151" d="M183.833,190.784q-4.346.389-8.687.8V167.365q4.341-.287,8.687-.557Z" transform="translate(-175.146 -141.418)" fill="none" stroke="#fff" stroke-miterlimit="10" stroke-width="1"/>
                    <path id="Path_152" data-name="Path 152" d="M193.817,192.822q-4.348.357-8.693.734V161q4.346-.221,8.693-.429Z" transform="translate(-171.326 -144.642)" fill="none" stroke="#fff" stroke-miterlimit="10" stroke-width="1"/>
                    <path id="Path_153" data-name="Path 153" d="M203.807,193.491q-4.35.325-8.7.67V157.535q4.348-.18,8.7-.352Z" transform="translate(-167.503 -146.394)" fill="none" stroke="#fff" stroke-miterlimit="10" stroke-width="1"/>
                    <path id="Path_154" data-name="Path 154" d="M213.8,190.16q-4.354.294-8.7.605V162.109q4.352-.193,8.7-.378Z" transform="translate(-163.678 -144.043)" fill="none" stroke="#fff" stroke-miterlimit="10" stroke-width="1"/>
                    <path id="Path_155" data-name="Path 155" d="M223.8,190.469q-4.354.259-8.708.54V159.754q4.354-.164,8.708-.317Z" transform="translate(-159.85 -145.229)" fill="none" stroke="#fff" stroke-miterlimit="10" stroke-width="1"/>
                    <path id="Path_156" data-name="Path 156" d="M233.811,187.048q-4.356.227-8.712.475V164.889q4.356-.171,8.712-.331Z" transform="translate(-156.021 -142.581)" fill="none" stroke="#fff" stroke-miterlimit="10" stroke-width="1"/>
                    <path id="Path_157" data-name="Path 157" d="M243.821,189.312q-4.358.2-8.715.411v-30.6q4.356-.127,8.715-.241Z" transform="translate(-152.19 -145.517)" fill="none" stroke="#fff" stroke-miterlimit="10" stroke-width="1"/>
                    <path id="Path_158" data-name="Path 158" d="M253.835,190.72q-4.36.164-8.719.346V155.231q4.36-.093,8.719-.176Z" transform="translate(-148.357 -147.494)" fill="none" stroke="#fff" stroke-miterlimit="10" stroke-width="1"/>
                    <path id="Path_159" data-name="Path 159" d="M263.852,192.831q-4.362.13-8.722.281V150.185q4.36-.061,8.722-.114Z" transform="translate(-144.523 -150.071)" fill="none" stroke="#fff" stroke-miterlimit="10" stroke-width="1"/>
                  </g>
                </g>
                <g id="Group_93" data-name="Group 93" transform="translate(526.527 124.866)">
                  <path id="Path_160" data-name="Path 160" d="M579.889,250.681q-68.248-14.857-137.351-23.53V132.876q69.034.314,137.351.85Z" transform="translate(-442.538 -132.876)" fill="none" stroke="#fff" stroke-miterlimit="10" stroke-width="1"/>
                  <g id="Group_92" data-name="Group 92" transform="translate(11.107 34.401)" opacity="0.5">
                    <g id="Group_91" data-name="Group 91">
                      <path id="Path_161" data-name="Path 161" d="M459.188,190.489q-4.308-.466-8.618-.913V166.208q4.31.312,8.618.637Z" transform="translate(-450.57 -150.044)" fill="none" stroke="#fff" stroke-miterlimit="10" stroke-width="1"/>
                      <path id="Path_162" data-name="Path 162" d="M469.075,194.636q-4.3-.5-8.61-.974V161.145q4.306.282,8.61.573Z" transform="translate(-446.782 -152.662)" fill="none" stroke="#fff" stroke-miterlimit="10" stroke-width="1"/>
                      <path id="Path_163" data-name="Path 163" d="M478.952,197.548q-4.3-.528-8.6-1.033V158.653q4.3.268,8.6.548Z" transform="translate(-442.997 -153.95)" fill="none" stroke="#fff" stroke-miterlimit="10" stroke-width="1"/>
                      <path id="Path_164" data-name="Path 164" d="M488.819,196.241q-4.294-.555-8.592-1.092V164.5q4.3.337,8.592.686Z" transform="translate(-439.215 -150.926)" fill="none" stroke="#fff" stroke-miterlimit="10" stroke-width="1"/>
                      <path id="Path_165" data-name="Path 165" d="M498.675,198.792q-4.29-.585-8.582-1.151V163.074q4.292.332,8.582.678Z" transform="translate(-435.438 -151.665)" fill="none" stroke="#fff" stroke-miterlimit="10" stroke-width="1"/>
                      <path id="Path_166" data-name="Path 166" d="M508.519,197.107q-4.283-.614-8.572-1.212v-25.87q4.287.416,8.572.846Z" transform="translate(-431.666 -148.071)" fill="none" stroke="#fff" stroke-miterlimit="10" stroke-width="1"/>
                      <path id="Path_167" data-name="Path 167" d="M518.352,201.943q-4.277-.644-8.561-1.271V164.544q4.283.366,8.561.748Z" transform="translate(-427.897 -150.905)" fill="none" stroke="#fff" stroke-miterlimit="10" stroke-width="1"/>
                      <path id="Path_168" data-name="Path 168" d="M528.171,205.915q-4.273-.674-8.55-1.332V160.92q4.277.339,8.55.684Z" transform="translate(-424.133 -152.778)" fill="none" stroke="#fff" stroke-miterlimit="10" stroke-width="1"/>
                      <path id="Path_169" data-name="Path 169" d="M537.977,210.883q-4.267-.705-8.539-1.391V155.553q4.273.282,8.539.575Z" transform="translate(-420.375 -155.553)" fill="none" stroke="#fff" stroke-miterlimit="10" stroke-width="1"/>
                    </g>
                  </g>
                </g>
                <g id="Group_96" data-name="Group 96" transform="translate(441.819 151.933)">
                  <path id="Path_170" data-name="Path 170" d="M459.356,217.105q-38.959-4.726-78.074-7.486v-58.9q39.1.944,78.074,2.559Z" transform="translate(-381.282 -150.718)" fill="none" stroke="#fff" stroke-miterlimit="10" stroke-width="1"/>
                  <g id="Group_95" data-name="Group 95" transform="translate(9.792 14.938)" opacity="0.3">
                    <g id="Group_94" data-name="Group 94">
                      <path id="Path_171" data-name="Path 171" d="M399.856,185.625q-5.746-.43-11.493-.822v-4.39q5.748.371,11.493.777Z" transform="translate(-388.363 -150.303)" fill="none" stroke="#fff" stroke-miterlimit="10" stroke-width="1"/>
                      <path id="Path_172" data-name="Path 172" d="M411.2,186.5q-5.739-.48-11.485-.925v-4.452q5.744.419,11.485.874Z" transform="translate(-384.017 -149.936)" fill="none" stroke="#fff" stroke-miterlimit="10" stroke-width="1"/>
                      <path id="Path_173" data-name="Path 173" d="M422.531,187.474q-5.735-.532-11.476-1.027v-4.524q5.741.469,11.476.971Z" transform="translate(-379.675 -149.523)" fill="none" stroke="#fff" stroke-miterlimit="10" stroke-width="1"/>
                      <path id="Path_174" data-name="Path 174" d="M433.857,188.542q-5.731-.583-11.468-1.13v-4.6q5.735.519,11.468,1.07Z" transform="translate(-375.336 -149.065)" fill="none" stroke="#fff" stroke-miterlimit="10" stroke-width="1"/>
                      <path id="Path_175" data-name="Path 175" d="M399.856,181.314q-5.746-.394-11.493-.755v-4.39q5.748.339,11.493.71Z" transform="translate(-388.363 -152.498)" fill="none" stroke="#fff" stroke-miterlimit="10" stroke-width="1"/>
                      <path id="Path_176" data-name="Path 176" d="M411.2,182.123q-5.739-.444-11.485-.851v-4.454q5.744.385,11.485.8Z" transform="translate(-384.017 -152.162)" fill="none" stroke="#fff" stroke-miterlimit="10" stroke-width="1"/>
                      <path id="Path_177" data-name="Path 177" d="M422.531,183.018q-5.735-.489-11.476-.945v-4.524q5.741.43,11.476.889Z" transform="translate(-379.675 -151.784)" fill="none" stroke="#fff" stroke-miterlimit="10" stroke-width="1"/>
                      <path id="Path_178" data-name="Path 178" d="M433.857,184q-5.731-.537-11.468-1.039v-4.6q5.735.473,11.468.978Z" transform="translate(-375.336 -151.365)" fill="none" stroke="#fff" stroke-miterlimit="10" stroke-width="1"/>
                      <path id="Path_179" data-name="Path 179" d="M399.856,177q-5.746-.362-11.493-.69v-4.39q5.748.307,11.493.645Z" transform="translate(-388.363 -154.693)" fill="none" stroke="#fff" stroke-miterlimit="10" stroke-width="1"/>
                      <path id="Path_180" data-name="Path 180" d="M411.2,177.742q-5.739-.4-11.485-.775v-4.454q5.744.348,11.485.725Z" transform="translate(-384.017 -154.388)" fill="none" stroke="#fff" stroke-miterlimit="10" stroke-width="1"/>
                      <path id="Path_181" data-name="Path 181" d="M422.531,178.561q-5.735-.446-11.476-.862v-4.524q5.741.389,11.476.806Z" transform="translate(-379.675 -154.045)" fill="none" stroke="#fff" stroke-miterlimit="10" stroke-width="1"/>
                      <path id="Path_182" data-name="Path 182" d="M433.857,179.463q-5.731-.492-11.468-.95v-4.6q5.735.428,11.468.886Z" transform="translate(-375.336 -153.665)" fill="none" stroke="#fff" stroke-miterlimit="10" stroke-width="1"/>
                      <path id="Path_183" data-name="Path 183" d="M399.856,172.692q-5.746-.325-11.493-.623v-4.39q5.748.275,11.493.578Z" transform="translate(-388.363 -156.888)" fill="none" stroke="#fff" stroke-miterlimit="10" stroke-width="1"/>
                      <path id="Path_184" data-name="Path 184" d="M422.531,174.106q-5.735-.405-11.476-.781V168.8q5.741.348,11.476.722Z" transform="translate(-379.675 -156.306)" fill="none" stroke="#fff" stroke-miterlimit="10" stroke-width="1"/>
                      <path id="Path_185" data-name="Path 185" d="M433.857,174.923q-5.731-.444-11.468-.859v-4.6q5.735.385,11.468.795Z" transform="translate(-375.336 -155.965)" fill="none" stroke="#fff" stroke-miterlimit="10" stroke-width="1"/>
                      <path id="Path_186" data-name="Path 186" d="M433.857,170.383q-5.731-.4-11.468-.768v-4.6q5.735.341,11.468.705Z" transform="translate(-375.336 -158.265)" fill="none" stroke="#fff" stroke-miterlimit="10" stroke-width="1"/>
                      <path id="Path_187" data-name="Path 187" d="M433.857,165.843q-5.731-.348-11.468-.677v-4.6q5.735.3,11.468.614Z" transform="translate(-375.336 -160.565)" fill="none" stroke="#fff" stroke-miterlimit="10" stroke-width="1"/>
                    </g>
                  </g>
                </g>
              </g>
            </g>
          </g>
        </g>
      </g>
    </g>
  </g>
</svg>
