<?xml version="1.0" encoding="UTF-8"?><svg id="Layer_2" xmlns="http://www.w3.org/2000/svg" xmlns:xlink="http://www.w3.org/1999/xlink" viewBox="0 0 1658.11 102.87"><defs><style>.cls-1{fill:url(#linear-gradient);}.cls-2{fill:#fff;}.cls-3{fill:#8c9091;}.cls-4{fill:url(#linear-gradient-3);}.cls-5{fill:url(#linear-gradient-2);}</style><linearGradient id="linear-gradient" x1="-71.98" y1="70.12" x2="1658.11" y2="70.12" gradientUnits="userSpaceOnUse"><stop offset="0" stop-color="#80b000"/><stop offset="1" stop-color="#0380bd"/></linearGradient><linearGradient id="linear-gradient-2" x1="-72.48" y1="52.06" x2="1669.65" y2="52.06" xlink:href="#linear-gradient"/><linearGradient id="linear-gradient-3" x1="-72.91" y1="88.19" x2="1679.6" y2="88.19" xlink:href="#linear-gradient"/></defs><g id="Layer_1-2"><g><path class="cls-1" d="M1651.44,76.79c3.68,0,6.67-2.98,6.67-6.67s-2.99-6.67-6.67-6.67c-3.18,0-5.82,2.22-6.49,5.2H0v2.94H1644.95c.67,2.97,3.32,5.2,6.49,5.2Z"/><path class="cls-5" d="M1596.99,58.7c3.1-.29,5.65-2.78,5.99-5.87,.45-4.03-2.69-7.43-6.63-7.43-3.17,0-5.82,2.22-6.49,5.2H0v2.94H1589.86c.72,3.17,3.68,5.49,7.13,5.17Z"/><path class="cls-4" d="M1552.29,94.86c3.68,0,6.67-2.99,6.67-6.67s-2.99-6.67-6.67-6.67c-3.18,0-5.82,2.22-6.49,5.2H0v2.94H1545.8c.67,2.97,3.32,5.2,6.49,5.2Z"/></g><g><path class="cls-2" d="M988.9,40.26v-11.51c0-3.88-.76-7.64-2.26-11.19-1.45-3.42-3.52-6.5-6.16-9.13-2.64-2.64-5.71-4.71-9.13-6.16-3.55-1.5-7.31-2.26-11.19-2.26s-7.64,.76-11.19,2.26c-3.42,1.45-6.5,3.52-9.13,6.16-2.64,2.64-4.71,5.71-6.16,9.13-1.5,3.55-2.26,7.31-2.26,11.19v11.35c-4.26,2.15-7.2,6.56-7.2,11.66v28.26c0,12.61,10.26,22.87,22.87,22.87h25.85c12.61,0,22.87-10.26,22.87-22.87v-28.26c0-4.94-2.8-9.28-6.89-11.49Zm-16.57-1.57h-24.35v-9.95c0-6.71,5.46-12.18,12.18-12.18s12.18,5.46,12.18,12.18v9.95Z"/><g><path class="cls-3" d="M937.49,44.77h-.22c-3.85,0-6.98,3.12-6.98,6.98v28.26c0,9.27,7.51,16.78,16.78,16.78h25.85c9.27,0,16.78-7.51,16.78-16.78v-28.26c0-3.83-3.08-6.93-6.89-6.98m-4.4,0h-36.51"/><path class="cls-3" d="M981.03,19.92c-1.14-2.7-2.78-5.12-4.86-7.2-2.08-2.08-4.5-3.71-7.2-4.86-2.8-1.18-5.76-1.78-8.82-1.78s-6.03,.6-8.82,1.78c-2.7,1.14-5.12,2.78-7.2,4.86-2.08,2.08-3.71,4.5-4.86,7.2-1.18,2.8-1.78,5.76-1.78,8.82v14.51h4.4v-14.51c0-10.07,8.19-18.26,18.26-18.26s18.26,8.19,18.26,18.26v14.51h4.4s0-14.51,0-14.51c0-3.06-.6-6.03-1.78-8.82Z"/><path class="cls-2" d="M963.26,70.98v9.25c0,.75-.61,1.36-1.36,1.36h-3.79c-.75,0-1.36-.61-1.36-1.36v-9.25c-1.64-1.07-2.73-2.92-2.73-5.03,0-3.31,2.68-5.99,5.99-5.99s5.99,2.68,5.99,5.99c0,2.11-1.09,3.96-2.73,5.03Z"/></g></g></g></svg> 