<svg xmlns="http://www.w3.org/2000/svg" width="44.616" height="48.563" viewBox="0 0 44.616 48.563">
  <path id="global-icon" d="M46,9A8.995,8.995,0,0,0,29.152,4.609,22.029,22.029,0,1,0,43.6,16.013,12.383,12.383,0,0,0,46,9ZM37,2a7.008,7.008,0,0,1,7,7c0,5.349-5.284,9.562-7,10.789C35.284,18.562,30,14.349,30,9a7.008,7.008,0,0,1,7-7ZM21.69,6.144C20.52,9.147,19.476,10,19,10a3.7,3.7,0,0,0-3.244,2.014c-.642.934-.966,1.4-2.513,1.016a4.731,4.731,0,0,1-2.478-1.984,19.9,19.9,0,0,1,10.925-4.9ZM4.678,31.077l.091-.109c2.852-3.431,5.878-4.774,8.988-4,2.22.554,2.935,1.117,3.145,1.491s.055.93-.218,1.8c-.434,1.384-1.029,3.279.516,5.339,1.21,1.613,3.118,1.816,4.8,2,2.979.317,5.55.6,5.259,8.114A19.817,19.817,0,0,1,4.678,31.077Zm32.653,9.79A14.847,14.847,0,0,0,34.6,38.2c-2.526-1.894-2.309-2.2.334-5.912.558-.783,1.2-1.683,1.9-2.733,1.975-2.964,4.829-2.8,7.089-1.994a19.932,19.932,0,0,1-6.592,13.306Zm6.653-15.392c-5.607-1.7-8.047,1.542-10.68,5.654-2.573,3.615-3.99,5.606.1,8.671a12.8,12.8,0,0,1,2.379,2.327,19.9,19.9,0,0,1-6.512,3.146c.175-8.868-3.983-9.338-7.053-9.666-1.463-.156-2.727-.291-3.414-1.207-1.8-2.328,1.18-4.474-.154-6.917-.609-1.087-1.967-1.844-4.4-2.453C10.75,24.154,7.3,25.4,4.2,28.621A19.872,19.872,0,0,1,9.328,12.454c2.084,3.022,6.406,3.829,8.076.692C17.951,12.352,18.225,12,19,12c1.856,0,3.449-1.98,4.862-5.993a19.338,19.338,0,0,1,4.5.479c-2.468,7.726,7.118,14.97,8.106,15.362a1,1,0,0,0,1.06,0,23.755,23.755,0,0,0,4.7-4.083A20.063,20.063,0,0,1,43.984,25.475ZM42,9a5,5,0,1,0-5,5A5,5,0,0,0,42,9ZM34,9a3,3,0,1,1,3,3,3,3,0,0,1-3-3ZM24,16a4,4,0,0,0-4,4c-.019,1.877,1.844,6.274,4.51,4.86a8.744,8.744,0,0,0,3.48-4.716C28.355,17.919,26.172,15.95,24,16Zm2.01,3.856a7.285,7.285,0,0,1-2.49,3.285C23.042,23.058,22,21.235,22,20a2,2,0,0,1,2-2,1.874,1.874,0,0,1,2.01,1.856Z" transform="translate(-1.667 0.262)" fill="#fff" stroke="#303f7d" stroke-width="0.5"/>
</svg>
