<svg width="37" height="34" viewBox="0 0 37 34" fill="none" xmlns="http://www.w3.org/2000/svg">
<path d="M33.8526 28.9473L23.7723 16.907C23.3896 16.4518 22.9522 16.0448 22.4978 15.6654C22.4123 15.593 22.3167 15.5275 22.2005 15.4723C20.6867 14.7377 18.8723 15.124 17.7754 16.4104L16.0977 18.3832L29.0311 33.6654C29.3831 34.0827 30.0221 34.0862 30.3774 33.6654L33.8526 30.1061C34.1362 29.7716 34.1396 29.2784 33.8526 28.9438V28.9473Z" fill="url(#paint0_linear_2549_17977)"/>
<path d="M25.5626 4.7255C25.5626 4.7255 25.1867 4.29438 25.156 4.25644L23.403 2.18364C23.362 2.13535 23.3176 2.08707 23.2766 2.04223H23.28V2.03878C22.0807 0.655758 20.4097 -0.0202326 18.749 0.000460962C17.0815 0.000460962 15.4106 0.700595 14.2249 2.10086L11.8808 4.9014L10.9685 5.97746L0.385899 18.5454C0.146707 18.8282 0.0168601 19.1903 0.0236942 19.5594L0.139872 27.9989C0.139872 27.9989 0.139872 28.0127 0.139872 28.0196L0.297058 28.9129C0.314143 29.0198 0.447407 29.0543 0.515748 28.9715L18.814 7.3191L20.4268 5.42218C21.3426 4.34612 22.747 3.88051 24.0796 4.14263C24.3359 4.20471 24.5888 4.29093 24.8348 4.4082L25.5558 4.72205L25.5626 4.7255Z" fill="url(#paint1_linear_2549_17977)"/>
<path d="M20.6258 19.8281C21.7192 18.5417 23.5337 18.1554 25.0509 18.89L25.7172 19.2108L23.5815 16.662C22.3856 15.2479 20.701 14.5478 19.0198 14.5616C17.3386 14.5478 15.654 15.2514 14.458 16.662L2.33782 31.1406L2.07812 31.451L2.72736 32.2098C4.74683 34.5792 8.38939 34.5654 10.3918 32.1753L18.9856 21.8078L20.6258 19.8247V19.8281Z" fill="url(#paint2_linear_2549_17977)"/>
<path d="M36.5762 17.8866L25.546 4.71168L24.9241 4.41162C23.4104 3.677 21.5959 4.06328 20.4991 5.34973L18.8213 7.32252L31.7548 22.6047C32.1067 23.0221 32.7457 23.0255 33.1011 22.6047L36.5762 19.0454C36.8598 18.7109 36.8632 18.2177 36.5762 17.8832V17.8866Z" fill="url(#paint3_linear_2549_17977)"/>
<path d="M13.1932 28.8126L12.6225 29.1023C11.1225 29.868 9.30117 29.5196 8.18038 28.2573L1.28139 20.8835C1.28139 20.8835 0.936271 20.4834 0.440801 19.8247C0.0170881 19.266 0.170852 18.8762 0.170852 18.8762C0.170852 18.8762 0.00683407 19.0935 0 19.7764C0 20.0006 0.146935 28.1814 0.146935 28.1814C0.160603 28.8712 0.410048 29.5369 0.857679 30.0577L2.73363 32.2443C4.75651 34.5999 8.38199 34.5827 10.381 32.2064L10.9516 31.5269L13.1932 28.8126Z" fill="url(#paint4_linear_2549_17977)"/>
<defs>
<linearGradient id="paint0_linear_2549_17977" x1="17.8677" y1="15.1239" x2="37.1497" y2="37.8656" gradientUnits="userSpaceOnUse">
<stop stop-color="#741328"/>
<stop offset="0.03" stop-color="#781327"/>
<stop offset="0.33" stop-color="#A21C20"/>
<stop offset="0.6" stop-color="#C0221B"/>
<stop offset="0.84" stop-color="#D32518"/>
<stop offset="1" stop-color="#DA2717"/>
</linearGradient>
<linearGradient id="paint1_linear_2549_17977" x1="-6.77279" y1="31.9583" x2="24.4213" y2="-0.824188" gradientUnits="userSpaceOnUse">
<stop offset="0.36" stop-color="#E8561A"/>
<stop offset="0.45" stop-color="#EB6A18"/>
<stop offset="0.56" stop-color="#EE7F17"/>
<stop offset="0.67" stop-color="#F08B16"/>
<stop offset="0.77" stop-color="#F19016"/>
</linearGradient>
<linearGradient id="paint2_linear_2549_17977" x1="7.52146" y1="30.5302" x2="24.8782" y2="13.4364" gradientUnits="userSpaceOnUse">
<stop offset="0.21" stop-color="#AD3418"/>
<stop offset="0.31" stop-color="#C63F18"/>
<stop offset="0.42" stop-color="#D84718"/>
<stop offset="0.53" stop-color="#E34C18"/>
<stop offset="0.66" stop-color="#E74E19"/>
<stop offset="1" stop-color="#DA2717"/>
</linearGradient>
<linearGradient id="paint3_linear_2549_17977" x1="20.5913" y1="4.06328" x2="39.8733" y2="26.805" gradientUnits="userSpaceOnUse">
<stop offset="0.11" stop-color="#E8561A"/>
<stop offset="0.34" stop-color="#ED8E1C"/>
<stop offset="0.63" stop-color="#F4CE1F"/>
<stop offset="0.77" stop-color="#F7E821"/>
</linearGradient>
<linearGradient id="paint4_linear_2549_17977" x1="-0.00341704" y1="26.4397" x2="13.1932" y2="26.4397" gradientUnits="userSpaceOnUse">
<stop stop-color="#F19016"/>
<stop offset="0.16" stop-color="#F08A16"/>
<stop offset="0.37" stop-color="#ED7A17"/>
<stop offset="0.61" stop-color="#E96018"/>
<stop offset="0.74" stop-color="#E74F1A"/>
<stop offset="1" stop-color="#CF3C16"/>
</linearGradient>
</defs>
</svg>
