<svg xmlns="http://www.w3.org/2000/svg" xmlns:xlink="http://www.w3.org/1999/xlink" width="1055" height="530.446" viewBox="0 0 1055 530.446">
  <defs>
    <clipPath id="clip-path">
      <rect id="Rectangle_5731" data-name="Rectangle 5731" width="1054.925" height="469.834" fill="none"/>
    </clipPath>
    <linearGradient id="linear-gradient" x1="1" y1="1" x2="0" y2="1" gradientUnits="objectBoundingBox">
      <stop offset="0" stop-color="#182c6c" stop-opacity="0"/>
      <stop offset="0.123" stop-color="#182c6c"/>
      <stop offset="0.884" stop-color="#182c6c"/>
      <stop offset="1" stop-color="#182c6c" stop-opacity="0"/>
    </linearGradient>
  </defs>
  <g id="RefinaryBG" transform="translate(0 -0.483)">
    <g id="Group_3360" data-name="Group 3360" transform="translate(0.075 0.483)">
      <g id="Group_3359" data-name="Group 3359" clip-path="url(#clip-path)">
        <rect id="Rectangle_5730" data-name="Rectangle 5730" width="1054.925" height="469.834" transform="translate(0 0)" fill="none"/>
      </g>
    </g>
    <path id="Path_10971" data-name="Path 10971" d="M526.809,284.752H542.85v6.974H526.809Zm-368.1-5.166H164a18.082,18.082,0,0,0-.512,4.22h0V287.4h-4.776Zm57.057,0h7.552l.407,7.814h-7.446v-3.593h0a18.079,18.079,0,0,0-.512-4.22m9.669,0h15.15V287.4H225.846Zm-77.627,1.52-.231-1.642h.3l.206,1.907Zm.473,3.372h1.865l-.539-5.014h2.068V287.4H148.7Zm6.277-5.014H156.6V287.4h-2.036Zm-14.284-3.24.73.7h-.73Zm0-2.375V272.4h6.843l.487,4.531h-4.135Zm8.571-1.453h2.829v4.531h-2.341Zm5.713,0H156.6v4.531h-2.036Zm715.522-5.741H871.2v1.736l-1.117.29ZM444.2,265.379h7.57v8.247H444.2ZM140.278,264.4h5.981l.452,4.182h-6.432Zm7.71,0h3.69v4.182H148.44Zm6.574,0H156.6v4.182h-2.036Zm4.151,0h2.266v2.015a2.18,2.18,0,0,1-2.188,2.167h-.078Zm0,7.991h.078a6.011,6.011,0,0,0,6.031-5.976V264.4H178.1c-6.194,2.551-10.988,7.052-13.219,12.522h-6.163ZM870.084,261.06H871.2v3.36h-1.117Zm35.829,4.226v-6.64l2.432,2.4v4.874Zm20.051,5.2v-9.443l2.432-2.4v12.47Zm-18.916-12.95h1.3v1.278Zm18.916,0h1.3l-1.3,1.277Zm-55.88-1.369H871.2v3.776h-1.117Zm-675.9,6.24.4-7.708,4.4,8.744a30.719,30.719,0,0,0-4.8-1.036m21.415,5.058,6.421-12.766,1.19,22.793H215.6Zm710.362-12.787,1.3,1.276h-1.3Zm-17.62,0v1.277h-1.3Zm-381.535-.952c.617,8.153,6.307,14.557,13.293,14.633v.008h.955v.924h1.795v13.228H526.809Zm343.275-.621H871.2v1.945h-1.117ZM195.449,251.71h5.569v11.075Zm12.572,16.354V251.709h.576v16.812c-.188-.156-.382-.305-.576-.457m7.58-16.355h5.56l-5.56,11.056Zm-77.555,3.476,6.54-6.3,1.4,12.985h-5.709v-3.985h-2.155Zm-.2-7.28h5.3l-5.157,4.967ZM824.127,247h2.341v2.769h-2.341ZM10.984,245.765h1.685v2.254H10.984Zm811.945-1.49h3.54v1.3h-3.54Zm4.977,0h3.525v5.491H827.9Zm4.654,0h3.384v5.491h-3.384Zm4.513,0h1.43v5.491h-1.43Zm2.351,0h1.212V249.7l-.065.065h-1.147Zm11.971,0H852.4v5.491h-1.011Zm1.931,0h1.525v5.491h-1.525Zm2.654,0h1.57l-.22,5.492h-1.349Zm9.631,0h.529a3.2,3.2,0,0,1,3.208,3.178v2.314h-3.737ZM137.679,242.1l5.138,4.1h-5.022Zm-126.695-.478h1.685v3.188H10.984Zm204.618-.9,5.4,8.889h-5.4Zm-14.583-.016v8.906h-5.408ZM851,240.777l1.405-1.384v3.764H851Zm-11.575-1.385,1.4,1.384v2.381h-1.4Zm.656-.639h.748v.736Zm10.919,0h.749l-.749.738ZM422.134,238.6v.882h-.894Zm5.225,0,.895.882h-.895Zm-268.646,2.706a3.43,3.43,0,0,1,2.278-3.211c0,.072-.012.144-.012.216v23.553h-2.266Zm664.012-3.734h3.744v5.581h-3.744Zm-811.741-.088h1.685v3.187H10.984ZM851,237.1l.749.738H851Zm-10.171,0v.739h-.75Zm-676,1.216a2.132,2.132,0,0,1,.045-.437h7.761a5.423,5.423,0,0,0,3.965-1.729h3.585a2.179,2.179,0,0,1,2.187,2.166v7.661h2.343v16.557c-.657.109-1.3.24-1.942.387a6.662,6.662,0,0,0-3.593-1.051h-14.35Zm741.09-3.4,2.432,2.4v15.132l-2.432,2.4Zm20.051,17.53V237.313l2.432-2.4v19.926Zm-18.916-18.642h1.3v1.279Zm18.916,0h1.3l-1.3,1.278Zm-914.98-.455h1.685v3.187H10.984Zm877.682-.38h6.288v29.474l-.408-.107-5.879,1.525Zm11.066,30.712V232.97h4.584v31.9ZM462.69,232.772h4.373v4.1H462.69Zm5.576,0h4.373v4.1h-4.373Zm5.575,0h.5l-.5,1.643Zm33.452.4v-.4h4.128v4.1h-3.009Zm8.642-.4h1.308v4.1h-1.308Zm-95.447-.938,1.647,1.623v3.67l-1.647,1.624Zm6.872,5.293v-3.67l1.648-1.624v6.918Zm-6.119-6.03h.894v.882Zm6.119,0h.895l-.895.882ZM10.984,229.212h1.685V232.4H10.984Zm411.15-.044v.882h-.894Zm5.225,0,.895.882h-.895Zm35.331-.374h4.373v2.789H462.69Zm5.576,0h4.373v2.789h-4.373Zm5.575,0h1.7l-.844,2.789h-.858Zm32.125,0h.126v.412Zm1.327,0h4.128v2.789h-4.128Zm8.642,0h1.308v2.789h-1.308Zm-307.912.383.284-.466.292.482v20.423h-.576Zm614.7-1.024h3.744v8h-3.744Zm127.08-.691h3.14v2.531H949.8Zm8.078,0h5.579v2.531h-5.579Zm48.471,0h6.9v2.531h-6.9Zm8.078,0h6.9v2.531h-6.9Zm8.08,0h.7v2.531h-.7ZM839.422,225.7l1.4,1.384v8.736l-1.4,1.383ZM851,235.815V227.08l1.405-1.385v11.5ZM10.984,225.074h1.685v3.186H10.984Zm829.094-.02h.749v.738Zm10.92,0h.749l-.749.738Zm98.807-.23h3.14V226.3H949.8Zm8.078,0h5.579V226.3h-5.579Zm48.471,0h6.9V226.3h-6.9Zm8.078,0h6.9V226.3h-6.9Zm8.08,0h.7V226.3h-.7Zm-607.306-.134h4.224v15.52a21.783,21.783,0,0,0-4.224,1.447Zm5.281,0h1.647v3l-1.647,1.623Zm6.872,3v-3h1.648v4.624Zm2.7,12.519V224.69H442.53a2.12,2.12,0,0,1,1.077,1.835v11.559a4.251,4.251,0,0,0,4.266,4.226h1.749a2.145,2.145,0,0,1,2.151,2.132v18.842H444.2v-7.705h0c-.017-7.315-5.993-13.466-14.14-15.369m15.659-2.126V226.526a4.137,4.137,0,0,0-.441-1.835h31.5L475.9,227.6h-2.061v-1.482h-1.2V227.6h-4.373v-1.482h-1.2V227.6H462.69v-1.482h-1.2V227.6h-.855v1.189h.855v2.789h-.855v1.189h.855v4.145h.281l-7.881,13.809v-6.284a4.25,4.25,0,0,0-4.266-4.226h-1.749a2.144,2.144,0,0,1-2.151-2.132m59-13.394h6.7V227.6h-4.128v-1.482h-1.2V227.6h-.485Zm11.209,0h5.6v17.422l-2.99-5.237h-.105v-4.1h.748v-1.189h-.748v-2.789h.748V227.6h-.748v-1.482h-1.2V227.6h-1.308Zm9.219,23.755V224.69h17.7v10.375h-1.795v1.1H540.1v.007c-6.375.07-11.685,5.407-13.038,12.534H525.3ZM8.807,226.979a3.353,3.353,0,0,1,1.215-2.568V248.02H8.807Zm128.808,12.888-.351-12.487,4.61-3.678,2.305,21.4ZM10.984,223.832a3.414,3.414,0,0,1,1.243-.24h.442v.529H10.984Zm829.843-.43v.738h-.749Zm10.171,0,.749.738H851Zm-233.518-.067h.465v2.737h-.465Zm-480.341-.423h2.985L137.2,225.24Zm384.4-.546v.533h-.71ZM427.9,222l-.3.3h-.094Zm-249.844,2.981a3.307,3.307,0,0,1,3.318-3.287h3.33v12.687a6.038,6.038,0,0,0-4.53-2.043h-2.117Zm10.877-3.287h5.256l-1.458,27.918-.656,12.579c-.724-.048-1.454-.08-2.194-.08-.318,0-.632.01-.947.02Zm7.373,0h4.707v14.948l-6.005,9.886Zm11.71,2.483V221.7h.576v2.468l-.292.481Zm7.58,12.48V221.7h4.7l1.3,24.834Zm8.272,12.953L222.417,221.7h25.238l-6.975,5.59h-.092v50.2H225.33ZM579.417,223.76a3.178,3.178,0,0,1,2.387-3.06v5.372h-2.387Zm6.754-3.179h1.945v5.491h-1.945Zm3.074,0h3.685V225.6h-1.538v-3.641h-1.1v4.111h-1.044Zm4.814,0h3.384v5.491h-1.013v-4.111h-1.1V225.6h-1.269Zm4.513,0h3.563v5.491h-3.563Zm4.692,0h3.687v5.491h-3.687Zm4.816,0h3.685v5.491H608.08Zm4.815,0h3.456v5.491h-3.456Zm286.836,5.167a5.481,5.481,0,0,1,4.584-5.374V230.6h-4.584Zm6.181-5.468h2.432v8.437L906.43,230.6h-.517Zm20.051,8.438V220.28H928.4V230.6h-.518Zm4.029-8.438h7.014v6.529a3.816,3.816,0,0,1-3.831,3.8h-3.183Zm0,51.25V232.97h3.183a6.2,6.2,0,0,0,6.219-6.161V220.28h13.549v3.379H949.8v-.794h-1.176v.794h-1.366v1.165h1.366V226.3h-1.366v1.165h1.366v2.531h-.437l-11.9,9.539h-.066v33.613Zm27.731-51.25h5.738v3.379h-5.579v-.794h-.159Zm-535.59-.548v.881h-.894Zm5.225,0,.252.248-.252.189Zm51.01-.282-1.044,3.45h-3.556Zm-341.333-.117,2.756,1.876h-2.7Zm404.514-.211,1.3.976v2.8h-6.336Zm-126.346.642.856-.643,3.369,2.528v.651h-4.224Zm14.858.621,1.685-1.264,4.236,3.179h-5.921Zm12.8,2.17,4.573-3.433,5.037,3.779h-8.858a4.262,4.262,0,0,0-.752-.346m20.26-3.433,5.036,3.779H458.083Zm47.058,0,1.242.932V222.9h-6.279Zm14.974.536.713-.536L530.9,222.9h-5.749Zm297.572,3.679h1.4v-4.607h2.342v8h-3.744Zm-392.661-5.478.189.141-.189.14ZM10.984,216.8h1.685v3.186H10.984ZM417.557,218l1.873-1.4V219.4Zm9.8.254v-2.424l1.648,1.235v1.868l-.544.408Zm-6.872-2.452,1.636-1.228.011.01v3.67l-1.647,1.624Zm95.447,5.392v-2.007a4.772,4.772,0,0,1,3.817-4.652l1.787,1.341v4.247l-3.516,2.639Zm9.219-4.852v-1.907h3.967l-3.254,2.442ZM527.362,218l4.752-3.565H535.3L540.053,218l-6.345,4.761Zm10.934-3.565h4.556V215.9l-1.3.976ZM433.244,218l6.347-4.762L445.937,218l-5.733,4.3h-1.227Zm15.686,0,6.347-4.762L461.624,218l-6.347,4.762Zm15.687,0,6.347-4.762L477.309,218l-6.346,4.762Zm36.842-4.1.878-.658L508.682,218l-4.875,3.657Zm-80.971-.935.343.338-.343.257Zm7.448,1.055,1.072-1.055v1.859Zm-12.73,2.218v-3.315h4.224v1.432l-3.369,2.526Zm12.154-3.315h.19l-.19.188Zm2.7,2.7v-2.7h6.96l-5.275,3.958Zm12.095-2.7h10.551l-5.275,3.958Zm15.687,0H468.4l-5.275,3.958Zm15.686,0h6.815l-1.1,3.627-.441.331Zm31.373,0h9.018a9.276,9.276,0,0,0-1.609,2.357l-2.133,1.6Zm-493.919-.26h1.685v3.187H10.984ZM839.422,212l1.4,1.384v8.736l-1.4,1.384ZM851,222.116V213.38L852.4,212v11.5Zm-10.92-10.76h.749v.738Zm10.92,0h.749l-.749.738Zm54.915-.167,2.432,2.4v1.962h-2.432Zm20.051,2.4,2.432-2.4v4.358h-2.432ZM576.011,210.93a4.8,4.8,0,0,1,.8-.079H581.8v8.695a4.312,4.312,0,0,0-3.516,4.215v2.312h-1.27v3.337h1.659v6.758h-2.666Zm-317.657-.155h.732l-.105,3.463h-.627Zm18.569,0h1.924v3.463h-1.819Zm3.535,0h5.921l-1.394,3.463h-4.527Zm59.6,0h5.1v3.463h-3.711Zm6.715,0h3.319v3.463H346.77Zm7.548,0h1.894v3.463h-1.894Zm3.5,0h9.442v3.463h-9.442Zm549.226-.7h1.3v1.277Zm18.916,0h1.294l-1.294,1.276Zm-729.042-.11,4.1,6.743V219.6h-4.6ZM215.6,216.7l4.086-6.728.5,9.634H215.6Zm625.225-6.99v.737h-.749Zm10.171,0,.749.738H851Zm-28.273-.4h3.744v8h-3.744Zm-811.741-.785h1.685v3.186H10.984Zm186.932-.98h3.1v5.109Zm10.106,0h.575V219.6h-.575Zm7.58,0h3.092l-3.092,5.092Zm710.362-.32,1.3,1.276h-1.3Zm-17.62,0V208.5h-1.3Zm-649.991-.051h.843l-.062,2.012h-.781Zm18.459,0h2.034v2.012h-1.974Zm3.645,0h7.371l-.809,2.012h-6.562Zm58.145,0h6.556v2.012h-5.746Zm8.167,0h3.319v2.012H346.77Zm7.548,0h1.894v2.012h-1.894Zm3.5,0h9.442v2.012h-9.442Zm581.573,2.5a3.818,3.818,0,0,1,3.831-3.8h9.719v9.671H939.4Zm18.329-3.8h5.739v9.671h-5.739ZM136.979,217.227l-.158-5.6-.114-4.044,3.2-2.175,1.606,14.9Zm-.351-12.479h1.208l-1.186.808ZM10.984,204.38h1.685v3.186H10.984Zm125.58-1.89.935.554h-.918Zm79.038-1.156,2.923,4.109H215.6Zm-14.583-.013v4.121h-2.934ZM10.984,200.242h1.685v3.186H10.984Zm811.741-.361h3.744v8h-3.744Zm16.7-1.582,1.4,1.384v8.736l-1.4,1.383ZM851,208.417v-8.735L852.4,198.3v11.5ZM415.206,198.242h6.928v12.885h-6.928Zm424.872-.584h.749v.738Zm10.92,0h.749L851,198.4Zm-818.375-.09h1.962v.6a27.062,27.062,0,0,0-1.756,2.582h-.207ZM215.6,197.7v-.768h3.406l.312,5.993Zm36.893-.768h7.013l-.263,8.64h-.891v-1.086h-1.611v1.086h-2.078v1.595h2.078v2.012h-2.078v1.6h2.078v3.5h.174l-6.648,5.328H222.309l-.74-14.159-.445-8.512h11.643l.007.005,0-.005h.941l0,.005.007-.005h17.8l.006.005,0-.005h.941l0,.005Zm37.528,0h1.923l-3.475,8.64h-8.014v-1.086h-1.611v1.086h-2.084l-.264-8.64h12.561l.007.005,0-.005h.941l0,.005Zm56.293,0h3.773v8.64H346.77v-1.086h-1.611v1.086h-7.2l-3.476-8.64h10.87l.006.005,0-.005h.942l0,.005Zm18.765,0h10.456V219.1l-6.067-4.863h-.6v-3.463h1.868v-1.6h-1.868v-2.012h1.868v-1.595h-1.868v-1.086h-1.611v1.086h-9.441v-1.086h-1.611v1.086h-1.893v-8.64h9.8l.007.005,0-.005h.941l0,.005Zm-354.1-.781h1.685v3.138H10.984Zm550.758-.547v-.884l2.713,2.426h-.3Zm-211.653-1.381v.612h-.852Zm-131.227-.088.037.7h-1.014Zm338.367-.023v1.422l-2.526,1.611h-.865Zm-524.606-.684h1.961v3.186H32.623Zm-21.639-1.416h1.685V195.2H10.984Zm248.681-.227-.094,3.05h-4.157ZM136.507,200.47l-.217-7.7,2.116-1.256,1.16,10.772Zm71.514-8.991.284-.4.292.412v13.95h-.576Zm12.88,1.19,2.965-2.127,5.981,4.293h-8.832Zm21.728-2.127,5.983,4.293H236.649Zm33.758,2.707,3.772-2.707,5.981,4.293h-9.7Zm56.544-.18,3.522-2.527,5.981,4.293h-8.792Zm21.387-1.881.9-.646,5.981,4.293h-6.88Zm19.664-.646,1.555,1.116v3.176H368Zm448.742,4.313h1.4v-4.4h2.342v8h-3.744ZM851,190.192h7.687v38.494h-.508l-.583,14.47h-4.27V196.743H851Zm12.732,0H871.2v59.575h-.726v-2.314a4.322,4.322,0,0,0-4.337-4.3h-1.209l-.582-14.47h-.617Zm141.69-.488h2.76v10.012a3.793,3.793,0,0,1-2.76,3.624Zm0,16.075a6.183,6.183,0,0,0,5.147-6.063V189.7h3.337V210.08a5.5,5.5,0,0,1-5.519,5.467h-2.966Zm0,14.5h2.966a10.259,10.259,0,0,0,10.3-10.2V189.7h4.531v33.955h-.7v-.794h-1.178v.794h-6.9v-.794h-1.176v.794h-6.9v-.794h-.935Zm-47.7-26.848A3.858,3.858,0,0,1,961.6,189.6h1.866V203.51h-5.738Zm-925.1-4.14h1.961v3.186H32.623Zm188.048-1.041,1.394,1-1.292.928Zm-209.688-.376h1.685v3.186H10.984Zm265.246.163-.011-.322,2.139,1.534-2.047,1.47Zm629.683-.577,2.432,2.4v15.131l-2.432,2.4Zm20.051,17.529V189.856l2.432-2.4v19.925Zm-372.412-17.6,3.677,3.29v2l-4.178,3.738Zm8.19,5.894v-3.211l3-2.683.5,9.025Zm126.1-6.236h3.97v2.859h-1.4v4.947h1.4v23.531h-1.4v4.948h1.4v15.379h-3.021L687.2,191.426h-5.717l-1.568,46.592-1.422-1.183-2.259,1.88H675V223.336h1.4v-4.948H675V194.857h1.4V189.91H675v-2.859h11.843l.067.041.026-.041h.81l.026.041Zm67.968,0h9.865v2.859h-1.4v4.947h1.4v23.531h-1.4v4.948h1.4v14.308l-.975-.81-2.259,1.88h-.2l-1.591-47.289h-5.719l-1.591,47.289h-4.472V223.336h1.4v-4.948h-1.4V194.857h1.4V189.91h-1.4v-2.859h5.947l.066.041.027-.041h.809l.027.041Zm67.063,0h3.6v1.983h-3.744v-1.983h.052l.066.041Zm-268.4-.268h2.757v2.468Zm7.27,0h2.079l-2.079,1.86Zm345.306-.435h1.3v1.277Zm18.916,0h1.294l-1.294,1.276Zm-595.892-.386,4.58,3.286-2.528,1.814Zm-297.449-.811h1.961v3.186H32.623Zm182.979-.54,2.871,2.06.258,4.97-3.129,2.246Zm476.206-.079v.282h-.446Zm-129.784-.189,1.7,1.379h-1.96a4.686,4.686,0,0,1,.265-1.379M225.668,189.25l7.581-5.44,7.579,5.44-7.579,5.441Zm18.765,0,7.58-5.44,7.58,5.44-7.58,5.441Zm37.528,0,7.58-5.44,5.964,4.28-1.312,3.264-4.651,3.337Zm56.294,0,7.58-5.44,4.254,3.053v4.775l-4.254,3.053Zm18.764,0,7.58-5.44,7.58,5.44-7.58,5.441ZM10.984,183.735h1.685v3.186H10.984Zm206.616-.276h.7l.028.526Zm2.932,2.1-.111-2.1h9.711l-6.266,4.5Zm15.832-2.1H248.9l-6.267,4.5Zm18.764,0h4.791l-.1,3.363Zm21.01,1.611-.049-1.611h10.336l-6.267,4.5Zm16.519-1.611h4.711l-1.055,2.623Zm37.528,0h12.532l-6.266,4.5Zm18.765,0h1.137v.816Zm5.367,3.851v-3.851h7.166l-6.267,4.5Zm13.4-3.851h7.822v3.38l-1.555,1.117Zm381.146-.182,2.424,1.537h-2.424Zm-191.237-.038a9.141,9.141,0,0,0-.388,2.482h-2.663Zm4.871.113a4.775,4.775,0,0,1,1.927-1.708l.19,3.431Zm2.981-2.091a4.805,4.805,0,0,1,1.062-.126H581.8v27.48H576.81a7.49,7.49,0,0,0-.8.047V204.7H576l-9.559-6.1-.081-1.453-.633-11.424h0Zm20.693-.126h18.455v22.739a4.767,4.767,0,0,1-4.784,4.741H586.171Zm0,29.715h13.671a7.016,7.016,0,0,0,7.04-6.977V181.135h11.064v3.68h-2.389v2.237h2.389v2.859h-1.4v4.947h1.4v23.531h-1.4v1.075H586.171Zm236.554-26.486v-3.33h3.744v3.78h-3.033Zm-790.1-3.351h1.961V184.2H32.623Zm733.049-.221v4.022h-6.343ZM136.144,187.57l-.176-6.3,1.265-.666.86,7.987ZM675,180.824l1.013-.644,7.307,4.634H675ZM10.984,179.6h1.685v3.187H10.984Zm543.1-1.719,4.224,3.438-4.623,3.762Zm-355.46-.406,2.4,3.372v16.842l-3.728,5.238ZM215.6,180.83l2.39-3.358.2,3.892H215.6Zm339.5-3.5h7.98A9.339,9.339,0,0,0,559,180.5Zm-522.476-.409h1.961v3.138H32.623Zm-21.639-1.465h1.685v3.186H10.984Zm188.776-.019h1.259v1.767Zm8.262,11.61V175.44h.576v11.6l-.292.411Zm7.58-11.61h1.249l-1.249,1.755Zm343.545-2.113,3.944,2.943H555.2ZM678.1,178.854,687.339,173l4.469,2.835v6.048l-4.469,2.833Zm70.759,1.771v-3.54L755.308,173l9.235,5.858-9.235,5.858Zm-716.239-7.84h1.961v3.187H32.623ZM675,176.886v-4.211h8.665l-7.652,4.853Zm16.018-4.211h.791v.5Zm57.846,0h2.768l-2.768,1.756Zm10.123,0h6.687v4.24Zm63.74.67,1.056-.67h2.688v6.935h-3.744ZM215.6,172.029l1.074,1.315H215.6Zm-14.583-.011v1.326h-1.083Zm-190.035-.7h1.685v3.186H10.984Zm452.625,36.517a6.522,6.522,0,0,0,6.44-6.588V173.475a2.924,2.924,0,0,1,2.826-3.007h10.212v33.391l-2.2,7.268H427.359V198.242h3.575a2.925,2.925,0,0,1,2.826,3.007,6.522,6.522,0,0,0,6.44,6.588Zm34.813-3.978V170.468h20.292a2.923,2.923,0,0,1,2.825,3.007v36.488h-.806a9.328,9.328,0,0,0-4.517,1.164H500.621Zm56.1-33.984,3.735,2.786-4.058,3.028Zm5.517,2.786,3.733-2.787.323,5.815Zm-4.4-3.28h7.007l-3.5,2.615Zm-523.02-.736h1.961v3.186H32.623Zm-21.639-1.465h1.685v3.187H10.984Zm177.954,2.9a3.415,3.415,0,0,1,3.427-3.395h4.7l-.347,6.657-1.675,32.1L194.3,219.6h-5.365Zm10.244-3.395h1.837v2l-2.074,2.541Zm8.84,0h.575v6.657h-.575Zm7.58,2.01v-2.01h1.827l.237,4.539Zm4.292,4.647-.347-6.657h22.112a3.415,3.415,0,0,1,3.428,3.395,7.629,7.629,0,0,0,7.656,7.585h7.352l-.045,1.525-.066,2.172h-39.67Zm339.253-7.366,3.4,2.341H555.75ZM32.623,164.507h1.961v3.186H32.623ZM554.9,163.05l3.307,2.281-3.571,2.461Zm5.184,2.281,3.307-2.281.263,4.743Zm-549.1-2.288h1.685v3.186H10.984Zm545.143-.441h6.041l-3.02,2.083Zm-523.5-2.234h1.961v3.186H32.623Zm362.409-.414,6.331,5.418h-.358l-5.543-3.381h-.181l-5.543,3.381H388.7Zm164.115-.281,2.913,1.866h-5.825ZM10.984,158.9h1.685v3.186H10.984Zm544.243-1.741,2.933,1.878-3.148,2.016Zm4.909,1.878,2.933-1.878.215,3.894Zm-3.575-2.29h5.175l-2.588,1.658Zm-491.9,2.2a2.352,2.352,0,0,1,2.36-2.337H121.21l-.365,12.981-16.27-8.705h-.265L75.7,176.2h-.022v11.066a39.112,39.112,0,0,0-6.559-1.573v-5.116H64.658Zm70.615-2.337H149.32a2.35,2.35,0,0,1,2.358,2.337V261.869h-3.964L146.028,246.2l-2.693-24.994-1.957-18.164-1.485-13.8-1.168-10.835h-2.837Zm-102.65-.387h1.961v3.187H32.623Zm-21.639-1.463h1.685v3.186H10.984Zm377.341-.55,5.748,4.918-6.348,5.431Zm7.668,4.918,5.747-4.918.6,10.347Zm163.155-4.928,2.479,1.483h-4.958Zm47.734,4.345a4.46,4.46,0,0,1,4.475-4.433h6.589v7.313h-1.4v4.948h1.4v4.062h-2.389v2.235h2.389v3.989H606.881ZM675,154.118h2.026a4.459,4.459,0,0,1,4.473,4.433,6.705,6.705,0,0,0,6.73,6.667h2.179v1.161h1.4v4.062H675v-4.062h1.4v-4.948H675Zm-285.541-.576h11.149l-5.575,4.77Zm621.109,3.573a3.8,3.8,0,0,1,3.337-3.746v31.6h-3.337Zm8.115-3.794h4.531v31.65h-4.531ZM199.907,152.8l1.112,1.362V162.5H199.4Zm15.7,1.35,1.1-1.35.506,9.7H215.6ZM32.623,152.091h1.961v3.186H32.623Zm522.889-.06,2.6,1.554-2.777,1.66Zm4.673,1.554,2.6-1.555.179,3.215Zm-3.235-1.936h4.4l-2.2,1.314Zm-348.927,7.758v-8.351h.576v8.34l-.292.358ZM10.984,150.627h1.685v3.186H10.984Zm384.048-2.569,5.447,4.241H389.585Zm-362.409-.106h1.961v3.186H32.623Zm716.239,18.426h1.4v-1.161h2.075a6.705,6.705,0,0,0,6.73-6.667v-8.325a4.46,4.46,0,0,1,4.475-4.433h2.128v15.638h-1.4v4.948h1.4v4.062H748.862Zm73.863-20.586h4.929a4.459,4.459,0,0,1,4.474,4.433v33.3a6.706,6.706,0,0,0,6.73,6.667h1.969v6.551H838.5v46.413H827.9V168.249h-1.436v1.938h-3.744v-3.808h1.4v-4.948h-1.4Zm-790.1-1.98h1.961V147H32.623Zm356.333-.486,5.062,3.94-5.541,4.313Zm7.092,3.94,5.062-3.94.477,8.254Zm-5.836-4.542h9.642l-4.82,3.752Zm-182.189-.97.284-.307.292.318v7.2h-.576Zm-175.4-2.08h1.961v3.186H32.623Zm362.409-1.544,4.691,3.35H390.34Zm-362.409-2.6h1.961v3.187H32.623Zm243.3,42.365-.006-.235h4.83a7.63,7.63,0,0,0,7.657-7.585V138.3a3.415,3.415,0,0,1,3.427-3.4h9.722v38.167l-3.337,8.3H276.026Zm48.965-4.834V134.9h21.777a3.416,3.416,0,0,1,3.428,3.4v43.066H328.221Zm64.6-38.9,4.473,3.2-4.859,3.47Zm6.619,3.2,4.473-3.2.386,6.665Zm-5.237-3.74H399.2l-4.163,2.974ZM215.6,146.267V133.522l.092-.1.715,13.72Zm-14.684-12.845.1.11v12.725l-.818.887Zm7.1,4.61V131.91h.576v6.111l-.292.317ZM32.623,131.4h1.961v3.186H32.623Zm362.409-1.675,4.032,2.66H391Zm-5.095-3.36,3.962,2.614-4.276,2.82Zm6.227,2.614,3.962-2.614.314,5.434Zm-4.716-3.11h7.166l-3.582,2.363Zm3.584-3.357,3.449,2.114h-6.9Zm623.65,4.329a5.5,5.5,0,0,1,5.52-5.468h17.463a5.5,5.5,0,0,1,5.519,5.468v5.454l-23.951,12.815h-.02v5.847h-4.531Zm-628.354-7.211,3.51,2.151-3.768,2.309Zm5.9,2.151,3.511-2.151.258,4.46Zm-4.256-2.608h6.125l-3.062,1.877ZM648.4,125.2v-2.723a6.092,6.092,0,0,1,6.113-6.056h57.523a6.1,6.1,0,0,1,6.069,5.369c-.016.227-.035.454-.035.687v2.9l-26.24,14.04h-.022v22.011h-1.4v1.552h-2.179a4.459,4.459,0,0,1-4.474-4.433,6.706,6.706,0,0,0-6.729-6.668H675V139.42h-.023Zm73.708-.084v-2.639c0-.233-.019-.46-.036-.687a6.1,6.1,0,0,1,6.07-5.369h57.888a6.092,6.092,0,0,1,6.112,6.056v2.792L765.694,139.42h-.022v4.138h-2.128a6.707,6.707,0,0,0-6.731,6.668v8.325a4.459,4.459,0,0,1-4.474,4.433h-2.075v-1.552h-1.4V139.42h-.024Zm-327.075-8.864,2.928,1.675H392.1Zm-4.365-2.5,3.109,1.779-3.322,1.9Zm5.619,1.779,3.109-1.779.213,3.68Zm-3.844-2.2h5.18l-2.59,1.482ZM301.549,60.181v70.53h-9.722a7.63,7.63,0,0,0-7.656,7.586v31.785a3.416,3.416,0,0,1-3.428,3.4h-4.957l-.174-5.707-.265-8.7-.277-9.09-.218-7.192-.232-7.617-.2-6.6-.2-6.7-.177-5.83-.135-4.44H262.108l-.136,4.44-.177,5.83-.2,6.7-.2,6.6-.232,7.617-.23,7.542-.267,8.74-.265,8.7-.173,5.707h-7.481a3.415,3.415,0,0,1-3.427-3.4,7.63,7.63,0,0,0-7.657-7.585h-22.33l-.707-13.534-1-19.148H215.6V88.307h-7v41.509h-.576V88.307h-7v41.509h-2.03l-1,19.149h0l-.706,13.533h-4.918a7.629,7.629,0,0,0-7.656,7.585V219.6h-3.33a5.414,5.414,0,0,0-5.432,5.383v7.357h-8.936a6.036,6.036,0,0,0-5.487,3.509,5.535,5.535,0,0,0-4.926,5.46v20.559h-2.036V158.953a5.223,5.223,0,0,0-5.241-5.192H135.194l-.043-1.5-.2-7.051-.243-8.668-.075-2.668-.3-10.466H122.145l-.294,10.466-.076,2.668-.244,8.668-.2,7.051-.042,1.5H67.018a5.223,5.223,0,0,0-5.242,5.192v21.625H56.988v5.116a37.441,37.441,0,0,0-14.1,5.077V128.019H34.585v2.427H32.623v-.688h-.962V202.95A23.38,23.38,0,0,0,29.4,212.9h0v44.987H27.773a18.3,18.3,0,0,0-5.261-6.237V248.02H20.976V223.592h8.417v-2.855H20.976V147.572H12.668v2.1H10.984v-.688h-.961v72.151a6.25,6.25,0,0,0-4.1,5.841v21.04H.46v3.628c-.158.119-.3.253-.46.376V467.61H1055V134.27l-3.038-1.625v-5.806a10.261,10.261,0,0,0-10.3-10.2H1024.2a10.262,10.262,0,0,0-10.3,10.2v24.14a6.189,6.189,0,0,0-5.724,6.136v27.856h-2.76V107.548h-.017L984.538,96.384h-.194L963.48,107.548h-.018v77.315H961.6a8.62,8.62,0,0,0-8.651,8.568V203.51h-9.719a6.2,6.2,0,0,0-6.219,6.161v5.876h-7.014V184.768h-4.029V61.938h-17.62v122.83h-4.029v30.826a10.25,10.25,0,0,0-9.362,10.154V230.6h-6.288V136.615H871.2v51.343h-7.472V95.744h-5.045v92.214H851V107.641H840.827v80.316h-1.969a4.458,4.458,0,0,1-4.473-4.433v-33.3a6.707,6.707,0,0,0-6.731-6.668h-4.929V139.42H822.7l-26.6-14.233v-2.709a10.037,10.037,0,0,0-10.072-9.979H728.141a10.085,10.085,0,0,0-8.053,4.01,10.082,10.082,0,0,0-8.053-4.01H654.513a10.037,10.037,0,0,0-10.072,9.979v2.777L617.967,139.42h-.022v12.463h-6.589a6.707,6.707,0,0,0-6.731,6.668v18.114H586.171v-6.641H581.8v6.641H566.54a9.541,9.541,0,0,0-1.312.1l-.026-.5h0l-.441-7.951-.375-6.78-.325-5.85-.282-5.1h-9.262l-.283,5.1-.324,5.85-.376,6.78-.441,7.951-.523,9.453-.634,11.424-.1,1.83-8.971,5.72h-.013v5.267h-17.7V173.475a6.522,6.522,0,0,0-6.44-6.588H498.421v-61.67H483.087v61.67H472.874a6.523,6.523,0,0,0-6.441,6.588v27.774a2.925,2.925,0,0,1-2.825,3.008H440.2a2.925,2.925,0,0,1-2.826-3.008,6.523,6.523,0,0,0-6.44-6.588h-3.575V134.348h-5.225v60.314h-6.928V174.027h-.016l-11.451-6.986-.025-.425-.757-13.073h0l-.627-10.817-.526-9.1-.45-7.759-.387-6.7-.41-7.079H389.508l-.41,7.079-.388,6.7-.449,7.759-.526,9.1-.627,10.817-.759,13.073-.05.855-10.745,6.556h-.016v7.337H354.319V138.3a7.631,7.631,0,0,0-7.657-7.586H324.884V60.181Z" transform="translate(0 -39.26)" opacity="0.1" fill="url(#linear-gradient)" style="mix-blend-mode: screen;isolation: isolate"/>
    <path id="Path_10972" data-name="Path 10972" d="M820.051,373.149h2.8v8.4h-2.021v-4.042h-.781Zm0-9.9h2.8v8.4h-2.8Zm0-9.895h2.8v8.4h-2.8Zm50.258,0h.78v3.629h-.78Zm2.172,0h.585v3.629h-.585Zm0-1.516h.585v.021h-.585Zm2.094,0h1.391a12.033,12.033,0,0,0-.34,2.778h0v2.366h-1.05Zm35.466,0h4.975l.267,5.144h-4.9v-2.366h0a12.033,12.033,0,0,0-.34-2.778m6.369,0h9.974v5.144h-9.706Zm-358.154-.21.133,2.29h-1.748Zm-438.125-.377,1.234,1.217v.244l-1.234.25Zm.577-.564h.657v.648Zm9.6,0h.657l-.1.1-.558.113Zm425.811-.091h1.557l-1.367,1.939Zm-434.75-1.359v.649h-.657Zm8.939,0,.657.649h-.657Zm569.221.96v-2.254h6.046v3.111Zm11.484,1.627v-3.882H713.4v4.221Zm7.831,1.11v-4.992h15.275V355.1Zm29.4,4.166L736,355.373v-7.425h19.5l-.271,8.023H755.2l-4.816,4.968h-.035v11.8H747.2V360.825l1.04.147Zm19.823-9.158h13.22v24.792H773.22v-11.8h-.036l-4.816-4.968h-.033Zm51.986,0h2.8v3.916h-2.8Zm4.31,0h7.182v29.56h-.781v4.373h-6.4ZM555.8,347.372l1.776,2.162h-1.563Zm178.317-2.9v.157H733.9Zm-23.107-.052.292.209h-.292Zm-155.4,1.041-.115-1.166h2.335l.241,4.163Zm3.663,5.144-.366-6.311h2.508v9.633h-1.949Zm-442.887-2.1v-4.372h2.934v9l-1.662.337Zm3.744-4.372h1.234v3.983l-1.234,1.216Zm10.173,3.983v-3.983h1.234v5.2Zm2.045-3.983h8.88v4.561l-8.88,1.8Zm9.689,0h1.234v3.983l-.209.206-1.025.208Zm14.1,4.944v-4.944h8.179l-.634,6.473Zm549.432-5.483v1.037h-1.444Zm114.478-.123h1.913l-1.617,1.16h-.3Zm50.258,0h.78v8.4h-.78Zm2.172,0h.585v7h-.585Zm-91.2-.8v1.962h-2.734Zm-13.4-.162,2.959,2.124h-2.889ZM722.6,342.05l3.587,2.574h-7.175Zm13.4,1.065,1.483-1.065,3.586,2.574H736Zm16.367-1.065,3.248,2.331-.008.244h-6.827Zm71.991,1.745,2.432-1.745,3.588,2.574h-6.02Zm-314.692.36,1.576-2.236,8.133,11.53-.521,5.321h-.464a26.287,26.287,0,0,0-8.724-14.616M736,340.985l.054.039-.054.039Zm88.358-.68,1,.719-1,.719Zm-199.151-.649,7.4,4.772-.071,4.666-7.9,1.12ZM753.8,341.023l1.978-1.42-.093,2.774Zm-34.958-1.671,2.328,1.671-2.328,1.671Zm-598.709-.136,1.234,1.217v1.508h-1.234Zm10.173,1.217,1.234-1.217v2.725h-1.234Zm11.734-1.217,1.234,1.217v1.508H142.04Zm504.731,4.729,7.386-4.737.366,6.769-7.7,1.092ZM120.71,338.652h.657v.647Zm9.6,0h.657l-.657.647Zm12.311,0h.657v.648Zm685.606,2.371,3.32-2.383v4.766Zm-201.559-2.6H632.7l-.058,3.856Zm20.022,0h5.319l-5.269,3.377Zm64.324,3.939v-2.678l2.393-1.716v6.111Zm-11.484-5.1h1.517l4.529,3.25v1.025l-4.3,3.087h-1.743Zm4.376,0h1.67v1.2Zm7.108,0h.519l-.519.372Zm7.831.04v-.04h7.572L722.6,340Zm5.188,3.723,5.242-3.763h1.541l3.3,2.371v2.782l-3.077,2.21h-1.993Zm9.643-3.763h.444v.319ZM736,338.933v-1.672h5.3L737.486,340Zm2.912,2.09,5.242-3.763H745.7l5.242,3.763-5.016,3.6h-1.993Zm9.643-3.763h7.3l-.007.239-3.48,2.5Zm19.149,0h3.361l-3.282,2.356Zm.978,3.763,5.242-3.763h1.54l5.242,3.763-5.016,3.6H773.7Zm9.642-3.763h2.959v2.124Zm41.725,0h.07l2.732,1.962v2.747h-2.8Zm4.31.992v-.992h6.246L826.793,340ZM121.367,337.2v.647h-.657Zm8.939,0,.657.647h-.657Zm12.968,0v.647h-.657Zm752.56,3.345.266-5.088,2.906,5.777a20.2,20.2,0,0,0-3.171-.689m14.1,3.315,4.227-8.4.783,15.006h-5.01Zm-89.883-10.294h2.8v.37h-2.8Zm50.258,0h.78v8.4h-.78Zm2.172,0h.585v8.4h-.585Zm24.184-.077h3.667v7.291Zm8.28,10.78v-10.78h.379V344.56c-.122-.1-.254-.192-.379-.289m4.989-10.78H913.6l-3.661,7.279Zm-263.337-.9,5.763,4.017h-5.7Zm-255.563-.056h1.658v2.249c-.523-.772-1.073-1.526-1.658-2.249m241.762-.066-.063,4.139h-5.788Zm-52.341-2.61h8.59l-.145,4.3-.665,19.769h-7.781Zm25.17,4.3-.146-4.3h6.18v22.2l-5.408.766Zm7.919-4.3H623.9l-1.118,20.621-9.24,1.31Zm12.2,0h7.095l-.006.35-7.39,5.229Zm20.823.484-.007-.484h7.094l.3,5.636Zm8.926-.484h18.079a9.73,9.73,0,0,0-1.583,5.246h0v11.2l-9.822-1.392-.042-.005-.032,0-5.74.813ZM554.4,333.049V331.8l2.534-3.086.793,13.711h-2.409Zm0-5.207h1.862l-1.862,2.267Zm-42.246,12.8,9.228-13.085v5.5L519.6,351.2ZM142.04,327.177l1.234,1.217v7.676l-1.234,1.216Zm-21.907,0,1.234,1.217v7.677l-1.234,1.216Zm10.173,8.894v-7.678l1.234-1.217v10.109Zm-9.6-9.459h.657v.648Zm9.6,0h.657l-.657.648Zm12.311,0h.657v.648Zm767.317-.353,3.554,5.853h-3.554Zm-9.6-.009v5.862h-3.56Zm-780.2-1.038h.035l-.035.034Zm1.185,0h.05v.6h-.657Zm8.989,0h.05l.608.6h-.657Zm1.2,0h.035v.034Zm.845,0h8.88V341.94h-8.88Zm9.689,0h.036l-.036.034Zm1.185,0h.05v.6h-.657Zm12.916,0h10.033l-1.639,16.73h-8.394Zm716.341,1.434a2.231,2.231,0,0,1,.587-1.5v6.926h-.587ZM554.4,324.9l1.759,1.877H554.4Zm491.511-.037v.58h-.589Zm3.438,0,.59.58h-.59Zm-174.769-.458a1.833,1.833,0,0,1,.186-.019h4.65a4.1,4.1,0,0,1,1.62,3.247v16.659a14.209,14.209,0,0,0-4.645,6.171h-1.811Zm-489.34,2.531v-2.782h10.892l-3.392,3.5h-.044v3.3H389.67a32.761,32.761,0,0,0-4.433-4.013m32.018-2.782h2.718v2.782l-.012.009Zm41.919,2.782v-2.782h9.186l-.076,2.267h-.033l-4.388,4.529h-.256a32.82,32.82,0,0,0-4.433-4.013m21.876-2.782h11.773v15.464h-6.91V331.29h-.035l-4.719-4.868h-.033Zm13.978,0h1.519l-.895,15.464h-.625Zm3,0h.684l11.626,16.483-1.843,2.613a19.092,19.092,0,0,0-11.048-3.632h-.316Zm2.492,0h20.853v.836l-10.132,14.365Zm319.527-.48h2.8v8.4h-2.8Zm50.258,0h2.344a3.62,3.62,0,0,0-1.565,2.97v5.429h-.78Zm-45.948-.178h7.182v10.44h-7.182Zm-210.818,3.362a5.458,5.458,0,0,1,5.477-5.424h5.337L624,327.987H613.544Zm12.654-5.424h4.4l2.346,1.635-.075,4.918h-7.022Zm20.25,1.371,1.939-1.371h4.808l.354,6.552h-7.021Zm8.586-1.371H676.8l-1.945,1.3h-.126v5.253H655.387Zm39.679,0h10.862v12.5h-6.122a10.239,10.239,0,0,0-2.679-5.6h.01v-5.606h-.127Zm16.3,0H713.4v12.5h-2.393Zm7.831,0h9.8a5.457,5.457,0,0,1,5.476,5.424v7.078H718.842Zm-604.984,8.118-.223-8.43a5.994,5.994,0,0,0,5.688,4.089v16.73h-2.934V331.53h-.063Zm935.487-5.663v-2.416l1.086-1.068v4.554Zm-4.523-3.486,1.084,1.069v2.417l-1.084,1.068Zm.5-.483h.589v.579Zm4.027,0h.59l-.59.58ZM32.6,319.9h.675v2.438H32.6Zm1.808,0h6.648v2.438H34.408Zm7.782,0h6.649v2.438H42.189Zm47.962,0h5.374v2.438H90.152Zm6.508,0h6.648v2.438H96.66Zm949.247-1.251v.579h-.589Zm3.438,0,.59.58h-.59Zm-422.989-.168,1.555,1.084H626.3Zm278.589.174.186-.306.193.316v13.446h-.379Zm-251.93-.5.077,1.408h-2.067Zm-25-.743h5.009l-.034,2.151H631.1Zm18.348,0h4.543l-3.041,2.151H646.4ZM32.6,317.364h.675v1.416H32.6Zm1.808,0h6.648v1.416H34.408Zm7.782,0h6.649v1.416H42.189Zm47.962,0h5.374v1.416H90.152Zm6.508,0h6.648v1.416H96.66Zm944.685-1.855h2.78v10.412a14.189,14.189,0,0,0-2.78.952Zm3.477,0h1.084v2.169l-1.084,1.069Zm4.523,2.169v-2.169h1.086v3.237Zm-929.212-2.541,1.234,1.217v6.577h-1.234Zm10.173,1.217,1.234-1.217v7.794h-1.234Zm11.734-1.217,1.234,1.217v6.577H142.04Zm-21.33-.564h.657v.647Zm9.6,0h.657l-.657.647Zm12.311,0h.657v.648Zm677.434-.793h2.8v7.85h-2.8Zm50.258,0h2.759v7.85H870.31Zm12.607,13.855a5.937,5.937,0,0,0-1.374-3.8,2.517,2.517,0,0,0,.982-1.983v-6.957a1.164,1.164,0,0,1,1.168-1.159h5.9v26.887a19.329,19.329,0,0,0-6.679,2.388Zm9.462-13.9h3.461l-.959,18.379h0l-.431,8.288c-.478-.031-.956-.059-1.443-.059h0c-.211,0-.414.02-.625.025Zm4.855,0h3.1v9.841l-3.952,6.508Zm7.711,1.636v-1.636h.379v1.625l-.193.317Zm4.989,8.216v-9.852h3.093l.854,16.351Zm4.487-9.852h16.615l-4.591,3.68h-.06v33.052H916.339l-.958-18.352h0Zm130.9-.024h.589v.42h-.161Zm4.027,0h.59l-.427.42h-.163Zm-927.978-.585v.647h-.657Zm8.939,0,.657.647h-.657Zm12.968,0v.647h-.657Zm-53.122-.135h14.383l-.084,3.254h-.009v-.765h-1.133v.765H96.66v-.765H95.526v.765H90.152Zm25.484,6.288v-6.288h3.687v9.943a3.676,3.676,0,0,1-3.687-3.655m4.5-6.288h.222l-.222.217Zm11.186,0h.222v.217Zm1.032,0h8.88v9.944h-8.88Zm9.689,0h.222l-.222.217Zm903.867-.55v.579h-.589Zm3.438,0,.59.58h-.59Zm-403.07-.823,5.364,3.981h-5.3Zm-13.16-.048-.061,4.029h-5.288ZM554.4,323.333v-7.824h1.158v-4l.358-.381.852,14.731Zm-12.9-12.2.105.112h-.113Zm.769-.746h12.879l-.8.858H543.068Zm502.559-2.4,1.084,1.068v2.417l-1.084,1.069Zm4.523,3.486v-2.416l1.086-1.069v4.554Zm-4.027-3.97h.589v.58Zm4.027,0h.59l-.59.58Zm-111.266-.954h.483l-.07,2.28h-.414Zm12.225,0h1.268v2.28h-1.2Zm2.327,0h3.9l-.917,2.28h-2.981Zm39.237,0h3.362v2.28h-2.445Zm4.42,0h2.186v2.28h-2.186Zm4.97,0h1.248v2.28h-1.248Zm2.306,0h6.216v2.28h-6.216Zm-105.927-.531,2.694,4.439v1.9h-3.026Zm12.3,4.429,2.69-4.431.331,6.343h-3.022Zm-398.688-4.957,10.131,12.339v2.5H499.066ZM898.29,304.41h2.042v3.363Zm6.655,0h.379v7.942h-.379Zm4.989,0h2.036l-2.036,3.354Zm28.145-.245h.555l-.039,1.326h-.516Zm12.154,0h1.34v1.326h-1.3Zm2.4,0h4.854l-.534,1.326h-4.32Zm38.281,0h4.318v1.326h-3.785Zm5.376,0h2.186v1.325h-2.186Zm4.97,0h1.248v1.325h-1.248Zm2.306,0h6.216v1.325h-6.216Zm-183.514-.282h2.8v8.4h-2.8Zm50.258,0h2.759v8.4H870.31ZM548.7,303.3l6.336,6.018h-12.67Zm-418.4,1.014,1.234-1.216v5.33h-1.234Zm21.908,6.128v-6.128l1.234-1.216v8.446a10.182,10.182,0,0,0-1.234-1.1M142.04,303.1l1.234,1.217v4.115H142.04Zm-21.907,0,1.234,1.217v4.116h-1.234Zm.578-.562h.656v.646Zm9.6,0h.657l-.657.647Zm12.312,0h.656v.646Zm9.6,0h.657l-.657.647Zm-39.094-.944a3.556,3.556,0,0,1,.215,1.178v5.661H113.3Zm300.885-1.07H437.56v.917h-2.236V309.1h.036l-15.307,7.211h-.081v4.007h-5.3Zm27.966,0h27.184l-.052,1.549-.615,18.249h-9.315V316.31h-.08L443.786,309.1h.036v-2.745h2.237v1.317a.756.756,0,0,0,1.512,0v-4.133a.756.756,0,0,0-1.512,0v1.317h-2.237v-3.42h-1.85Zm38.338,1.553-.053-1.553h7.838a4.712,4.712,0,0,1,4.73,4.683v15.114h-11.9Zm429.625-1.748,1.925,2.7h-1.925Zm-9.6-.008v2.713H898.4Zm-810.181-1.2H104.9l-.246,9.315h-14.5Zm537.333-1.452,5.778,4.29-.113,7.3-6.561,4.945Zm282.45.271v-.5h2.242l.206,3.943Zm24.288-.5h4.618l-.173,5.688h-.588V302.4H937.02v.715h-1.368v1.049h1.368v1.326h-1.368v1.049h1.368v2.3h.114l-4.376,3.508H914.35l-.486-9.322h0l-.291-5.6h7.666l0,0,0,0h.619l0,0,0,0h11.722l0,0,0,0h.62v0Zm24.707,0H960.2l-2.288,5.688h-5.276V302.4h-1.059v.715H950.2l-.173-5.688h8.27l0,0,0,0h.619v0Zm37.062,0h2.484v5.688h-2.186V302.4h-1.058v.715h-4.74l-2.289-5.688h7.156l.005,0,0,0h.619l0,0Zm12.353,0h6.884v14.594l-3.994-3.2h-.392v-2.28h1.231v-1.049h-1.231v-1.326h1.231v-1.049h-1.231V302.4h-1.06v.715h-6.216V302.4h-1.059v.715h-1.247v-5.688h6.452l.005,0v0h.619l0,0Zm-362.1,11.887-.116-7.552,5.769-4.347.908,16.77Zm-103.94-12.1,5.625,5.344-6.28,5.966Zm7.179,5.344,5.626-5.344.655,11.31Zm-6.312-6h11.07l-5.536,5.257Zm85.687-.159h4.493l-.052,3.3Zm17.188,0H650.2L646.09,299.5Zm352.432-.762v.4h-.562Zm-86.4-.059.023.461h-.666Zm26.864-1.548-.061,2.009h-2.738Zm-118.892-.051h2.8v8.4h-2.8Zm50.258,0h2.759v8.4H870.31Zm34.636-.15.186-.261.193.271v9.184h-.379Zm8.479.785,1.952-1.4,3.937,2.826H913.5Zm14.3-1.4,3.937,2.826h-7.876ZM949.954,295l2.483-1.782,3.938,2.826h-6.39Zm37.226-.118,2.318-1.664,3.939,2.826h-5.79Zm14.08-1.239.592-.425,3.939,2.826h-4.531Zm12.946-.425,1.023.735v2.091h-4.962Zm-100.933-1.51.918.658-.851.611Zm-413.36-.029,10.379,12.638-11.954,14.557ZM512.2,304.32l10.378-12.638,1.132,19.559h-3.492v2.844Zm437.641-12.961,1.408,1.011-1.348.969ZM645.96,291l4.372,3.59h-4.316Zm-12.529-.029-.055,3.619H629.1Zm-84.727-.113,5.428,4.645H543.276Zm-47.862-.371h20.81l-10.4,12.673Zm484.455-.279,3.015,2.163-1.664,1.195Zm-75.362-.891,1.89,1.356.171,3.275-2.06,1.479Zm6.628,3.054,4.99-3.582,4.991,3.582-4.991,3.583Zm37.061,0,4.99-3.582,3.927,2.819-.864,2.148-3.063,2.2Zm49.415,0,4.99-3.582,4.991,3.582-4.991,3.583Zm-74.123,0,4.99-3.583,4.992,3.583-4.992,3.584Zm61.769,0,4.991-3.583,2.8,2.011v3.145l-2.8,2.011Zm-79.434-3.812h.463l.018.345Zm1.93,1.385-.072-1.385H919.5l-4.125,2.961Zm10.423-1.385h8.251l-4.125,2.961Zm12.354,0h3.153l-.068,2.215Zm13.832,1.061-.032-1.061h6.8l-4.125,2.961Zm10.875-1.061h3.1l-.7,1.727Zm24.708,0h8.251l-4.126,2.961Zm12.354,0h.749v.537Zm3.533,2.536v-2.536h4.718l-4.126,2.961Zm8.82-2.536h5.149v2.226l-1.023.735Zm-322.443,7.027a7.281,7.281,0,0,1,7.307-7.239h10.63v31.22H691.916l-4.044-2.7v-1.99h-.236Zm23.374-7.239H713.4v31.22h-2.393Zm-161.485,1.807,4.926-4.215.514,8.87Zm-6.573-4.216,4.927,4.216-5.441,4.656Zm.972-.576h9.556l-4.778,4.089Zm366.009,1.465,1.573-2.21.134,2.561h-1.707Zm-11.181-2.211,1.579,2.219v11.09l-2.453,3.448Zm-78.7-.523h2.8v8.4h-2.8Zm50.258,0h2.759v8.4H870.31ZM32.6,283.536h4.363v19.625a9.883,9.883,0,0,0,9.919,9.827h2.856v2.489h-.9v.765H42.189v-.765H41.055v.765H34.408v-.765H33.275v.765H32.6Zm8.965,19.625V283.536h3.215v9.643a5.956,5.956,0,0,0,4.958,5.84v9.41H46.882a5.3,5.3,0,0,1-5.317-5.268m5.516-9.982v-9.643h2.658v13.134a3.654,3.654,0,0,1-2.658-3.491m852.424-9.9h.828v1.163Zm5.441,7.642v-7.642h.379v7.634l-.193.271Zm4.989-7.642h.822l-.822,1.155Zm0-2.245.707.865h-.707Zm-9.6-.009v.875h-.713Zm-351.63-.366,4.67,3.636h-9.34Zm-37.457-2.6,10.265,10.956H500.98Zm381.134,1.689a2.25,2.25,0,0,1,2.258-2.236h3.093L897.5,281.9h0l-1.1,21.131-.486,9.322h-3.533Zm6.745-2.236h1.209v1.316l-1.365,1.673Zm5.821,0h.379V281.9h-.379Zm4.989,1.324v-1.324h1.2l.157,2.989Zm2.825,3.059-.229-4.383h14.558a2.25,2.25,0,0,1,2.258,2.236,5.022,5.022,0,0,0,5.04,4.993h4.84l-.074,2.433H913.035Zm-284.142-5.144,4.969,4.081-.119,7.724-5.749,4.8Zm-85.124-.15,4.34,3.378-4.75,3.7Zm6.079,3.378,4.339-3.378.41,7.075Zm96.35,8.623-.121-7.966,4.957-4.141.912,16.827ZM544.57,276.087h8.267L548.7,279.3Zm85.276-.687h3.823l-.047,3.1Zm15.876,0h3.5l-3.459,2.89Zm174.33.165h.781V274.2h2.021v8.4h-2.8Zm50.258,0h.781V274.2h1.978v8.4H870.31Zm157.754-2.482,4.168,3.567H1032l-3.648-2.226h-.12l-3.648,2.226h-.685ZM548.7,272.151l4.023,2.872h-8.043Zm-197.3-1.486H363.43v30.772h-2.042V309.1h.036l-5.979,2.817Zm16.44,0h14.632v22.984a6.912,6.912,0,0,0,6.936,6.871h9.97l-.667,19.8H385.236V316.31h-.08L369.848,309.1h.036v-7.663h-2.042Zm16.838,22.984V270.664h15.7l-.164,4.872-.436,12.957-.09,2.664-.242,7.176H389.409a4.713,4.713,0,0,1-4.73-4.685m28.909-5.484-.161-4.82L413,270.664h23.723a.835.835,0,0,1,.838.83v26.839H413.931Zm220.163-18.108-.054,3.525h-3.841Zm11.883-.362,4.374,3.887h-4.315Zm378.014-.391,3.784,3.238-4.179,3.576Zm5.047,3.238,3.783-3.238.395,6.814Zm-4.3-3.68h7.34L1028.064,272Zm-480.445-.107,3.836,2.738-4.166,2.975Zm5.674,2.738,3.835-2.738.331,5.713ZM899.6,268.371l.731.9v5.491h-1.065Zm10.333.887.726-.888.332,6.388h-1.058Zm-364.8-.97h7.14l-3.57,2.549Zm-43.816-.825,8.92,9.519-10.1,10.774Zm10.941,9.519,8.919-9.519,1.176,20.294Zm392.688-4.259v-5.5h.379v5.49l-.193.237Zm-402.571-6.289h17.744l-8.873,9.469Zm525.689-1.184,3.586,2.792h-7.172Zm-479.36-.309,3.458,2.282h-6.915Zm475.36-2.805,3.332,2.6-3.647,2.839Zm4.668,2.6,3.334-2.6.314,5.435Zm-484.394-2.669,3.4,2.24-3.665,2.419Zm5.335,2.24,3.4-2.241.269,4.659Zm475.217-2.562h6.348l-3.175,2.47Zm-479.259-.1h6.145l-3.073,2.027Zm359.315-.536.186-.2.193.209v4.738h-.379ZM548.7,258.76l2.958,1.811h-5.914Zm-198.472-.039h27.514a4.71,4.71,0,0,1,4.729,4.683v2.89h-31.5Zm677.833-.005,3.089,2.205h-6.178Zm-516.818-2.037,8.728,8.289H502.518ZM949.64,284.744h3.18a5.022,5.022,0,0,0,5.04-4.993V258.826a2.252,2.252,0,0,1,2.259-2.238h6.4v25.129l-2.2,5.46H949.714Zm32.241-3.027V256.588H996.22a2.25,2.25,0,0,1,2.256,2.238v28.351h-14.4ZM544.67,256.289l3.01,1.844-3.23,1.98Zm5.057,1.844,3.009-1.844.221,3.823Zm479.042.079,2.946-2.1.254,4.389Zm-4.358-2.1,2.948,2.1-3.2,2.286ZM546.079,255.9h5.25l-2.626,1.607Zm479.244-.148h5.482l-2.741,1.958ZM645.6,267.218l-.119-7.775,4.155-3.76.861,15.886Zm254.672-11.6.065.071v8.378l-.536.583Zm9.667,8.456v-8.392l.061-.065.471,9.033ZM629.764,255.6l4.153,3.688-.128,8.274-4.914,4.447Zm275.181,3.054v-4.03h.379v4.025l-.193.208Zm-273.783-4.256h2.828l-.038,2.48Zm14.237,0h2.934l-2.894,2.619Zm-96.7-1,2.512,1.436h-5.022Zm479.36-.215,2.654,1.751h-5.309Zm-483.1-1.925,2.666,1.525-2.848,1.629Zm4.816,1.524,2.664-1.525.184,3.155Zm474.931-1.81,2.608,1.72-2.816,1.856Zm4.1,1.72,2.609-1.72.208,3.578Zm-482.326-1.795h4.442l-2.221,1.27Zm479.222-.253h4.718l-2.359,1.555ZM645.329,249.8l2.686,2.772h-2.644Zm-11.261-.384-.049,3.155h-3Zm-592.5-.882a3.662,3.662,0,0,1,3.215,3.608v26.832H41.565Zm-8.965-.048h4.363v30.488H32.6Zm995.464-.057,2.271,1.391h-4.543ZM502.426,248.3l7.75,7.361-8.653,8.218Zm9.891,7.361,7.75-7.361.9,15.579Zm-8.7-8.258h15.25l-7.626,7.242Zm521.344-.871,2.313,1.417-2.481,1.52Zm3.883,1.417,2.312-1.417.17,2.937Zm-197.263-1.028v-.5h11.188A6.2,6.2,0,0,1,849,252.582v3.137h-.487v2h.239c-8.648.8-15.56,6.279-16.934,13.3h-1.052v4.554h.781v46.064h-7.182V270.668h-1.508V272.7h-2.021v-1.692h-1.053c-1.372-7.016-8.284-12.5-16.933-13.3h.1v-2h-.564v-3.137a6.2,6.2,0,0,1,6.222-6.163h11.188v.5Zm194.462-.689h4.031l-2.015,1.235Zm2.015-1.922,1.93,1.1h-3.858Zm-2.873-1.643,2.048,1.172-2.188,1.252Zm3.7,1.172,2.048-1.173.14,2.425Zm-2.531-1.449h3.413l-1.707.976Zm-515.111-2.853,7.478,6.4H503.769Zm119.64-4.642,3.351,3.458-.128,8.39-4.095,4.244Zm14.4,12.237-.14-9.2,3.335-3.457.915,16.9Zm-13.324-13.75,2.348,0-.036,2.388Zm13.113-.013,1.935,0-1.9,1.973Zm-141.751-.61,6.788,5.808-7.5,6.413Zm9.054,5.808,6.787-5.808.708,12.221Zm206.462,49.777h18.126a11.04,11.04,0,0,0,11.08-10.976V239.606a7.284,7.284,0,0,1,7.3-7.239l63.486-.037h0a4.956,4.956,0,0,1,3.508,1.438,4.863,4.863,0,0,1,1.454,3.478v1.845h-.569v2.965h-3.441v.623H808.6a9.959,9.959,0,0,0-9.994,9.9v3.137h-.5v2h.381c-8.648.8-15.56,6.279-16.933,13.3H780.5v4.554h.781v58.372H767.595l-.3-8.927-.008-.273-.584-17.359-.027-.8-.688-20.454-.01-.338-.095-2.8h-8.2l-.094,2.8-.123,3.672-.209,6.212-.074,2.164-.161,4.8-.159,4.748-.583,17.359-.215,6.384-.095,2.816H736v-7.078a7.335,7.335,0,0,0-7.361-7.293h-9.8Zm-214.179-56.38h13.165l-6.583,5.632Zm6.582-6.476,6.432,5.008H504.814Zm-7.175-5.585,5.977,4.653-6.541,5.092Zm8.375,4.653,5.977-4.653.564,9.745Zm-6.891-5.365h11.384l-5.693,4.432ZM9.51,228.236v-5.254a5.3,5.3,0,0,1,5.316-5.267H31.647a5.3,5.3,0,0,1,5.316,5.267V246.21H32.6v-5.631h-.02Zm501.737-14.466,5.54,3.956H505.708Zm1.267-.9,5.281-3.773.456,7.87Zm-7.817-3.773,5.282,3.773-5.739,4.1Zm1.632-.643h9.834l-4.917,3.511Zm4.916-4.609,4.763,3.141h-9.525Zm-6.015-3.966,4.678,3.085-5.049,3.331Zm7.352,3.085,4.679-3.085.371,6.416Zm-5.568-3.673h8.463l-4.233,2.791Zm4.232-3.964,4.074,2.5h-8.15Zm-5.555-3.4,4.146,2.541-4.452,2.728Zm6.963,2.541,4.145-2.541.306,5.269Zm-5.026-3.078h7.234l-3.617,2.216Zm3.617-3.447,3.459,1.98h-6.918Zm-5.152-2.948,3.67,2.1-3.924,2.244Zm6.633,2.1,3.672-2.1.252,4.346Zm-4.541-2.6h6.12l-3.061,1.751Zm126.971-6.218-.817,53.292-5.138,0v.648h-.013l-4.733,87.353H619.02a7.335,7.335,0,0,0-7.361,7.293v1.128h-6.244l-.105-3.169-.855-25.389-.234-6.946-.235-7.015-.1-2.949-.312-9.3-.18-5.37-.137-4.09H591.267l-.137,4.09-.18,5.37-.208,6.169-.2,6.081-.236,7.015-.233,6.946-.854,25.389-.108,3.169h-8.652V290.006h-.03l-4.008-4.135h-.027l-1.053-31.3-.153-4.557-.675-20.1-.083-2.452-.078-2.328h-6.822l-.079,2.328-.082,2.452-.388,11.567-.134,3.952-.154,4.582-.153,4.557-.178,5.309-.092,2.709-.783,23.284h-.027l-4.008,4.135h-.029v52.414H558.8l-.844-14.579-1.012-17.459-.8-13.817-.649-11.205-.537-9.274-.452-7.8-.385-6.652-.332-5.739-.049-.842-.014-.224-.29-5h-9.471l-.29,5-.013.224-.049.842-.331,5.739-.385,6.652-.453,7.8-.537,9.274-.649,11.205-.8,13.817-.05.858H525.2l-1.286-22.224-1.394-24.049-1.1-19.033L520.52,230.5l-.741-12.773-.607-10.462-.461-7.977-.015-.24-.071-1.227-.458-7.906-.4-6.893H504.723l-.4,6.893-.457,7.906-.072,1.227-.015.24-.448,7.755-.619,10.684-.74,12.773-.895,15.437-1.1,19.033-1.393,24.049-1.814,31.3h-1.742V305.2a6.91,6.91,0,0,0-6.935-6.87h-7.911l-.084-2.515-.21-6.252-.18-5.365-.609-18.089-.024-.734-.352-10.47H470.69l-.093,2.74-.121,3.6-.154,4.568-.122,3.639-.157,4.7-.157,4.653-.23,6.873-.132,3.886-.21,6.252-.084,2.515H441.971V271.494a5.23,5.23,0,0,0-5.249-5.2H412.854l-.141-4.2-.008-.251-1-29.6H401.675l-.169,5.01-.1,2.908-.173,5.162-.172,5.09-.534,15.882h-15.85V263.4a6.91,6.91,0,0,0-6.935-6.87H350.017l-.51-5.187v-36.81h2.432v-8.958H277.78v8.958h2.431v36.81l-1.45,14.788H263.375v-4.489H262.2v3.887H258v-3.887H256.82v4.489H244.159l-1.45-14.788v-36.81h2.432v-8.958h-74.16v8.958h2.432v36.81L166.4,322.93H156.141v-4.676a9.7,9.7,0,0,0-1.882-5.737V301.731h-2.045v-48h-8.94v48h-2.044v6.7h-8.88v-6.7h-2.045v-48h-8.939v48h-2.045v6.7h-3.687v-5.661a5.915,5.915,0,0,0-2.612-4.9l-.43-16.312h-7.23l-.4,15.273H90.152V260.777h-.016l-20.1-10.754h-.187l-20.1,10.754h-.016v18.2H47.08V252.145a5.962,5.962,0,0,0-5.516-5.91V222.981a9.883,9.883,0,0,0-9.918-9.826H14.826a9.884,9.884,0,0,0-9.919,9.826v5.593L0,231.2V544.163H1055V327.449a14.131,14.131,0,0,0-3.873-1.529V315.509H1055v-1.381h-3.873v-7.322h-1.782V256.224h-3.438v50.581h-1.782v7.322h-2.78V282.347h-.01l-7.539-4.6-.063-1.1-.5-8.607h0l-.363-6.3-.021-.348-.026-.471-.326-5.605-.27-4.674-.02-.349-.027-.47-.209-3.589h0l-.27-4.66h-7.275l-.27,4.66h0l-.209,3.589-.027.47-.02.349-.269,4.674-.326,5.605-.027.471-.02.348-.364,6.3h0l-.5,8.607-.013.206-.035.613-.033.562-7.075,4.316h-.011v4.83h-13.969V258.826a5.023,5.023,0,0,0-5.04-5H981.881V207.4H966.519V253.83h-6.4a5.025,5.025,0,0,0-5.042,5v20.925a2.249,2.249,0,0,1-2.257,2.235h-3.263l-.464-15.237-.152-4.965-.626-20.533h-7.764l-.088,2.923-.111,3.614-.143,4.683-.131,4.3-.153,5.015-.151,4.965-.236,7.752-.113,3.728-.115,3.756h-4.925a2.249,2.249,0,0,1-2.257-2.235,5.021,5.021,0,0,0-5.041-4.993h-14.7l-.464-8.912h0l-.656-12.606h-1.331V225.913h-4.61V253.24h-.379V225.913h-4.612V253.24H899l-.73,13.985-.393,7.533h-3.237a5.022,5.022,0,0,0-5.041,4.993v32.6h-5.9a2.553,2.553,0,0,0-2.562,2.539v6.957a1.143,1.143,0,0,1-.621,1.005,6.063,6.063,0,0,0-3.652-1.224h-2.282V270.668h-1.508V272.7H871.09v-1.692h-1.053c-1.372-7.016-8.285-12.5-16.933-13.3h.24v-2h-.575v-3.137a9.959,9.959,0,0,0-9.995-9.9H831.586v-.623h-3.441v-2.965h-.569v-1.845a8.553,8.553,0,0,0-2.56-6.121,8.721,8.721,0,0,0-6.175-2.535h-.006l-63.486.039a11.041,11.041,0,0,0-11.073,10.975v37.763a7.281,7.281,0,0,1-7.307,7.239H718.842V235.355H713.4v49.253h-2.393V235.355h-5.437v49.253h-10.63a11.041,11.041,0,0,0-11.081,10.976v19.289h-.225v1.99l-4.044,2.7H654.932L650.2,232.214h-.033v-.669l-5.116.005-.817-53.281Z" transform="translate(0 -13.235)" fill="url(#linear-gradient)"/>
  </g>
</svg>
