<?xml version="1.0" encoding="UTF-8"?>
<svg xmlns="http://www.w3.org/2000/svg"
  xmlns:xlink="http://www.w3.org/1999/xlink"
  viewBox="0 0 119.45 119.45">
  <defs>
    <style>.cls-1{fill:none;}.cls-2{fill:url(#radial-gradient-2);}.cls-2,.cls-3{mix-blend-mode:multiply;}.cls-4{clip-path:url(#clippath);}.cls-3{fill:url(#radial-gradient);opacity:.8;}.cls-5{fill:#fff;}.cls-6{fill:#143c7c;}.cls-7{isolation:isolate;}</style>
    <clipPath id="clippath">
      <path class="cls-1"
        d="M59.72,0C26.74,0,0,26.74,0,59.72s26.74,59.72,59.72,59.72,59.72-26.74,59.72-59.72S92.71,0,59.72,0Z"/>
    </clipPath>
    <radialGradient id="radial-gradient"
      cx="59.72"
      cy="59.72"
      fx="59.72"
      fy="59.72"
      r="60.33"
      gradientTransform="matrix(1, 0, 0, 1, 0, 0)"
      gradientUnits="userSpaceOnUse">
      <stop offset=".85"
        stop-color="#fff"/>
      <stop offset=".88"
        stop-color="#eaeaea"/>
      <stop offset=".92"
        stop-color="#b4b4b4"/>
      <stop offset=".99"
        stop-color="#5f5f5f"/>
      <stop offset="1"
        stop-color="#4d4d4d"/>
    </radialGradient>
    <radialGradient id="radial-gradient-2"
      cx="59.72"
      cy="59.72"
      fx="59.72"
      fy="59.72"
      r="60.33"
      gradientTransform="matrix(1, 0, 0, 1, 0, 0)"
      gradientUnits="userSpaceOnUse">
      <stop offset=".58"
        stop-color="#fff"/>
      <stop offset=".74"
        stop-color="#eaeaea"/>
      <stop offset="1"
        stop-color="#c1c1c1"/>
    </radialGradient>
  </defs>
  <g class="cls-7">
    <g id="Layer_2">
      <g id="ICON">
        <g class="cls-4">
          <g>
            <circle class="cls-5"
              cx="59.72"
              cy="59.72"
              r="60.33"
              transform="translate(-24.74 59.72) rotate(-45)"/>
            <path class="cls-3"
              d="M59.72-.6C26.41-.6-.6,26.41-.6,59.72s27.01,60.33,60.33,60.33,60.33-27.01,60.33-60.33S93.04-.6,59.72-.6Z"/>
            <path class="cls-2"
              d="M59.72-.6C26.41-.6-.6,26.41-.6,59.72s27.01,60.33,60.33,60.33,60.33-27.01,60.33-60.33S93.04-.6,59.72-.6Z"/>
            <g>
              <path id="Union_7-2"
                class="cls-6"
                d="M45.17,74.66c-.43,0-.78-.35-.78-.78,0-.04,0-.08,.01-.13l.56-3.41c.25-1.5,1.54-2.6,3.07-2.6h23.4c1.52,0,2.82,1.1,3.07,2.6l.56,3.41c.07,.43-.22,.83-.64,.9-.04,0-.08,.01-.13,.01h-29.1Zm1.4-4.06l-.4,2.43h27.1l-.4-2.43c-.11-.71-.73-1.24-1.46-1.24h-23.4c-.72,0-1.34,.52-1.45,1.24h0Zm22.13-4.71l-1.99-16.26c-.23-1.84-1.79-3.22-3.64-3.22h-6.7c-1.85,0-3.41,1.38-3.64,3.22l-1.99,16.26c-.05,.41-.4,.72-.81,.72-.45,0-.82-.36-.82-.82,0-.03,0-.07,0-.1l1.99-16.26c.33-2.66,2.59-4.65,5.26-4.66h6.7c2.68,0,4.93,2,5.26,4.66l1.99,16.26c.05,.45-.26,.85-.71,.91-.03,0-.07,0-.1,0-.41,0-.76-.31-.81-.72h0Zm-15.62-1.31c-.19-.02-.36-.12-.47-.27-.12-.15-.17-.35-.15-.54l.35-2.86c.05-.4,.41-.68,.81-.64,.4,.05,.69,.41,.64,.81l-.35,2.85c-.04,.37-.36,.64-.72,.64h-.1Zm.72-5.23c-.19-.02-.37-.12-.49-.28-.12-.15-.17-.35-.15-.54l1.12-9.11c.05-.4,.41-.68,.81-.64h0c.4,.05,.69,.41,.64,.81l-1.12,9.11c-.04,.37-.36,.64-.72,.64h-.09Z"/>
              <rect class="cls-6"
                x="47.14"
                y="14.2"
                width="4.17"
                height="11.68"
                rx="1.6"
                ry="1.6"
                transform="translate(-3.25 11.59) rotate(-13)"/>
              <rect class="cls-6"
                x="37.22"
                y="18.27"
                width="4.17"
                height="11.68"
                rx="1.59"
                ry="1.59"
                transform="translate(-6.72 21.29) rotate(-28.01)"/>
              <rect class="cls-6"
                x="28.7"
                y="24.77"
                width="4.17"
                height="11.68"
                rx="1.6"
                ry="1.6"
                transform="translate(-12.6 29.22) rotate(-43)"/>
              <rect class="cls-6"
                x="22.15"
                y="33.25"
                width="4.17"
                height="11.68"
                rx="1.6"
                ry="1.6"
                transform="translate(-21.75 38.92) rotate(-57.99)"/>
              <rect class="cls-6"
                x="18.02"
                y="43.14"
                width="4.17"
                height="11.68"
                rx="1.6"
                ry="1.6"
                transform="translate(-32.61 53.88) rotate(-73)"/>
              <rect class="cls-6"
                x="16.59"
                y="53.76"
                width="4.17"
                height="11.68"
                rx="1.6"
                ry="1.6"
                transform="translate(-41.54 76.18) rotate(-88)"/>
              <rect class="cls-6"
                x="14.2"
                y="68.14"
                width="11.68"
                height="4.17"
                rx="1.6"
                ry="1.6"
                transform="translate(-15.28 6.31) rotate(-13)"/>
              <rect class="cls-6"
                x="18.27"
                y="78.05"
                width="11.68"
                height="4.17"
                rx="1.6"
                ry="1.6"
                transform="translate(-34.8 20.7) rotate(-28)"/>
              <path class="cls-6"
                d="M26.36,86.58h8.49c.88,0,1.6,.71,1.6,1.6v.98c0,.88-.71,1.6-1.6,1.6h-8.49c-.88,0-1.6-.71-1.6-1.6v-.98c0-.88,.71-1.6,1.6-1.6Z"
                transform="translate(-52.25 44.7) rotate(-43.01)"/>
              <rect class="cls-6"
                x="33.25"
                y="93.13"
                width="11.68"
                height="4.17"
                rx="1.6"
                ry="1.6"
                transform="translate(-62.37 77.9) rotate(-58)"/>
              <rect class="cls-6"
                x="43.14"
                y="97.26"
                width="11.68"
                height="4.17"
                rx="1.6"
                ry="1.6"
                transform="translate(-60.35 117.13) rotate(-73)"/>
              <rect class="cls-6"
                x="53.76"
                y="98.69"
                width="11.68"
                height="4.17"
                rx="1.6"
                ry="1.6"
                transform="translate(-43.2 156.82) rotate(-88)"/>
              <rect class="cls-6"
                x="68.14"
                y="93.57"
                width="4.17"
                height="11.68"
                rx="1.6"
                ry="1.6"
                transform="translate(-20.56 18.35) rotate(-13)"/>
              <rect class="cls-6"
                x="78.05"
                y="89.5"
                width="4.17"
                height="11.68"
                rx="1.6"
                ry="1.6"
                transform="translate(-35.37 48.77) rotate(-27.99)"/>
              <rect class="cls-6"
                x="86.58"
                y="83"
                width="4.17"
                height="11.68"
                rx="1.59"
                ry="1.59"
                transform="translate(-36.77 84.36) rotate(-43.01)"/>
              <rect class="cls-6"
                x="93.13"
                y="74.52"
                width="4.17"
                height="11.68"
                rx="1.6"
                ry="1.6"
                transform="translate(-23.39 118.53) rotate(-58)"/>
              <rect class="cls-6"
                x="97.26"
                y="64.63"
                width="4.17"
                height="11.68"
                rx="1.6"
                ry="1.6"
                transform="translate(2.91 144.87) rotate(-73)"/>
              <rect class="cls-6"
                x="98.69"
                y="54.01"
                width="4.17"
                height="11.68"
                rx="1.6"
                ry="1.6"
                transform="translate(37.44 158.48) rotate(-88)"/>
              <rect class="cls-6"
                x="93.57"
                y="47.14"
                width="11.68"
                height="4.17"
                rx="1.6"
                ry="1.6"
                transform="translate(-8.53 23.62) rotate(-13)"/>
              <rect class="cls-6"
                x="89.5"
                y="37.22"
                width="11.68"
                height="4.17"
                rx="1.6"
                ry="1.6"
                transform="translate(-7.3 49.36) rotate(-28)"/>
              <path class="cls-6"
                d="M84.6,28.7h8.49c.88,0,1.6,.71,1.6,1.6v.98c0,.88-.71,1.6-1.6,1.6h-8.49c-.88,0-1.6-.71-1.6-1.6v-.98c0-.88,.71-1.6,1.6-1.6Z"
                transform="translate(2.87 68.86) rotate(-43)"/>
              <rect class="cls-6"
                x="74.52"
                y="22.15"
                width="11.68"
                height="4.17"
                rx="1.6"
                ry="1.6"
                transform="translate(17.22 79.54) rotate(-58)"/>
              <rect class="cls-6"
                x="64.63"
                y="18.02"
                width="11.68"
                height="4.17"
                rx="1.6"
                ry="1.6"
                transform="translate(30.64 81.62) rotate(-73)"/>
              <rect class="cls-6"
                x="54.01"
                y="16.59"
                width="11.68"
                height="4.17"
                rx="1.6"
                ry="1.6"
                transform="translate(39.1 77.84) rotate(-88)"/>
            </g>
          </g>
        </g>
      </g>
    </g>
  </g>
</svg>